<?xml version="1.0" encoding="utf-8"?><svg xmlns="http://www.w3.org/2000/svg" viewBox="-200 108 361 127" enable-background="new -200 108 361 127"><g fill="#4dbdeb"><path d="m122.5 180.5c-1.1-1-2.5-2.2-3.1-4.5-.6-2.5 1-4 2.4-5.3 1.2-1.1 2.3-2.2 2.3-3.8 0-1.8-1-2.6-2.2-3.6-1.2-1.1-2.6-2.3-2.6-4.7s1.4-3.6 2.6-4.7c1.2-1 2.2-1.9 2.2-3.6 0-1.9-.9-2.6-1.9-3.6-1-.8-2.2-1.9-2.8-4-.2-.6.2-1.2.8-1.4.6-.2 1.2.2 1.4.8.4 1.4 1.1 2.1 2 2.8 1.2 1 2.7 2.3 2.7 5.3 0 2.8-1.6 4.2-2.9 5.3-1.2 1-1.9 1.7-1.9 3s.7 2 1.9 3c1.3 1.1 2.9 2.5 2.9 5.3 0 2.7-1.7 4.2-3.1 5.5-1.5 1.3-2 1.9-1.7 3.1.4 1.6 1.4 2.5 2.4 3.4l-1.4 1.7"/><path d="m118.2 182.3c-.6 0-1.1-.5-1.1-1.1 0-1.5-.8-2.2-1.8-3-1.1-.9-2.4-2-2.4-4.2s1.3-3.3 2.4-4.2c1-.9 1.8-1.6 1.8-3 0-1.6-.7-2.2-1.6-3-.5-.4-.5-1.1-.1-1.6s1.1-.5 1.6-.1c1.1.9 2.4 2.1 2.4 4.7 0 2.5-1.4 3.7-2.6 4.8-1 .9-1.6 1.4-1.6 2.5 0 1.1.5 1.6 1.6 2.5 1.2 1 2.6 2.3 2.6 4.8-.1.4-.6.9-1.2.9"/><path d="m143.7 209.1c-.7 0-1.3-.3-1.8-.9-1.9-2.4-.4-10.4-.2-11.1.7-2.3 2.6-2.9 3.8-2.9 3.5 0 6 2.8 6 6.4v.8c0 2.2-1.8 7.2-7.9 7.6-.1.1.2.1.1.1m1.7-12c-.1 0-.9.1-1.2.8-.5 1.6-1.2 6.8-.6 8.3 4.3-.4 4.9-4 4.9-4.7v-.8c0-2-1.1-3.6-3.1-3.6"/><path d="m131.4 230h-25.6l-.3-.9c-.3-1-3.6-5.9-5.4-8.4l-.9-1.1c-2.6-3-4.5-7.8-4.9-12.3-.2-.3-.4-.7-.4-1.1v-17.2c0-2.8 2.9-5.7 5.8-5.7h37.8c2.9 0 4.6 2.9 4.6 5.7v1.4h3.8c5.8 0 10.4 4.6 10.4 10.4v.8c0 5.5-5.7 10.3-15.7 13.2-.6 1.6-1.5 3.4-2.6 4.8l-1.5 1.9c-1.8 2.6-4.4 6.7-4.7 7.6l-.4.9m-23.7-2.8h21.8c1.4-2.6 5.3-8.2 6-9.2.1-.2.2-.3.3-.3l.4-.6h.1c.8-1.2 1.4-2.7 1.9-4l.3-.7.7-.2c8.9-2.5 14.3-6.5 14.3-10.7v-.8c0-4.2-3.3-7.6-7.6-7.6h-6.6v-4.2c0-1.4-.7-2.9-1.8-2.9h-37.8c-1.3 0-2.9 1.6-2.9 2.9v16.9c.1.2.3.5.3.8v.2c.3 3.6 1.6 7.4 3.6 10.1h.1l.6.7c.1.1.2.2.3.3.8 1.2 4.6 6.7 6 9.3"/><path d="m139.6 161.4c-1.9-.6-3.4-2.9-4-4.8-.5 2-2.1 4.2-4 4.8 1.9.6 3.4 3.1 4 5.1.6-2 2.1-4.5 4-5.1"/><circle cx="99.4" cy="150.7" r="2.2"/><path d="m134.5 142.1l-2.5 5.1-2.5-5.1h5"/><path d="m132.2 194.8l2.3 2.2v6h-11v-6l3-2h5m.9-3.9h-.9-5-.9l-.7 1.3-2.1 2.7-.4 1v1 6.5 1.5h1.6 9.7 3.6v-1.5-6.5-1l-1.4-.7-2.8-3.1-.7-1.2z"/><path d="m129.5 198.8c-.8 0-2-.6-2-1.4v-12.7c0-.8 1.2-1.4 2-1.4s2 .6 2 1.4v12.8c0 .7-1.2 1.3-2 1.3"/><path d="m108.5 117.1h1v8h-1v-8"/><path d="m106.5 122.1h7v2h-7v-2"/><path d="m68.5 224.1h-175v-106.4c0-4 3.8-6.7 8.1-6.7h160c4.1 0 7 2.6 7 6.7v106.4h-.1m-172-6h169v-100.4c0-2.6-1.4-5.7-4-5.7h-160c-2.7 0-5.1 3.3-5.1 5.7l.1 100.4"/><path d="m60.5 213.1h-161v-94h161v94m-159-1h158v-90h-158v90"/></g><path d="m-127.5 221.1h217v4h-217v-4" fill="#1d6b87"/><path d="m91.5 226.1h-220v-8h220v8m-217.8-2h216.8-216.8" fill="#4dbdeb"/><path d="m-42.7 221.7c0 1.1.9 2.4 2 2.4h44.6c1.1 0 2-1.2 2-2.4 0-.1 0-.6 0-.6h-48.6c0 0 0 .5 0 .6" fill="#3594ba"/><path d="m81.8 230.1h-200.3c-5.1 0-10.6-1-10.6-4.6 0-.8.6-1.1 1.4-1.1s1.4 1.1 1.4 1.9c0 .7 2.7 2.8 7.7 2.8h200.3c5 0 7.7-2 7.7-2.7 0-.8.6-1.6 1.4-1.6s1.4 0 1.4.8c.2 3.3-5.1 4.5-10.4 4.5" fill="#4dbdeb"/><circle cx="-17.5" cy="115.9" r="1.7" fill="#6bcaef"/><g fill="#4dbdeb"><path d="m95.6 136.2c-2.8-.9-5-4.2-5.8-7-.8 2.8-3 6.1-5.8 7 2.8.9 5 4.5 5.8 7.3.8-2.8 3-6.5 5.8-7.3"/><circle cx="-139.3" cy="135.7" r="2.2"/><path d="m-149.9 122.1l1.5-3 1.4 3h-2.9"/><circle cx="-133.8" cy="122" r="1.3"/><circle cx="-133.5" cy="148.3" r="1.3"/><path d="m-147.9 136.1l-2.5 5.1-2.5-5.1h5"/><path d="m-112.2 137.9c-2.8-.9-5-4.2-5.8-7-.8 2.8-3 6.1-5.8 7 2.8.9 5 4.5 5.8 7.3.8-2.8 3-6.5 5.8-7.3"/><path d="m-72.2 180.6c-.3 0-.6-.1-.8-.3-.5-.4-.6-1.2-.1-1.7l7.4-8.7c.4-.5 1.2-.6 1.7-.1s.6 1.2.1 1.7l-7.4 8.7c-.2.3-.6.4-.9.4"/><path d="m44.4 141.9v63.6h6.2v-63.6h-6.2"/><path d="m44.4 137.7v-7.9-1.7h-133.8v1.7 7.9h133.8m-127.7-2.6c-1.2 0-2.2-1-2.2-2.2 0-1.2 1-2.2 2.2-2.2s2.2 1 2.2 2.2c.1 1.2-.9 2.2-2.2 2.2m6.1 0c-1.2 0-2.2-1-2.2-2.2 0-1.2 1-2.2 2.2-2.2s2.2 1 2.2 2.2c0 1.2-1 2.2-2.2 2.2m6 0c-1.2 0-2.2-1-2.2-2.2 0-1.2 1-2.2 2.2-2.2s2.2 1 2.2 2.2c.1 1.2-.9 2.2-2.2 2.2m59.6-1.7c0-1.2 1-2.2 2.2-2.2h48.6c1.1.2 1.9 1.1 1.9 2.2s-.8 2.1-1.9 2.2h-48.6c-1.2 0-2.2-1-2.2-2.2"/><path d="m-137.9 187.7c-.1-.1-.1-.1 0 0"/></g><path d="m-72 180.8l6.8-7.9c.4.2.9.3 1.4.3.9 0 1.7-.3 2.3-.9l4.4 3.4c-.1.2-.1.5-.1.8 0 1.9 1.5 3.4 3.4 3.4s3.4-1.5 3.4-3.4c0-.7-.2-1.3-.5-1.8l5.7-9.1c.2 0 .5.1.7.1 1.9 0 3.4-1.5 3.4-3.4 0-1.9-1.5-3.4-3.4-3.4s-3.4 1.5-3.4 3.4c0 .8.3 1.5.7 2l-5.6 8.9c-.3-.1-.6-.1-.9-.1-.7 0-1.4.2-2 .6l-4.6-3.5c0-.1 0-.2 0-.4 0-1.9-1.5-3.4-3.4-3.4s-3.4 1.5-3.4 3.4c0 .5.1 1 .3 1.4l-5.2 6v3.6c-.1 0 0 0 0 0m27.6-19.6c.6 0 1 .5 1 1 0 .6-.5 1-1 1-.6 0-1-.5-1-1 0-.6.4-1 1-1m-9.3 14.2c.6 0 1 .5 1 1 0 .6-.5 1-1 1s-1-.5-1-1c-.1-.5.4-1 1-1m-10.1-6.7c.6 0 1 .5 1 1 0 .6-.5 1-1 1s-1-.5-1-1 .5-1 1-1" fill="#fff"/><g fill="#4dbdeb"><path d="m6.7 162.6h.1c0 0 0 0-.1 0"/><path d="m4 153.3c.2-.1.5-.1.7-.1-.2 0-.5 0-.7.1"/><path d="m-9.7 169.5c0-.1 0-.2 0-.3 0 .1 0 .2 0 .3"/><path d="m7.1 162.6h.1c0 0 0 0-.1 0"/><path d="m4.9 153.1c.2 0 .5-.1.7-.1-.3 0-.5.1-.7.1"/><path d="m7.7 162.6c-.1 0-.1 0 0 0 4.3 0 7.7 3.4 7.7 7.7 0 4.3-3.4 7.7-7.7 7.7-4 0-7.2-3-7.6-6.8.3 2.7 1.9 4.9 4.2 6l-4.2 8.7c2.3 1.1 4.9 1.8 7.7 1.8 9.6 0 17.4-7.8 17.4-17.4 0-9.6-7.8-17.4-17.4-17.4-.3 0-.6 0-.9 0 .3 0 .6 0 .9 0l-.1 9.7"/><path d="m-5.2 158.6c2.2-2.4 5-4.2 8.2-5.1-6.9 1.9-12.1 8-12.7 15.3.3-3.9 2-7.5 4.5-10.2"/><path d="m3.1 153.5c.3-.1.5-.1.8-.2-.3.1-.6.1-.8.2"/><path d="m0 170.3c0 0 0 .1 0 0"/><path d="m5.8 153c.2 0 .5 0 .7-.1-.2 0-.5 0-.7.1"/><path d="m0 171c0-.1 0-.2 0-.3 0 .1 0 .2 0 .3"/></g><path d="m-9.7 171.1c0 .1 0 .1 0 0 .3 6.5 4.2 12.1 9.7 14.8l4.2-8.7c-2.3-1.1-3.9-3.4-4.2-6v-.1c0-.1 0-.2 0-.3s0-.2 0-.4c0 0 0 0 0-.1 0-.2 0-.4 0-.6.2-2.9 2.1-5.4 4.7-6.5-1 .4-1.9 1.1-2.7 1.9l-7.2-6.5c-2.5 2.8-4.2 6.3-4.5 10.3 0 .1 0 .2 0 .4 0 .1 0 .2 0 .3 0 .2 0 .4 0 .7v.1c-.1.2 0 .5 0 .7" fill="#fff"/><g fill="#4dbdeb"><path d="m-5.2 158.6l7.2 6.5c.7-.8 1.6-1.4 2.7-1.9.3-.1.6-.2 1-.3.1 0 .2-.1.3-.1 0 0 0 0 .1 0s.2 0 .3-.1h.1c.1 0 .2 0 .3 0h.1c.1 0 .2 0 .3 0h.1c.1 0 .2 0 .4 0v-9.7c-.3 0-.6 0-.9 0-.1 0-.2 0-.2 0-.2 0-.5 0-.7.1-.1 0-.2 0-.2 0-.2 0-.5.1-.7.1-.1 0-.1 0-.2 0-.2 0-.5.1-.7.1h-.1c-.3.1-.5.1-.8.2-3.4.9-6.2 2.7-8.4 5.1"/><path d="m-36.9 188.3h-35.7c-.7 0-1.2-.5-1.2-1.2s.5-1.2 1.2-1.2h35.7c.7 0 1.2.5 1.2 1.2s-.5 1.2-1.2 1.2"/><path d="m-72.6 188.2c-.7 0-1.2-.5-1.2-1.2v-35.4c0-.7.5-1.2 1.2-1.2s1.2.5 1.2 1.2v35.4c0 .6-.6 1.2-1.2 1.2"/><path d="m153.5 231.4h-349.5c-.6 0-1-.4-1-1s.4-1 1-1h349.5c.6 0 1 .4 1 1s-.4 1-1 1"/><path d="m-161.2 159.5c-2.1 0-3.9-1.7-3.9-3.9 0-2.1 1.7-3.9 3.9-3.9 2.1 0 3.9 1.7 3.9 3.9 0 2.1-1.7 3.9-3.9 3.9m0-5.4c-.8 0-1.5.7-1.5 1.5s.7 1.5 1.5 1.5c.8 0 1.5-.7 1.5-1.5s-.6-1.5-1.5-1.5"/><path d="m-151.5 179.2c-3.4 0-6.2-2.8-6.2-6.2 0-3.4 2.8-6.2 6.2-6.2s6.2 2.8 6.2 6.2-2.8 6.2-6.2 6.2m0-10c-2.1 0-3.8 1.7-3.8 3.8 0 2.1 1.7 3.8 3.8 3.8s3.8-1.7 3.8-3.8-1.7-3.8-3.8-3.8"/><path d="m-175.3 178.2c-.2 0-.5-.1-.7-.2-1.6-1.2-2.6-3-2.6-5 0-3.4 2.8-6.2 6.2-6.2 2.4 0 4.7 1.4 5.7 3.7.3.6 0 1.3-.6 1.6-.6.3-1.3 0-1.6-.6-.6-1.4-2-2.2-3.5-2.2-2.1 0-3.8 1.7-3.8 3.8 0 1.2.6 2.4 1.6 3.1.5.4.7 1.1.3 1.7-.3.2-.7.3-1 .3"/><path d="m-141.8 217.2h-39v-33h39v33m-36.6-2.4h34.2v-28.1h-34.2v28.1"/><path d="m-149.8 217.2h-23.7v-21h23.7v21m-21.3-2.4h18.9v-16.2h-18.9v16.2"/><path d="m-145.6 185.6c-.6 0-1.1-.5-1.2-1.1-.3-2.3-1.1-4.5-2.4-6.5-.4-.5-.2-1.3.3-1.7.6-.4 1.3-.2 1.7.3 1.5 2.2 2.5 4.8 2.8 7.5.1.7-.4 1.3-1.1 1.3 0 .2 0 .2-.1.2"/><path d="m-176.4 185.6h-.1c-.7-.1-1.1-.7-1.1-1.3.9-8.5 8.1-14.9 16.6-14.9 1.7 0 3.3.2 4.9.7.6.2 1 .9.8 1.5-.2.6-.9 1-1.5.8-1.4-.4-2.8-.6-4.2-.6-7.3 0-13.4 5.5-14.2 12.7-.1.7-.6 1.1-1.2 1.1"/><path d="m-161.1 171.6c-.7 0-1.2-.5-1.2-1.2v-12.1c0-.7.5-1.2 1.2-1.2.7 0 1.2.5 1.2 1.2v12.1c0 .7-.6 1.2-1.2 1.2"/><path d="m-180.3 210.1c-5 0-9-4.8-9-10.7s4-10.7 9-10.7c.7 0 1.2.5 1.2 1.2s-.5 1.2-1.2 1.2c-3.6 0-6.6 3.7-6.6 8.3s3 8.3 6.6 8.3c.7 0 1.2.5 1.2 1.2s-.5 1.2-1.2 1.2"/><path d="m-143 208.7c-.7 0-1.2-.5-1.2-1.2s.5-1.2 1.2-1.2c3.6 0 6.6-3.7 6.6-8.3s-3-8.3-6.6-8.3c-.7 0-1.2-.5-1.2-1.2s.5-1.2 1.2-1.2c5 0 9 4.8 9 10.7s-4 10.7-9 10.7"/><path d="m-161.8 230.8h-14.3l-.3-.8c-2.7-8-.1-14 0-14.2.3-.6 1-.9 1.6-.6.6.3.9 1 .6 1.6 0 0-2.2 5-.2 11.6h9.2c-.6-2.3-1.4-6.8-.4-12.6.1-.7.7-1.1 1.4-1 .7.1 1.1.7 1 1.4-1.3 7.6.7 12.9.8 13l.6 1.6"/><path d="m-145.4 230.8h-14.3l.6-1.6c0-.1 2.1-5.4.8-13-.1-.7.3-1.3 1-1.4.7-.1 1.3.3 1.4 1 1 5.8.2 10.3-.4 12.6h9.2c2-6.7-.2-11.6-.2-11.6-.3-.6 0-1.3.6-1.6.6-.3 1.3 0 1.6.6.1.2 2.8 6.2 0 14.2l-.3.8"/><path d="m-165.6 186.7c-.1 0-.3 0-.4 0-.7 0-1.2-.6-1.1-1.3 0-.7.6-1.2 1.3-1.1.2 0 5.2.2 6.5-4 .2-.6.9-1 1.5-.8.6.2 1 .9.8 1.5-1.6 4.5-6.1 5.7-8.6 5.7"/><path d="m-173.9 171.2h3.1v3.1h-3.1v-3.1"/><path d="m-153.1 171.2h3.1v3.1h-3.1v-3.1"/></g></svg>