<?xml version="1.0" encoding="utf-8"?><svg xmlns="http://www.w3.org/2000/svg" viewBox="0 0 521.3 388" enable-background="new 0 0 521.3 388"><defs><linearGradient id="0" gradientUnits="userSpaceOnUse" y1="357.7" x2="0" y2="64.9"><stop stop-color="#e8e8e8"/><stop offset=".041" stop-color="#e9e9e9"/><stop offset=".32" stop-color="#efefef"/></linearGradient></defs><path d="m494.3 3.3h-122.3-222.9-122.3c-13.6 0-24.7 11-24.7 24.6v64 236.3 33.2c0 13.6 11.1 24.6 24.7 24.6h122.3 222.8 122.4c13.6 0 24.7-11 24.7-24.6v-33.2-236.3-64c0-13.6-11.1-24.6-24.7-24.6" fill="#fff"/><path fill="url(#0)" d="m27.4 64.9h472.4v292.8h-472.4z"/><path fill="#2995bb" d="m27.1 50.2h473v22.2h-473z"/><path d="m66.5 42.1l4.6-4.8h-9.4c-.2 0-.3.2-.3.3v1c-.9-1.4-2.6-2.4-4.6-2.4-2.6 0-4.7 1.6-5.1 3.8v-2.7h-1.6c-.4 0-.7.2-1 .4l-3.2 3.5-3.2-3.5c-.2-.3-.6-.4-1-.4h-1.6v7h1.9c.2 0 .3-.2.3-.3v-3.3l3.5 3.9 3.5-3.9v3.3c0 .2.2.3.3.3h1.9v-2.9c.4 2.2 2.5 3.8 5.1 3.8 2.9 0 5.2-2 5.2-4.5 0-.4-.1-.8-.2-1.2h4.1l-4.5 4.8h.5 8.9c.2 0 .3-.2.3-.3v-1.9h-4.4m-9.7.9c-1.4 0-2.6-1-2.6-2.2s1.2-2.2 2.6-2.2c1.4 0 2.6 1 2.6 2.2-.1 1.2-1.2 2.2-2.6 2.2" fill="#4dbae8"/><path fill="none" stroke="#e1e1e1" stroke-width="2" stroke-miterlimit="10" d="m26.8 28.5h473.5v329.7h-473.5z"/><g fill="#fff"><path d="m52.2 133h386.6v73.7h-386.6z"/><path d="m51.6 217.1h386.6v73.7h-386.6z"/></g><g fill="#d3d4d4"><path d="m52.4 114.8h426v1.2h-426z"/><path d="m52.7 118.9h54.2v1.2h-54.2z"/><path d="m93.3 152.9h49v1.2h-49z"/><path d="m93.9 185.2h49v1.2h-49z"/><path d="m93.3 157.2h279.8v1.2h-279.8z"/><path d="m93.3 175.6h279.8v1.2h-279.8z"/><path d="m93.3 180.1h279.8v1.2h-279.8z"/><path d="m92.2 254.8h49v1.2h-49z"/><path d="m91.7 245.2h279.8v1.2h-279.8z"/><path d="m93.3 272h279.8v1.2h-279.8z"/><path d="m91.7 249.7h279.8v1.2h-279.8z"/><path d="m364.8 196.8h61.8v1.2h-61.8z"/></g><g fill="#72797b"><path d="m53.1 97.8v-.7h3.7v.7l-1.4.1v10.4l1.4.1v.7h-3.7v-.7l1.4-.1v-10.4l-1.4-.1"/><path d="m58.5 108.4l1.4-.1v-7.3l-1.4-.1v-.7h2.2l.1 1.6c.3-.6.7-1 1.2-1.3s1.1-.5 1.7-.5c1 0 1.7.3 2.2.9.5.6.8 1.5.8 2.8v4.6l1.4.1v.7h-3.8v-.7l1.4-.1v-4.6c0-1-.2-1.8-.6-2.2s-.9-.6-1.6-.6c-.7 0-1.3.2-1.7.6-.4.4-.8.9-1 1.5v5.4l1.4.1v.7h-3.7c0 0 0-.8 0-.8"/><path d="m76.4 102.9h-.8l-.1-1.3c-.2-.3-.6-.5-.9-.6-.3-.1-.8-.2-1.3-.2-.7 0-1.3.2-1.6.5-.4.3-.5.7-.5 1.1 0 .4.2.8.5 1s.9.5 1.9.7c1.1.2 1.9.6 2.4 1s.8 1 .8 1.7-.3 1.4-.9 1.8c-.6.5-1.4.7-2.4.7-.7 0-1.3-.1-1.8-.3s-1-.4-1.4-.8v-1.8h.8l.1 1.3c.3.3.6.5 1 .6s.8.2 1.3.2c.7 0 1.3-.2 1.7-.5s.6-.7.6-1.1c0-.4-.2-.8-.5-1.1-.3-.3-1-.6-1.9-.8-1.1-.2-1.9-.5-2.4-.9s-.8-.9-.8-1.6c0-.7.3-1.3.9-1.7.6-.5 1.3-.7 2.3-.7.7 0 1.3.1 1.8.3s1 .5 1.3.8l-.1 1.7"/><path d="m78.7 108.4l1.4-.1v-7.3l-1.4-.1v-.7h2.3v8.1l1.4.1v.7h-3.7c0 0 0-.7 0-.7m2.3-10.8h-1v-1.4h1v1.4"/><path d="m84.4 104.7c0-1.4.3-2.6.9-3.4.6-.9 1.5-1.3 2.5-1.3.6 0 1.2.1 1.7.4.5.3.9.7 1.2 1.2l.1-1.4h.8v8.9c0 1.2-.3 2.1-.9 2.7s-1.5 1-2.6 1c-.4 0-.9-.1-1.4-.2-.5-.1-.9-.2-1.3-.4l.3-.8c.4.2.7.3 1.1.4s.8.1 1.2.1c.9 0 1.5-.3 1.9-.8s.6-1.2.6-2.1v-1.1c-.3.5-.7.8-1.2 1.1-.5.2-1 .4-1.6.4-1.1 0-1.9-.4-2.5-1.2-.6-.8-.9-1.9-.9-3.2l.1-.3m1 .2c0 1.1.2 1.9.7 2.6.4.6 1.1 1 2 1 .6 0 1.2-.1 1.6-.4s.8-.7 1-1.2v-4.2c-.2-.5-.5-1-1-1.3-.4-.3-1-.5-1.6-.5-.9 0-1.5.4-2 1.1s-.7 1.6-.7 2.8v.1"/><path d="m93.9 96.9v-.7h2.4v5.5c.3-.5.7-1 1.2-1.3s1.1-.4 1.7-.4c.9 0 1.7.3 2.2.9.5.6.8 1.5.8 2.7v4.7l1.4.1v.7h-3.8v-.7l1.4-.1v-4.7c0-1-.2-1.7-.6-2.1-.4-.4-.9-.6-1.6-.6-.7 0-1.2.2-1.7.5-.5.4-.8.8-1 1.4v5.5l1.4.1v.7h-3.7v-.7l1.4-.1v-11.2l-1.5-.2"/><path d="m107.6 97.9v2.3h2v.8h-2v5.9c0 .6.1 1 .3 1.2.2.2.5.4.9.4.2 0 .3 0 .5 0s.3 0 .5-.1l.2.7c-.2.1-.4.1-.6.2-.2.1-.5.1-.7.1-.6 0-1.1-.2-1.5-.6s-.5-1-.5-1.9v-5.9h-1.6v-.8h1.5v-2.3h1"/></g><g fill="#707a7c"><path d="m118.3 102.9h-.8l-.1-1.3c-.2-.3-.6-.5-.9-.6-.3-.1-.8-.2-1.3-.2-.7 0-1.3.2-1.6.5-.4.3-.5.7-.5 1.1 0 .4.2.8.5 1 .3.2.9.5 1.9.7 1.1.2 1.9.6 2.4 1s.8 1 .8 1.7-.3 1.4-.9 1.8c-.6.5-1.4.7-2.4.7-.7 0-1.3-.1-1.8-.3s-1-.4-1.4-.8v-1.8h.8l.1 1.3c.3.3.6.5 1 .6.4.1.8.2 1.3.2.7 0 1.3-.2 1.7-.5s.6-.7.6-1.1c0-.4-.2-.8-.5-1.1s-1-.6-1.9-.8c-1.1-.2-1.9-.5-2.4-.9s-.8-.9-.8-1.6c0-.7.3-1.3.9-1.7.6-.5 1.3-.7 2.3-.7.7 0 1.3.1 1.8.3s1 .5 1.3.8l-.1 1.7"/><path d="m124.9 101v-.8h1.5v-1.3c0-.9.2-1.6.7-2.1s1.1-.7 1.9-.7c.2 0 .4 0 .5 0 .1 0 .4.1.6.1l-.1.8c-.1 0-.3-.1-.4-.1-.1 0-.3 0-.5 0-.5 0-1 .2-1.2.5-.3.3-.4.8-.4 1.4v1.3h2.1v.8h-2.1v7.3l1.4.1v.7h-3.7v-.7l1.4-.1v-7.3l-1.7.1"/><path d="m131.4 104.5c0-1.3.4-2.4 1.1-3.3s1.7-1.3 2.9-1.3c1.2 0 2.2.4 2.9 1.3.7.8 1.1 1.9 1.1 3.3v.3c0 1.3-.4 2.4-1.1 3.3-.7.8-1.7 1.3-2.9 1.3-1.2 0-2.2-.4-2.9-1.3-.7-.8-1.1-1.9-1.1-3.3v-.3m1 .3c0 1 .3 1.9.8 2.6s1.3 1.1 2.2 1.1c.9 0 1.6-.4 2.2-1.1.5-.7.8-1.6.8-2.6v-.3c0-1-.3-1.9-.8-2.6s-1.3-1.1-2.2-1.1c-.9 0-1.7.4-2.2 1.1s-.8 1.6-.8 2.6v.3"/><path d="m143.4 100.2l.1 1.5v.1c.3-.6.6-1 1-1.3s1-.5 1.6-.5c.1 0 .3 0 .4 0 .1 0 .2 0 .3.1l-.1.9h-.7c-.6 0-1.1.2-1.5.5-.4.4-.7.8-.9 1.4v5.4l1.4.1v.7h-3.7v-.7l1.4-.1v-7.3l-1.4-.1v-.7h1.4.7"/><path d="m161.5 100.9l-.9.1-3.6 9.6c-.2.6-.5 1.1-.9 1.6-.4.4-.9.6-1.6.6-.1 0-.3 0-.4 0-.2 0-.3-.1-.4-.1l.1-.8c.1 0 .2 0 .3 0 .1 0 .3 0 .3 0 .4 0 .8-.2 1-.5.3-.3.5-.7.7-1.2l.5-1.2-3.2-8.1-.9-.1v-.7h3.1v.7l-1.1.1 2.2 5.7.3 1.1 2.5-6.8-1.1-.1v-.7h3.1c0 0 0 .8 0 .8"/></g><g fill="#72797b"><path d="m162.9 104.5c0-1.3.4-2.4 1.1-3.3s1.7-1.3 2.9-1.3c1.2 0 2.2.4 2.9 1.3.7.8 1.1 1.9 1.1 3.3v.3c0 1.3-.4 2.4-1.1 3.3-.7.8-1.7 1.3-2.9 1.3-1.2 0-2.2-.4-2.9-1.3-.7-.8-1.1-1.9-1.1-3.3v-.3m1 .3c0 1 .3 1.9.8 2.6s1.3 1.1 2.2 1.1 1.6-.4 2.2-1.1c.5-.7.8-1.6.8-2.6v-.3c0-1-.3-1.9-.8-2.6s-1.3-1.1-2.2-1.1-1.7.4-2.2 1.1-.8 1.6-.8 2.6v.3"/><path d="m179.4 107.7c-.3.5-.7.9-1.2 1.2s-1.1.4-1.7.4c-.9 0-1.7-.3-2.2-1s-.8-1.6-.8-3v-4.4l-1.1-.1v-.7h1.1 1v5.2c0 1.1.2 1.9.6 2.4s.9.7 1.6.7c.8 0 1.4-.2 1.8-.5.4-.3.8-.8.9-1.4v-5.6l-1.3-.1v-.7h1.3 1v8.1l1.2.1v.7h-2.1l-.1-1.3"/><path d="m185.5 100.2l.1 1.5v.1c.3-.6.6-1 1-1.3.4-.3 1-.5 1.6-.5.1 0 .3 0 .4 0 .1 0 .2 0 .3.1l-.1.9h-.7c-.6 0-1.1.2-1.5.5-.4.4-.7.8-.9 1.4v5.4l1.4.1v.7h-3.8v-.7l1.4-.1v-7.3l-1.4-.1v-.7h1.4.8"/><path d="m197 102.9h-.8l-.1-1.3c-.2-.3-.6-.5-.9-.6s-.8-.2-1.3-.2c-.7 0-1.3.2-1.6.5-.4.3-.5.7-.5 1.1 0 .4.2.8.5 1 .3.2.9.5 1.9.7 1.1.2 1.9.6 2.4 1s.8 1 .8 1.7-.3 1.4-.9 1.8c-.6.5-1.4.7-2.4.7-.7 0-1.3-.1-1.8-.3s-1-.4-1.4-.8v-1.8h.8l.1 1.3c.3.3.6.5 1 .6.4.1.8.2 1.3.2.7 0 1.3-.2 1.7-.5s.6-.7.6-1.1c0-.4-.2-.8-.5-1.1s-1-.6-1.9-.8c-1.1-.2-1.9-.5-2.4-.9s-.8-.9-.8-1.6c0-.7.3-1.3.9-1.7.6-.5 1.3-.7 2.3-.7.7 0 1.3.1 1.8.3s1 .5 1.3.8l-.1 1.7"/><path d="m199.3 108.4l1.4-.1v-7.3l-1.4-.1v-.7h2.3v8.1l1.4.1v.7h-3.7v-.7m2.3-10.8h-1v-1.4h1v1.4"/><path d="m207.3 97.9v2.3h2v.8h-2v5.9c0 .6.1 1 .3 1.2s.5.4.9.4c.2 0 .3 0 .5 0 .2 0 .3 0 .5-.1l.2.7c-.2.1-.4.1-.6.2s-.5.1-.7.1c-.6 0-1.1-.2-1.5-.6s-.5-1-.5-1.9v-5.9h-1.5v-.8h1.5v-2.3h.9"/><path d="m215.3 109.3c-1.1 0-2.1-.4-2.8-1.2s-1.1-1.9-1.1-3.2v-.5c0-1.3.4-2.3 1.1-3.2.7-.8 1.6-1.3 2.7-1.3s2 .3 2.6 1c.6.7.9 1.6.9 2.8v.8h-6.3v.2c0 1 .3 1.9.8 2.5.5.7 1.2 1 2.1 1 .6 0 1.1-.1 1.6-.3s.8-.4 1.1-.7l.4.7c-.3.4-.8.6-1.3.8-.4.5-1 .6-1.8.6m-.1-8.4c-.7 0-1.3.3-1.8.8-.5.6-.8 1.3-.9 2.1h5.3v-.2c0-.8-.2-1.4-.7-2-.5-.5-1.1-.7-1.9-.7"/><path d="m222.4 109.2h-1.1v-1.4h1.1v1.4"/><path d="m228.9 108.5c.7 0 1.2-.2 1.7-.6.5-.4.8-.9.8-1.6h.9c0 .8-.3 1.5-1 2.1s-1.5.8-2.4.8c-1.2 0-2.2-.4-2.8-1.3-.7-.8-1-1.9-1-3.2v-.3c0-1.3.3-2.4 1-3.2s1.6-1.3 2.8-1.3c.7 0 1.3.1 1.9.4.6.3 1 .6 1.4 1.1v2h-.8l-.2-1.6c-.3-.3-.6-.5-1-.7s-.8-.3-1.3-.3c-1 0-1.7.3-2.1 1-.5.7-.7 1.6-.7 2.6v.3c0 1.1.2 1.9.7 2.6s1.1 1.2 2.1 1.2"/><path d="m234.4 104.5c0-1.3.4-2.4 1.1-3.3s1.7-1.3 2.9-1.3 2.2.4 2.9 1.3c.7.8 1.1 1.9 1.1 3.3v.3c0 1.3-.4 2.4-1.1 3.3-.7.8-1.7 1.3-2.9 1.3s-2.2-.4-2.9-1.3c-.7-.8-1.1-1.9-1.1-3.3v-.3m1 .3c0 1 .3 1.9.8 2.6s1.3 1.1 2.2 1.1 1.6-.4 2.2-1.1c.5-.7.8-1.6.8-2.6v-.3c0-1-.3-1.9-.8-2.6s-1.3-1.1-2.2-1.1-1.7.4-2.2 1.1-.8 1.6-.8 2.6v.3"/><path d="m244.1 100.9v-.7h2.2l.1 1.5c.3-.5.7-.9 1.2-1.2s1.1-.4 1.7-.4c.7 0 1.3.2 1.7.5.5.3.8.8 1 1.5.3-.6.7-1.1 1.2-1.5s1.1-.5 1.8-.5c1 0 1.7.3 2.2 1 .5.6.8 1.6.8 3v4.4l1.4.1v.7h-3.7v-.7l1.4-.1v-4.4c0-1.1-.2-1.9-.6-2.3-.4-.5-.9-.7-1.6-.7-.8 0-1.4.2-1.8.7s-.7 1.1-.8 1.9v.1.1 4.5l1.4.1v.7h-3.7v-.7l1.4-.1v-4.4c0-1.1-.2-1.9-.6-2.3-.4-.5-.9-.7-1.6-.7-.7 0-1.3.2-1.7.5-.4.4-.7.8-.9 1.4v5.5l1.4.1v.7h-3.7v-.7l1.4-.1v-7.3l-1.6-.2"/></g><path fill="#12a9e2" d="m52.2 133h26.2v26.2h-26.2z"/><path fill="#f9be1f" d="m51.6 217.1h26.2v26.2h-26.2z"/><path d="m65.3 138.1c-3.3 0-5.9 2.7-5.9 6 0 1.5.6 3 1.6 4.1l.1.1c.9.9 1.4 1.4 1.5 2.4v2c0 .8.6 1.4 1.4 1.4h.1c.1.4.5.7 1 .7h.7c.5 0 .8-.3 1-.7h.1c.8 0 1.4-.6 1.4-1.4v-2c.1-1.1.6-1.5 1.5-2.4l.1-.1c1-1.1 1.6-2.6 1.6-4.1-.3-3.3-2.9-6-6.2-6m.7 11.9h-1.4v-4.2h1.4v4.2m-.7 2.8h-1.4v-1.4h2.8v1.4h-1.4m3.3-5.5c-.8.8-1.5 1.5-1.8 2.7h-.1v-5.6h-2.8v5.6h-.1c-.3-1.2-1-1.9-1.8-2.7-.8-.9-1.2-2-1.2-3.2 0-2.5 2-4.6 4.5-4.6s4.5 2.1 4.5 4.6c0 1.2-.4 2.3-1.2 3.2" fill="#0087ba"/><g fill="#707a7c"><path d="m96.3 142.3h.3c.1 0 .3 0 .3-.1.1 0 .2-.1.2-.2l2.2-2.8c.1-.1.2-.2.3-.2.1 0 .2-.1.4-.1h1.3l-2.7 3.3c-.1.1-.2.2-.2.3-.1.1-.2.1-.2.2.1 0 .2.1.3.2.1.1.2.2.3.3l2.8 3.7h-1.3c-.2 0-.3 0-.4-.1s-.2-.1-.2-.2l-2.2-2.9c-.1-.1-.2-.2-.2-.2-.1 0-.2-.1-.4-.1h-.6v3.5h-1.5v-8h1.5v3.4"/><path d="m105.6 141.2c.4 0 .7.1 1 .2.3.1.6.3.8.5.2.2.4.5.5.8s.2.7.2 1.1c0 .1 0 .2 0 .3s0 .1 0 .2l-.1.1c0 0-.1 0-.2 0h-3.6c0 .6.2 1 .5 1.3.3.3.6.4 1.1.4.2 0 .4 0 .6-.1.2-.1.3-.1.4-.2.1-.1.2-.1.3-.2.1-.1.2-.1.3-.1s.1 0 .1 0l.1.1.4.5c-.2.2-.3.3-.5.4-.2.1-.4.2-.6.3-.2.1-.4.1-.6.2s-.4 0-.6 0c-.4 0-.8-.1-1.1-.2-.3-.1-.6-.3-.9-.6-.2-.3-.4-.6-.6-.9-.1-.4-.2-.8-.2-1.3 0-.4.1-.7.2-1.1.1-.3.3-.6.5-.9.2-.3.5-.5.9-.6.3-.1.6-.2 1.1-.2m0 1c-.4 0-.7.1-.9.3-.2.2-.4.5-.4 1h2.6c0-.2 0-.3-.1-.5 0-.2-.1-.3-.2-.4-.1-.1-.2-.2-.4-.3-.2-.1-.4-.1-.6-.1"/><path d="m112 148.5c0 .1-.1.2-.2.2s-.2.1-.3.1h-1l1.1-2.3-2.3-5.2h1.2c.1 0 .2 0 .3.1s.1.1.1.2l1.2 2.9c0 .1.1.2.1.3s.1.2.1.3c0-.1.1-.2.1-.3s.1-.2.1-.3l1.1-2.9c0-.1.1-.1.1-.2.1 0 .1-.1.2-.1h1.1l-3 7.2"/><path d="m116.3 141.3h1.1c.1 0 .2 0 .3.1.1 0 .1.1.1.2l.8 3c0 .2.1.3.1.5s.1.3.1.5c0-.2.1-.3.1-.5s.1-.3.1-.5l.9-3c0-.1.1-.1.1-.2.1 0 .1-.1.2-.1h.6c.1 0 .2 0 .2.1.1 0 .1.1.1.2l.9 3.1c0 .2.1.3.1.5 0 .1.1.3.1.4 0-.2.1-.3.1-.5s.1-.3.1-.5l.8-3c0-.1.1-.1.1-.2.1 0 .2-.1.2-.1h1l-1.8 5.6h-1.1c-.1 0-.2-.1-.3-.2l-1-3.3c0-.1-.1-.2-.1-.3s0-.2-.1-.3c0 .1 0 .2-.1.3 0 .1-.1.2-.1.3l-1 3.3c-.1.2-.2.2-.3.2h-1l-1.3-5.6"/><path d="m129.2 141.2c.4 0 .8.1 1.1.2.3.1.6.3.9.6.2.2.4.6.6.9s.2.8.2 1.2-.1.9-.2 1.2-.3.7-.6.9c-.3.2-.5.4-.9.6-.3.1-.7.2-1.1.2-.4 0-.8-.1-1.1-.2s-.6-.3-.9-.6c-.3-.3-.4-.6-.6-.9-.2-.3-.2-.8-.2-1.2s.1-.8.2-1.2c.1-.4.3-.7.6-.9.2-.2.5-.4.9-.6.4-.2.7-.2 1.1-.2m0 4.8c.5 0 .8-.2 1-.5.2-.3.3-.8.3-1.4 0-.6-.1-1.1-.3-1.4-.2-.3-.6-.5-1-.5-.5 0-.8.2-1.1.5-.2.3-.3.8-.3 1.4s.1 1.1.3 1.4c.3.3.6.5 1.1.5"/><path d="m134.1 146.9v-5.6h.8c.1 0 .2 0 .3.1.1.1.1.1.1.3l.1.7c.2-.3.4-.6.7-.8.3-.2.6-.3.9-.3s.5.1.7.2l-.2 1c0 .1 0 .1-.1.1h-.1c-.1 0-.1 0-.2 0-.1 0-.2 0-.4 0-.3 0-.5.1-.7.2-.2.2-.4.4-.5.7v3.5h-1.4v-.1"/><path d="m143.7 146.9c-.2 0-.3-.1-.3-.2l-.1-.6c-.1.1-.2.3-.4.4-.1.1-.3.2-.4.3-.1.1-.3.1-.5.2-.2 0-.4.1-.6.1-.3 0-.6-.1-.8-.2-.3-.1-.5-.3-.7-.6-.2-.2-.3-.5-.4-.9-.1-.4-.2-.8-.2-1.2s.1-.8.2-1.2c.1-.4.3-.7.5-.9.2-.3.5-.5.8-.6.3-.1.6-.2 1-.2.3 0 .6.1.8.2.2.1.4.2.6.4v-3h1.4v8.2h-.9v-.2m-1.8-1c.3 0 .5-.1.7-.2.2-.1.4-.3.6-.5v-2.5c-.2-.2-.3-.3-.5-.4-.2-.1-.4-.1-.6-.1s-.4 0-.6.1-.3.2-.4.3c-.1.2-.2.4-.3.6-.1.2-.1.5-.1.8s0 .6.1.8.1.4.2.6c.1.2.2.2.4.3.2.2.3.2.5.2"/><path d="m158 143c0 .6-.1 1.1-.3 1.6-.2.5-.5.9-.8 1.3-.4.4-.8.6-1.3.8s-1 .3-1.6.3c-.6 0-1.2-.1-1.6-.3-.5-.2-.9-.5-1.3-.8-.4-.4-.6-.8-.8-1.3-.2-.5-.3-1-.3-1.6s.1-1.1.3-1.6c.2-.5.5-.9.8-1.3.4-.4.8-.6 1.3-.8s1-.3 1.6-.3c.6 0 1.1.1 1.6.3s.9.5 1.3.8c.4.4.6.8.8 1.3.2.5.3 1 .3 1.6m-1.5 0c0-.4-.1-.8-.2-1.2-.1-.3-.3-.6-.5-.9-.2-.2-.5-.4-.8-.6s-.7-.2-1-.2-.7.1-1 .2c-.3.1-.6.3-.8.6-.2.2-.4.5-.5.9-.1.3-.2.7-.2 1.2 0 .4.1.8.2 1.2.1.4.3.6.5.9.2.2.5.4.8.6.3.1.7.2 1 .2s.7-.1 1-.2.6-.3.8-.6c.2-.2.4-.5.5-.9s.2-.8.2-1.2"/><path d="m160.2 148.8v-7.5h.8c.1 0 .2 0 .2.1s.1.1.1.2l.1.5c.2-.3.5-.5.8-.6.3-.2.6-.2 1-.2.3 0 .6.1.8.2.3.1.5.3.7.6.2.2.3.5.4.9.1.4.2.8.2 1.2s-.1.8-.2 1.2c-.1.4-.3.7-.5.9-.2.3-.5.5-.8.6-.3.1-.6.2-1 .2-.3 0-.6 0-.8-.1s-.4-.2-.6-.4v2.3h-1.2v-.1m2.7-6.5c-.3 0-.5.1-.7.2-.2.1-.4.3-.6.5v2.5c.2.2.3.3.5.4.2.1.4.1.6.1.2 0 .4 0 .6-.1s.3-.2.4-.4c.1-.2.2-.4.3-.6s.1-.5.1-.9c0-.3 0-.6-.1-.8-.1-.2-.1-.4-.2-.6-.1-.1-.2-.2-.4-.3-.2 0-.4 0-.5 0"/><path d="m167.5 148.8v-7.5h.8c.1 0 .2 0 .2.1s.1.1.1.2l.1.5c.2-.3.5-.5.8-.6.3-.2.6-.2 1-.2.3 0 .6.1.8.2.3.1.5.3.7.6.2.2.3.5.4.9.1.4.2.8.2 1.2s-.1.8-.2 1.2c-.1.4-.3.7-.5.9-.2.3-.5.5-.8.6-.3.1-.6.2-1 .2-.3 0-.6 0-.8-.1-.2-.1-.4-.2-.6-.4v2.3h-1.2v-.1m2.7-6.5c-.3 0-.5.1-.7.2-.2.1-.4.3-.6.5v2.5c.2.2.3.3.5.4.2.1.4.1.6.1.2 0 .4 0 .6-.1s.3-.2.4-.4c.1-.2.2-.4.3-.6s.1-.5.1-.9c0-.3 0-.6-.1-.8-.1-.2-.1-.4-.2-.6-.1-.1-.2-.2-.4-.3-.2 0-.3 0-.5 0"/><path d="m177.3 141.2c.4 0 .8.1 1.1.2.3.1.6.3.9.6.2.2.4.6.6.9.2.3.2.8.2 1.2s-.1.9-.2 1.2c-.1.3-.3.7-.6.9s-.5.4-.9.6c-.3.1-.7.2-1.1.2s-.8-.1-1.1-.2c-.3-.1-.6-.3-.9-.6s-.4-.6-.6-.9c-.2-.3-.2-.8-.2-1.2s.1-.8.2-1.2c.1-.4.3-.7.6-.9.2-.2.5-.4.9-.6.4-.2.7-.2 1.1-.2m0 4.8c.5 0 .8-.2 1-.5s.3-.8.3-1.4c0-.6-.1-1.1-.3-1.4-.2-.3-.6-.5-1-.5-.5 0-.8.2-1.1.5-.2.3-.3.8-.3 1.4s.1 1.1.3 1.4c.3.3.6.5 1.1.5"/><path d="m182.2 146.9v-5.6h.8c.1 0 .2 0 .3.1s.1.1.1.3l.1.7c.2-.3.4-.6.7-.8.3-.2.6-.3.9-.3s.5.1.7.2l-.2 1c0 .1 0 .1-.1.1h-.1c-.1 0-.1 0-.2 0s-.2 0-.4 0c-.3 0-.5.1-.7.2-.2.2-.4.4-.5.7v3.5h-1.4v-.1"/><path d="m189.7 147c-.5 0-.9-.1-1.1-.4s-.4-.7-.4-1.1v-3.2h-.6c-.1 0-.1 0-.2-.1-.1 0-.1-.1-.1-.2v-.5l.9-.1.3-1.5c0-.1 0-.1.1-.2.1 0 .1-.1.2-.1h.7v1.8h1.5v1h-1.5v3.1c0 .2 0 .3.1.4.1.1.2.1.4.1.1 0 .2 0 .2 0s.1 0 .1-.1.1 0 .1-.1h.1.1l.1.1.4.7c-.2.2-.4.3-.7.4-.3.1-.5 0-.7 0"/><path d="m194.4 141.3v3.6c0 .3.1.6.2.8.2.2.4.3.7.3.2 0 .5-.1.7-.2.2-.1.4-.2.6-.4v-4.1h1.4v5.6h-.8c-.2 0-.3-.1-.3-.2l-.1-.5c-.1.1-.2.2-.4.3-.1.1-.3.2-.4.2-.1.1-.3.1-.5.2s-.3.1-.5.1c-.3 0-.6-.1-.8-.2-.2-.1-.4-.3-.6-.4-.2-.2-.3-.4-.4-.7s-.1-.6-.1-.9v-3.6h1.3v.1"/><path d="m200.5 146.9v-5.6h.8c.2 0 .3.1.3.2l.1.4c.1-.1.2-.2.4-.3.1-.1.3-.2.4-.2.1-.1.3-.1.5-.2.2-.1.3-.1.5-.1.3 0 .6.1.8.2.2.1.4.3.6.4s.3.4.4.7c.1.3.1.6.1.9v3.6h-1.4v-3.6c0-.3-.1-.6-.2-.8-.2-.2-.4-.3-.7-.3-.2 0-.5.1-.7.2-.2.1-.4.3-.6.4v4.1h-1.3"/><path d="m209.5 139.6c0 .1 0 .2-.1.3-.1.1-.1.2-.2.3-.1.1-.2.1-.3.2-.1 0-.2.1-.3.1-.1 0-.2 0-.3-.1-.1 0-.2-.1-.3-.2-.1-.1-.1-.2-.2-.3-.1-.1-.1-.2-.1-.3s0-.2.1-.3c.1-.1.1-.2.2-.3.1-.1.2-.1.3-.2s.2-.1.3-.1.2 0 .3.1.2.1.3.2c.1.1.1.2.2.3.1.1.1.2.1.3m-.2 1.7v5.6h-1.4v-5.6h1.4"/><path d="m213.8 147c-.5 0-.9-.1-1.1-.4-.2-.3-.4-.7-.4-1.1v-3.2h-.6c-.1 0-.1 0-.2-.1-.1 0-.1-.1-.1-.2v-.5l.9-.1.3-1.5c0-.1 0-.1.1-.2.1 0 .1-.1.2-.1h.7v1.8h1.5v1h-1.5v3.1c0 .2 0 .3.1.4.1.1.2.1.4.1.1 0 .2 0 .2 0s.1 0 .1-.1.1 0 .1-.1h.1.1l.1.1.4.7c-.2.2-.4.3-.7.4s-.4 0-.7 0"/><path d="m219 139.6c0 .1 0 .2-.1.3-.1.1-.1.2-.2.3-.1.1-.2.1-.3.2-.1 0-.2.1-.3.1-.1 0-.2 0-.3-.1-.1 0-.2-.1-.3-.2-.1-.1-.1-.2-.2-.3-.1-.1-.1-.2-.1-.3s0-.2.1-.3c.1-.1.1-.2.2-.3.1-.1.2-.1.3-.2s.2-.1.3-.1.2 0 .3.1.2.1.3.2c.1.1.1.2.2.3.1.1.1.2.1.3m-.2 1.7v5.6h-1.4v-5.6h1.4"/><path d="m223.7 141.2c.4 0 .7.1 1 .2.3.1.6.3.8.5.2.2.4.5.5.8.1.3.2.7.2 1.1 0 .1 0 .2 0 .3s0 .1 0 .2l-.1.1c0 0-.1 0-.2 0h-3.5c0 .6.2 1 .5 1.3s.6.4 1.1.4c.2 0 .4 0 .6-.1s.3-.1.4-.2c.1-.1.2-.1.3-.2.1-.1.2-.1.3-.1.1 0 .1 0 .1 0l.1.1.4.5c-.2.2-.3.3-.5.4-.2.1-.4.2-.6.3-.2.1-.4.1-.6.2s-.4 0-.6 0c-.4 0-.8-.1-1.1-.2-.3-.1-.6-.3-.9-.6-.2-.3-.4-.6-.6-.9-.1-.4-.2-.8-.2-1.3 0-.4.1-.7.2-1.1.1-.3.3-.6.5-.9.2-.3.5-.5.9-.6.2-.1.6-.2 1-.2m.1 1c-.4 0-.7.1-.9.3-.2.2-.4.5-.4 1h2.6c0-.2 0-.3-.1-.5 0-.2-.1-.3-.2-.4-.1-.1-.2-.2-.4-.3-.2-.1-.4-.1-.6-.1"/><path d="m231.7 142.4c0 .1-.1.1-.1.1s-.1 0-.2 0c-.1 0-.1 0-.2-.1-.1 0-.2-.1-.3-.1s-.2-.1-.3-.1-.3-.1-.4-.1c-.3 0-.5.1-.6.2-.2.1-.2.3-.2.4 0 .1 0 .2.1.3s.2.2.3.2c.1.1.3.1.4.2.2 0 .3.1.5.2.2.1.3.1.5.2s.3.2.4.3c.1.1.2.3.3.4.1.2.1.4.1.6 0 .3 0 .5-.1.8-.1.2-.2.4-.4.6-.2.2-.4.3-.7.4s-.6.1-1 .1c-.2 0-.4 0-.6-.1-.2 0-.4-.1-.5-.1-.2-.1-.3-.1-.5-.2-.1-.1-.3-.2-.4-.3l.3-.5c0-.1.1-.1.1-.1.1 0 .1 0 .2 0s.2 0 .2.1c.1 0 .2.1.3.2.1.1.2.1.3.2.1 0 .3.1.5.1s.3 0 .4-.1c.1 0 .2-.1.3-.2.1-.1.1-.1.2-.2s.1-.2.1-.3 0-.2-.1-.3-.2-.2-.3-.2c-.1-.1-.3-.1-.4-.2-.2 0-.3-.1-.5-.2-.2-.1-.3-.1-.5-.2-.2-.1-.3-.2-.4-.3-.1-.1-.2-.3-.3-.4-.1-.2-.1-.4-.1-.6 0-.2 0-.5.1-.7s.2-.4.4-.5.4-.3.7-.4c.3-.1.6-.1.9-.1.4 0 .7.1 1.1.2s.6.3.8.5l-.4.3"/><path d="m97.4 229.7c.1 0 .2 0 .2.1l.6.6c-.3.4-.7.7-1.2.9s-1 .3-1.7.3c-.6 0-1.1-.1-1.6-.3s-.9-.5-1.2-.8c-.3-.3-.6-.8-.8-1.3-.2-.5-.3-1-.3-1.6s.1-1.1.3-1.6c.2-.5.5-.9.8-1.3.3-.4.8-.6 1.3-.8s1.1-.3 1.7-.3c.6 0 1.1.1 1.5.3.4.2.8.4 1.1.8l-.5.7-.1.1c0 0-.1.1-.2.1s-.2 0-.3-.1c-.1-.1-.2-.1-.3-.2-.1-.1-.3-.1-.5-.2-.2-.1-.5-.1-.8-.1-.4 0-.7.1-1 .2-.3.1-.6.3-.8.6-.2.2-.4.5-.5.9-.1.3-.2.7-.2 1.2 0 .4.1.8.2 1.2.1.3.3.6.5.9.2.2.5.4.8.5.3.1.6.2.9.2.2 0 .4 0 .5 0 .2 0 .3-.1.5-.1.1 0 .3-.1.4-.2.1-.1.2-.2.4-.3l.1-.1c.2-.2.2-.3.2-.3"/><path d="m100.4 231.6v-5.6h.8c.1 0 .2 0 .3.1.1.1.1.1.1.3l.1.7c.2-.3.4-.6.7-.8.3-.2.6-.3.9-.3s.5.1.7.2l-.2 1c0 .1 0 .1-.1.1h-.1c-.1 0-.1 0-.2 0s-.2 0-.4 0c-.3 0-.5.1-.7.2-.2.2-.4.4-.5.7v3.5h-1.4v-.1"/><path d="m110.2 231.6h-.6c-.1 0-.2 0-.3-.1-.1 0-.1-.1-.2-.2l-.1-.4c-.1.1-.3.2-.4.3-.1.1-.3.2-.4.2-.1.1-.3.1-.5.1-.2 0-.3 0-.5 0-.2 0-.5 0-.7-.1-.2-.1-.4-.2-.5-.3-.1-.1-.3-.3-.3-.5s-.1-.4-.1-.7c0-.2.1-.4.2-.6.1-.2.3-.4.6-.6.3-.2.6-.3 1-.4.4-.1 1-.2 1.6-.2 0-.4-.1-.7-.2-.8-.2-.2-.4-.3-.7-.3-.2 0-.4 0-.5.1-.3 0-.5 0-.6.1-.1.1-.2.1-.3.2s-.2.1-.3.1-.2 0-.2-.1c-.1 0-.1-.1-.2-.2l-.2-.4c.6-.6 1.4-.9 2.3-.9.3 0 .6.1.9.2.3.1.5.3.7.5.2.2.3.4.4.7.1.3.1.6.1.9v3.4m-2.6-.8c.1 0 .3 0 .4 0 .1 0 .2-.1.3-.1.1-.1.2-.1.3-.2.1-.1.2-.2.3-.3v-.9c-.4 0-.7 0-1 .1-.3 0-.5.1-.6.2-.2.1-.3.2-.3.3-.1.1-.1.2-.1.3 0 .2.1.4.2.5.1 0 .3.1.5.1"/><path d="m111.9 226h1.1c.1 0 .2 0 .3.1.1 0 .1.1.1.2l.8 3c0 .2.1.3.1.5s.1.3.1.5c0-.2.1-.3.1-.5s.1-.3.1-.5l.9-3c0-.1.1-.1.1-.2.1 0 .1-.1.2-.1h.6c.1 0 .2 0 .2.1.1 0 .1.1.1.2l.9 3.1c0 .2.1.3.1.5 0 .1.1.3.1.4 0-.2.1-.3.1-.5s.1-.3.1-.5l.8-3c0-.1.1-.1.1-.2.1 0 .2-.1.2-.1h1l-1.8 5.6h-1.1c-.1 0-.2-.1-.3-.2l-1-3.3c0-.1-.1-.2-.1-.3s0-.2-.1-.3c0 .1 0 .2-.1.3 0 .1-.1.2-.1.3l-1 3.3c-.1.2-.2.2-.3.2h-1l-1.3-5.6"/><path d="m123.8 223.5v8.2h-1.4v-8.2h1.4"/><path d="m134.8 223.7v1.2h-3.5v2.2h2.8v1.1h-2.8v2.2h3.5v1.2h-5v-8l5 .1"/><path d="m137.1 231.6v-5.6h.8c.1 0 .2 0 .3.1.1.1.1.1.1.3l.1.7c.2-.3.4-.6.7-.8.3-.2.6-.3.9-.3s.5.1.7.2l-.2 1c0 .1 0 .1-.1.1h-.1c-.1 0-.1 0-.2 0-.1 0-.2 0-.4 0-.3 0-.5.1-.7.2-.2.2-.4.4-.5.7v3.5h-1.4v-.1"/><path d="m142.7 231.6v-5.6h.8c.1 0 .2 0 .3.1s.1.1.1.3l.1.7c.2-.3.4-.6.7-.8.3-.2.6-.3.9-.3s.5.1.7.2l-.2 1c0 .1 0 .1-.1.1h-.1c-.1 0-.1 0-.2 0-.1 0-.2 0-.4 0-.3 0-.5.1-.7.2-.2.2-.4.4-.5.7v3.5h-1.4v-.1"/><path d="m150.7 225.9c.4 0 .8.1 1.1.2.3.1.6.3.9.6.2.2.4.6.6.9s.2.8.2 1.2-.1.9-.2 1.2-.3.7-.6.9c-.2.3-.5.4-.9.6-.3.1-.7.2-1.1.2-.4 0-.8-.1-1.1-.2-.3-.1-.6-.3-.9-.6-.2-.3-.4-.6-.6-.9s-.2-.8-.2-1.2.1-.8.2-1.2.3-.7.6-.9c.2-.2.5-.4.9-.6.3-.1.6-.2 1.1-.2m0 4.8c.5 0 .8-.2 1-.5.2-.3.3-.8.3-1.4 0-.6-.1-1.1-.3-1.4-.2-.3-.6-.5-1-.5-.5 0-.8.2-1.1.5-.2.3-.3.8-.3 1.4 0 .6.1 1.1.3 1.4s.6.5 1.1.5"/><path d="m155.6 231.6v-5.6h.8c.1 0 .2 0 .3.1.1.1.1.1.1.3l.1.7c.2-.3.4-.6.7-.8.3-.2.6-.3.9-.3s.5.1.7.2l-.2 1c0 .1 0 .1-.1.1h-.1c-.1 0-.1 0-.2 0-.1 0-.2 0-.4 0-.3 0-.5.1-.7.2-.2.2-.4.4-.5.7v3.5h-1.4v-.1"/></g><g fill="#12a9e2"><path d="m434.4 99.7v.7h-3.1v2.1h2.5v.7h-2.5v2.2h3.1v.7h-4v-6.4h4"/><path d="m437.1 103.8l-1.5-2.2h.8c.1 0 .1 0 .1 0l.1.1 1.1 1.7c0-.1.1-.2.1-.3l1-1.4.1-.1h.1.7l-1.5 2.2 1.6 2.4h-.8c-.1 0-.1 0-.2-.1l-.1-.1-1.1-1.8c0 .1-.1.2-.1.2l-1.1 1.6-.1.1-.1.1h-.7l1.6-2.4"/><path d="m441 107.7v-6.1h.5c.1 0 .2.1.2.2l.1.5c.2-.2.4-.4.7-.6.2-.1.5-.2.9-.2.3 0 .5.1.7.2s.4.2.5.4c.2.2.3.4.3.7s.1.6.1 1c0 .3 0 .6-.1.9-.1.3-.2.5-.4.8s-.4.4-.6.5-.5.2-.8.2-.5 0-.7-.1-.4-.2-.5-.4v2h-.9m2-5.5c-.3 0-.5.1-.7.2s-.4.3-.5.5v2.2c.1.2.3.3.5.4.2.1.4.1.6.1.4 0 .7-.2 1-.5.2-.3.3-.7.3-1.3 0-.3 0-.6-.1-.8s-.1-.4-.2-.5-.2-.2-.4-.3c-.1 0-.3 0-.5 0"/><path d="m448.2 101.5c.3 0 .6.1.9.2.3.1.5.3.7.5s.3.5.4.7c.1.3.2.6.2 1s0 .7-.2 1-.2.5-.4.7c-.2.2-.4.4-.7.5-.3.1-.6.2-.9.2s-.6-.1-.9-.2c-.3-.1-.5-.3-.7-.5s-.3-.5-.4-.7c-.1-.3-.2-.6-.2-1s.1-.7.2-1 .2-.5.4-.7c.2-.2.4-.4.7-.5.3-.1.6-.2.9-.2m0 4.1c.5 0 .8-.2 1-.5s.3-.7.3-1.3c0-.5-.1-1-.3-1.3-.2-.3-.6-.5-1-.5-.2 0-.4 0-.6.1s-.3.2-.4.3-.2.3-.3.5c-.1.2-.1.5-.1.7s0 .5.1.7.1.4.3.5.3.3.4.3c.2.5.4.5.6.5"/><path d="m451.9 106.2v-4.6h.5c.1 0 .1 0 .2 0 0 0 .1.1.1.2l.1.7c.2-.3.3-.6.6-.7.2-.2.5-.3.8-.3.1 0 .2 0 .3 0s.2.1.3.1l-.1.6c0 .1-.1.1-.1.1s-.1 0-.2 0-.2 0-.4 0c-.3 0-.5.1-.7.2-.2.2-.3.4-.5.7v2.9l-.9.1"/><path d="m457.3 106.2c-.4 0-.6-.1-.8-.3s-.3-.5-.3-.9v-2.8h-.5-.1v-.1-.3l.7-.1.2-1.4c0 0 0-.1.1-.1h.1.4v1.6h1.3v.6h-1.3v2.7c0 .2 0 .3.1.4.1.1.2.1.4.1.1 0 .2 0 .2 0s.1 0 .2-.1l.1-.1h.1c0 0 .1 0 .1.1l.2.4c-.1.1-.3.2-.5.3-.3 0-.5 0-.7 0"/></g><g fill="#d3d4d4"><path d="m427.2 144.2l-2.3-3.3h1.6c.1 0 .2 0 .3.1.1 0 .1.1.2.2l1.4 2.3c0-.1.1-.2.1-.2l.1-.2 1.2-1.8c.1-.1.1-.1.2-.2.1 0 .1-.1.2-.1h1.5l-2.3 3.2 2.4 3.6h-1.6c-.1 0-.2 0-.3-.1-.1-.1-.1-.1-.2-.2l-1.4-2.4c0 .2-.1.3-.2.4l-1.3 2c0 .1-.1.1-.2.2-.1.1-.2.1-.3.1h-1.5l2.4-3.6"/><path d="m427.2 227.3l-2.3-3.3h1.6c.1 0 .2 0 .3 0 .1 0 .1.1.2.2l1.4 2.3c0-.1.1-.2.1-.2 0-.1.1-.2.1-.2l1.2-1.8c.1-.1.1-.1.2-.2s.1-.1.2-.1h1.5l-2.3 3.2 2.4 3.6h-1.6c-.1 0-.2 0-.3-.1-.1-.1-.1-.1-.2-.2l-1.4-2.4c0 .2-.1.3-.2.4l-1.3 2c0 .1-.1.1-.2.2-.1.1-.2.1-.3.1h-1.5l2.4-3.5"/></g><path fill="#fff" d="m52.6 299.1h386.6v58.7h-386.6z"/><g fill="#d3d4d4"><path d="m93.2 336.8h49v1.2h-49z"/><path d="m92.7 327.2h279.8v1.2h-279.8z"/><path d="m92.7 331.7h279.8v1.2h-279.8z"/></g><path fill="#dcdcdc" d="m52.6 299.1h26.2v26.2h-26.2z"/><g fill="#707a7c"><path d="m98.4 311.7c.1 0 .2 0 .2.1l.6.6c-.3.4-.7.7-1.2.9-.5.2-1 .3-1.7.3-.6 0-1.1-.1-1.6-.3-.5-.2-.9-.5-1.2-.8-.3-.3-.6-.8-.8-1.3-.2-.5-.3-1-.3-1.6s.1-1.1.3-1.6c.2-.5.5-.9.8-1.3.3-.4.8-.6 1.3-.8.5-.2 1.1-.3 1.7-.3.6 0 1.1.1 1.5.3.4.2.8.4 1.1.8l-.5.7-.1.1c0 0-.1.1-.2.1s-.2 0-.3-.1c-.1-.1-.2-.1-.3-.2s-.3-.1-.5-.2c-.2-.1-.5-.1-.8-.1-.4 0-.7.1-1 .2-.3.1-.6.3-.8.6-.2.2-.4.5-.5.9-.1.3-.2.7-.2 1.2 0 .4.1.8.2 1.2.1.3.3.6.5.9.2.2.5.4.8.5.3.1.6.2.9.2.2 0 .4 0 .5 0 .2 0 .3-.1.5-.1.1 0 .3-.1.4-.2s.2-.2.4-.3l.1-.1c.2-.2.2-.3.2-.3"/><path d="m103.8 307.9c.4 0 .8.1 1.1.2.3.1.6.3.9.6.2.2.4.6.6.9.2.3.2.8.2 1.2 0 .4-.1.9-.2 1.2s-.3.7-.6.9c-.2.3-.5.4-.9.6-.3.1-.7.2-1.1.2s-.8-.1-1.1-.2c-.3-.1-.6-.3-.9-.6-.2-.3-.4-.6-.6-.9-.2-.3-.2-.8-.2-1.2 0-.4.1-.8.2-1.2s.3-.7.6-.9c.2-.2.5-.4.9-.6.3-.1.7-.2 1.1-.2m0 4.8c.5 0 .8-.2 1-.5s.3-.8.3-1.4-.1-1.1-.3-1.4-.6-.5-1-.5c-.5 0-.8.2-1.1.5-.2.3-.3.8-.3 1.4s.1 1.1.3 1.4c.3.3.6.5 1.1.5"/><path d="m108.7 313.6v-5.6h.8c.2 0 .3.1.3.2l.1.4c.1-.1.2-.2.3-.3.1-.1.2-.2.3-.2.1-.1.3-.1.4-.2.1 0 .3-.1.5-.1.4 0 .6.1.9.3.2.2.4.4.5.8.1-.2.2-.3.3-.5.1-.1.3-.2.4-.3.2-.1.3-.1.5-.2.2-.1.4-.1.5-.1.3 0 .6 0 .8.1s.4.2.6.4c.2.2.3.4.4.7.1.3.1.6.1.9v3.6h-1.1v-3.6c0-.4-.1-.6-.2-.8-.2-.2-.4-.3-.7-.3-.1 0-.3 0-.4.1-.1 0-.2.1-.3.2-.1.1-.2.2-.2.3-.1.1-.1.3-.1.5v3.6h-1.4v-3.6c0-.4-.1-.7-.2-.8s-.4-.3-.7-.3c-.2 0-.4 0-.5.1-.2.1-.3.2-.5.4v4.1h-1.4v.2"/><path d="m119.1 315.5v-7.5h.8c.1 0 .2 0 .2.1s.1.1.1.2l.1.5c.2-.3.5-.5.8-.6.3-.2.6-.2 1-.2.3 0 .6.1.8.2s.5.3.7.6c.2.2.3.5.4.9.1.4.2.8.2 1.2 0 .4-.1.8-.2 1.2-.1.4-.3.7-.5.9-.2.2-.5.5-.8.6-.3.1-.6.2-1 .2-.3 0-.6 0-.8-.1-.2-.1-.4-.2-.6-.4v2.3l-1.2-.1m2.6-6.6c-.3 0-.5.1-.7.2-.2.1-.4.3-.6.5v2.5c.2.2.3.3.5.4s.4.1.6.1c.2 0 .4 0 .6-.1.2-.1.3-.2.4-.4.1-.2.2-.4.3-.6s.1-.5.1-.9c0-.3 0-.6-.1-.8-.1-.2-.1-.4-.2-.6-.1-.1-.2-.2-.4-.3-.1.1-.3 0-.5 0"/><path d="m128.7 307.9c.4 0 .7.1 1 .2.3.1.6.3.8.5s.4.5.5.8c.1.3.2.7.2 1.1 0 .1 0 .2 0 .3 0 .1 0 .1 0 .2l-.1.1c0 0-.1 0-.2 0h-3.5c0 .6.2 1 .5 1.3.3.3.6.4 1.1.4.2 0 .4 0 .6-.1s.3-.1.4-.2c.1-.1.2-.1.3-.2.1-.1.2-.1.3-.1s.1 0 .1 0l.1.1.4.5c-.2.2-.3.3-.5.4-.2.1-.4.2-.6.3-.2.1-.4.1-.6.2s-.4 0-.6 0c-.4 0-.8-.1-1.1-.2s-.6-.3-.9-.6c-.2-.3-.4-.6-.6-.9-.1-.4-.2-.8-.2-1.3 0-.4.1-.7.2-1.1.1-.3.3-.6.5-.9s.5-.5.9-.6c.2-.1.6-.2 1-.2m.1 1c-.4 0-.7.1-.9.3-.2.2-.4.5-.4 1h2.6c0-.2 0-.3-.1-.5 0-.2-.1-.3-.2-.4s-.2-.2-.4-.3c-.2-.1-.4-.1-.6-.1"/><path d="m135.2 313.7c-.5 0-.9-.1-1.1-.4-.3-.3-.4-.7-.4-1.1v-3.2h-.6c-.1 0-.1 0-.2-.1-.1 0-.1-.1-.1-.2v-.5l.9-.1.3-1.5c0-.1 0-.1.1-.2.1 0 .1-.1.2-.1h.7v1.8h1.5v1h-1.5v3.1c0 .2 0 .3.1.4s.2.1.4.1c.1 0 .2 0 .2 0s.1 0 .1-.1.1 0 .1-.1h.1.1l.1.1.4.7c-.2.2-.4.3-.7.4-.3.1-.4 0-.7 0"/><path d="m140.4 306.3c0 .1 0 .2-.1.3s-.1.2-.2.3c-.1.1-.2.1-.3.2-.1 0-.2.1-.3.1-.1 0-.2 0-.3-.1-.1 0-.2-.1-.3-.2-.1-.1-.1-.2-.2-.3-.1-.1-.1-.2-.1-.3 0-.1 0-.2.1-.3.1-.1.1-.2.2-.3.1-.1.2-.1.3-.2.1 0 .2-.1.3-.1.1 0 .2 0 .3.1.1 0 .2.1.3.2.1.1.1.2.2.3s.1.2.1.3m-.2 1.7v5.6h-1.4v-5.6h1.4"/><path d="m144.7 313.7c-.5 0-.9-.1-1.1-.4-.3-.3-.4-.7-.4-1.1v-3.2h-.6c-.1 0-.1 0-.2-.1-.1 0-.1-.1-.1-.2v-.5l.9-.1.3-1.5c0-.1 0-.1.1-.2.1 0 .1-.1.2-.1h.7v1.8h1.5v1h-1.5v3.1c0 .2 0 .3.1.4s.2.1.4.1c.1 0 .2 0 .2 0s.1 0 .1-.1.1 0 .1-.1h.1.1l.1.1.4.7c-.2.2-.4.3-.7.4-.3.1-.4 0-.7 0"/><path d="m150.6 307.9c.4 0 .8.1 1.1.2.3.1.6.3.9.6.2.2.4.6.6.9s.2.8.2 1.2c0 .4-.1.9-.2 1.2s-.3.7-.6.9c-.2.3-.5.4-.9.6-.3.1-.7.2-1.1.2-.4 0-.8-.1-1.1-.2s-.6-.3-.9-.6c-.2-.3-.4-.6-.6-.9s-.2-.8-.2-1.2c0-.4.1-.8.2-1.2.1-.4.3-.7.6-.9.2-.2.5-.4.9-.6.3-.1.7-.2 1.1-.2m0 4.8c.5 0 .8-.2 1-.5s.3-.8.3-1.4-.1-1.1-.3-1.4-.6-.5-1-.5c-.5 0-.8.2-1.1.5-.2.3-.3.8-.3 1.4s.1 1.1.3 1.4c.3.3.6.5 1.1.5"/><path d="m155.5 313.6v-5.6h.8c.1 0 .2 0 .3.1.1.1.1.1.1.3l.1.7c.2-.3.4-.6.7-.8s.6-.3.9-.3c.3 0 .5.1.7.2l-.2 1c0 .1 0 .1-.1.1h-.1c-.1 0-.1 0-.2 0-.1 0-.2 0-.4 0-.3 0-.5.1-.7.2-.2.2-.4.4-.5.7v3.5l-1.4-.1"/><path d="m168.7 307.1c0 .1-.1.1-.1.2-.1 0-.1 0-.2 0s-.2 0-.2-.1c-.1-.1-.2-.1-.3-.2s-.3-.1-.4-.2c-.2-.1-.4-.1-.6-.1s-.4 0-.5.1-.3.1-.4.2c-.1.1-.2.2-.2.3-.1.1-.1.3-.1.4 0 .2.1.3.2.5.1.1.2.2.4.3.2.1.4.2.6.2.2.1.4.1.7.2.2.1.5.2.7.3s.4.2.6.4c.2.2.3.4.4.6s.2.5.2.8c0 .4-.1.7-.2 1s-.3.6-.5.8c-.2.2-.5.4-.9.5-.3.1-.7.2-1.2.2-.3 0-.5 0-.7-.1-.2 0-.5-.1-.7-.2-.2-.1-.4-.2-.6-.3-.2-.1-.4-.3-.5-.4l.4-.7c0-.1.1-.1.1-.1.1 0 .1-.1.2-.1s.2 0 .3.1c.1.1.2.2.4.3.1.1.3.2.5.2.2 0 .4.1.7.1.4 0 .7-.1 1-.3.2-.2.3-.5.3-.9 0-.2-.1-.4-.2-.5-.1-.1-.2-.2-.4-.3-.2-.1-.4-.2-.6-.2-.2 0-.4-.1-.7-.2-.2-.1-.5-.2-.7-.3-.2-.1-.4-.2-.6-.4-.2-.2-.3-.4-.4-.6-.1-.2-.2-.6-.2-.9s.1-.6.2-.8c.1-.3.3-.5.5-.7.2-.2.5-.4.8-.5.3-.1.7-.2 1.1-.2.5 0 .9.1 1.3.2s.7.4 1 .6l-.5.8"/><path d="m172.6 308v3.6c0 .3.1.6.2.8.2.2.4.3.7.3.2 0 .5-.1.7-.2s.4-.2.6-.4v-4.1h1.4v5.6h-.9c-.2 0-.3-.1-.3-.2l-.1-.5c-.1.1-.2.2-.4.3-.1.1-.3.2-.4.2-.1.1-.3.1-.5.2-.2 0-.3.1-.5.1-.3 0-.6-.1-.8-.2-.2-.1-.4-.3-.6-.4-.2-.2-.3-.4-.4-.7-.1-.3-.1-.6-.1-.9v-3.6l1.4.1"/><path d="m180.7 307.9c.2 0 .5 0 .7.1.2 0 .4.1.6.2h1.6v.5c0 .1 0 .2-.1.2s-.1.1-.2.1l-.5.1c0 .1.1.2.1.3 0 .1 0 .2 0 .3 0 .3-.1.5-.2.8-.1.2-.3.4-.5.6-.2.2-.4.3-.7.4-.3.1-.6.1-.9.1-.2 0-.4 0-.6-.1-.2.1-.3.2-.3.4 0 .1.1.2.2.3.1.1.2.1.4.1.2 0 .4 0 .6 0 .2 0 .4 0 .7 0 .2 0 .4 0 .7.1.2 0 .4.1.6.2s.3.2.4.4c.1.2.2.4.2.7 0 .2-.1.5-.2.7-.1.2-.3.4-.5.6-.2.2-.5.3-.9.4-.3.1-.7.2-1.2.2-.4 0-.8 0-1.1-.1-.3-.1-.6-.2-.8-.3-.2-.1-.4-.3-.5-.5-.1-.2-.2-.4-.2-.6 0-.3.1-.5.2-.7.1-.2.4-.3.7-.4-.1-.1-.3-.2-.3-.3-.1-.1-.1-.3-.1-.5 0-.1 0-.2 0-.3s.1-.2.1-.3.1-.2.2-.2c.1 0 .2-.1.3-.2-.3-.2-.5-.4-.7-.6-.2-.2-.2-.6-.2-.9s.1-.5.2-.8c.1-.2.3-.4.5-.6.2-.2.4-.3.7-.4.3 0 .6 0 1 0m1.5 6c0-.1 0-.2-.1-.3-.1-.1-.2-.1-.3-.2-.1 0-.2-.1-.4-.1-.2 0-.3 0-.5 0-.2 0-.3 0-.5 0-.2 0-.4 0-.5-.1-.2.1-.3.2-.4.3s-.1.2-.1.4c0 .1 0 .2.1.3 0 .1.1.2.2.2.1.1.2.1.4.1.2 0 .4.1.6.1.3 0 .5 0 .7-.1.2 0 .3-.1.5-.2.1-.1.2-.2.3-.2-.1 0 0-.1 0-.2m-1.5-3.2c.2 0 .3 0 .4-.1.1 0 .2-.1.3-.2s.1-.2.2-.3.1-.2.1-.4c0-.3-.1-.5-.2-.7-.2-.2-.4-.2-.8-.2-.3 0-.6.1-.8.2-.2.2-.2.4-.2.7 0 .1 0 .3.1.4 0 .1.1.2.2.3s.2.1.3.2c.1 0 .2.1.4.1"/><path d="m187.5 307.9c.2 0 .5 0 .7.1.2 0 .4.1.6.2h1.5v.5c0 .1 0 .2-.1.2-.1 0-.1.1-.2.1l-.5.1c0 .1.1.2.1.3 0 .1 0 .2 0 .3 0 .3-.1.5-.2.8-.1.2-.3.4-.5.6s-.4.3-.7.4-.6.1-.9.1c-.2 0-.4 0-.6-.1-.2.1-.3.2-.3.4 0 .1.1.2.2.3.1.1.2.1.4.1.2 0 .4 0 .6 0s.4 0 .7 0c.2 0 .4 0 .7.1.2 0 .4.1.6.2.2.1.3.2.4.4.1.2.2.4.2.7 0 .2-.1.5-.2.7s-.3.4-.5.6-.5.3-.9.4c-.3.1-.7.2-1.2.2-.4 0-.8 0-1.1-.1s-.6-.2-.8-.3-.4-.3-.5-.5-.2-.4-.2-.6c0-.3.1-.5.2-.7s.4-.3.7-.4c-.1-.1-.3-.2-.3-.3-.1-.1-.1-.3-.1-.5 0-.1 0-.2 0-.3s.1-.2.1-.3.1-.2.2-.2.2-.1.3-.2c-.3-.2-.5-.4-.7-.6s-.2-.6-.2-.9.1-.5.2-.8c.1-.2.3-.4.5-.6s.4-.3.7-.4c.4 0 .7 0 1.1 0m1.4 6c0-.1 0-.2-.1-.3-.1-.1-.2-.1-.3-.2-.1 0-.2-.1-.4-.1-.2 0-.3 0-.5 0-.2 0-.3 0-.5 0-.2 0-.4 0-.5-.1-.2.1-.3.2-.4.3s-.1.2-.1.4c0 .1 0 .2.1.3 0 .1.1.2.2.2.1.1.2.1.4.1.2 0 .4.1.6.1.3 0 .5 0 .7-.1.2 0 .3-.1.5-.2.1-.1.2-.2.3-.2 0 0 0-.1 0-.2m-1.4-3.2c.2 0 .3 0 .4-.1.1 0 .2-.1.3-.2s.1-.2.2-.3c.1-.1.1-.2.1-.4 0-.3-.1-.5-.2-.7-.2-.2-.4-.2-.8-.2-.3 0-.6.1-.8.2-.2.2-.2.4-.2.7 0 .1 0 .3.1.4 0 .1.1.2.2.3.1.1.2.1.3.2 0 0 .2.1.4.1"/><path d="m194.6 307.9c.4 0 .7.1 1 .2s.6.3.8.5c.2.2.4.5.5.8s.2.7.2 1.1c0 .1 0 .2 0 .3 0 .1 0 .1 0 .2l-.1.1c0 0-.1 0-.2 0h-3.5c0 .6.2 1 .5 1.3s.6.4 1.1.4c.2 0 .4 0 .6-.1s.3-.1.4-.2c.1-.1.2-.1.3-.2s.2-.1.3-.1c.1 0 .1 0 .1 0l.1.1.4.5c-.2.2-.3.3-.5.4s-.4.2-.6.3c-.2.1-.4.1-.6.2s-.4 0-.6 0c-.4 0-.8-.1-1.1-.2s-.6-.3-.9-.6c-.2-.3-.4-.6-.6-.9-.1-.4-.2-.8-.2-1.3 0-.4.1-.7.2-1.1.1-.3.3-.6.5-.9s.5-.5.9-.6c.2-.1.6-.2 1-.2m.1 1c-.4 0-.7.1-.9.3-.2.2-.4.5-.4 1h2.6c0-.2 0-.3-.1-.5 0-.2-.1-.3-.2-.4-.1-.1-.2-.2-.4-.3s-.4-.1-.6-.1"/><path d="m202.6 309.1c0 .1-.1.1 0 0-.1.1-.2.1-.3.1-.1 0-.1 0-.2-.1-.1 0-.2-.1-.3-.1-.1 0-.2-.1-.3-.1s-.3-.1-.4-.1c-.3 0-.5.1-.6.2-.2.1-.2.3-.2.4s0 .2.1.3c.1.1.2.2.3.2.1.1.3.1.4.2.2 0 .3.1.5.2.2.1.3.1.5.2.2.1.3.2.4.3.1.1.2.3.3.4.1.2.1.4.1.6 0 .3 0 .5-.1.8-.1.2-.2.4-.4.6-.2.2-.4.3-.7.4-.3.1-.6.1-1 .1-.2 0-.4 0-.6-.1-.2 0-.4-.1-.5-.1-.2-.1-.3-.1-.5-.2s-.3-.2-.4-.3l.3-.5c0-.1.1-.1.1-.1s.1 0 .2 0 .2 0 .2.1c.1 0 .2.1.3.2.1.1.2.1.3.2.1 0 .3.1.5.1s.3 0 .4-.1c.1 0 .2-.1.3-.2.1-.1.1-.1.2-.2.1-.1.1-.2.1-.3 0-.1 0-.2-.1-.3-.1-.1-.2-.2-.3-.2-.1-.1-.3-.1-.4-.2-.2 0-.3-.1-.5-.2s-.3-.1-.5-.2-.3-.2-.4-.3c-.1-.1-.2-.3-.3-.4-.1-.2-.1-.4-.1-.6s0-.5.1-.7c.1-.2.2-.4.4-.5.2-.2.4-.3.7-.4s.6-.1.9-.1c.4 0 .7.1 1.1.2s.6.3.8.5l-.4.3"/><path d="m207 313.7c-.5 0-.9-.1-1.1-.4-.3-.3-.4-.7-.4-1.1v-3.2h-.6c-.1 0-.1 0-.2-.1-.1 0-.1-.1-.1-.2v-.5l.9-.1.3-1.5c0-.1 0-.1.1-.2.1 0 .1-.1.2-.1h.7v1.8h1.5v1h-1.5v3.1c0 .2 0 .3.1.4.1.1.2.1.4.1.1 0 .2 0 .2 0s.1 0 .1-.1.1 0 .1-.1h.1.1l.1.1.4.7c-.2.2-.4.3-.7.4s-.4 0-.7 0"/><path d="m212.2 306.3c0 .1 0 .2-.1.3s-.1.2-.2.3c-.1.1-.2.1-.3.2-.1 0-.2.1-.3.1s-.2 0-.3-.1c-.1 0-.2-.1-.3-.2s-.1-.2-.2-.3-.1-.2-.1-.3c0-.1 0-.2.1-.3s.1-.2.2-.3c.1-.1.2-.1.3-.2.1 0 .2-.1.3-.1s.2 0 .3.1c.1 0 .2.1.3.2s.1.2.2.3.1.2.1.3m-.2 1.7v5.6h-1.4v-5.6h1.4"/><path d="m217 307.9c.4 0 .8.1 1.1.2.3.1.6.3.9.6.2.2.4.6.6.9.2.3.2.8.2 1.2 0 .4-.1.9-.2 1.2-.1.3-.3.7-.6.9-.2.3-.5.4-.9.6-.3.1-.7.2-1.1.2s-.8-.1-1.1-.2c-.3-.1-.6-.3-.9-.6-.2-.3-.4-.6-.6-.9-.2-.3-.2-.8-.2-1.2 0-.4.1-.8.2-1.2.1-.4.3-.7.6-.9.2-.2.5-.4.9-.6.3-.1.7-.2 1.1-.2m0 4.8c.5 0 .8-.2 1-.5s.3-.8.3-1.4-.1-1.1-.3-1.4-.6-.5-1-.5c-.5 0-.8.2-1.1.5-.2.3-.3.8-.3 1.4s.1 1.1.3 1.4c.3.3.7.5 1.1.5"/><path d="m222 313.6v-5.6h.8c.2 0 .3.1.3.2l.1.4c.1-.1.2-.2.4-.3.1-.1.3-.2.4-.2.1-.1.3-.1.5-.2.2 0 .3-.1.5-.1.3 0 .6.1.8.2.2.1.4.2.6.4s.3.4.4.7c.1.3.1.6.1.9v3.6h-1.4v-3.6c0-.3-.1-.6-.2-.8-.2-.2-.4-.3-.7-.3-.2 0-.5.1-.7.2-.2.1-.4.3-.6.4v4.1h-1.3"/><path d="m232.7 309.1c0 .1-.1.1-.1.1s-.1 0-.2 0c-.1 0-.1 0-.2-.1-.1 0-.2-.1-.3-.1s-.2-.1-.3-.1-.3-.1-.4-.1c-.3 0-.5.1-.6.2-.2.1-.2.3-.2.4s0 .2.1.3c.1.1.2.2.3.2.1.1.3.1.4.2.2 0 .3.1.5.2s.3.1.5.2.3.2.4.3c.1.1.2.3.3.4.1.2.1.4.1.6 0 .3 0 .5-.1.8-.1.2-.2.4-.4.6s-.4.3-.7.4-.6.1-1 .1c-.2 0-.4 0-.6-.1-.2 0-.4-.1-.5-.1-.2-.1-.3-.1-.5-.2s-.3-.2-.4-.3l.3-.5c0-.1.1-.1.1-.1s.1 0 .2 0 .2 0 .2.1c.1 0 .2.1.3.2s.2.1.3.2c.1 0 .3.1.5.1s.3 0 .4-.1c.1 0 .2-.1.3-.2s.1-.1.2-.2.1-.2.1-.3c0-.1 0-.2-.1-.3-.1-.1-.2-.2-.3-.2-.1-.1-.3-.1-.4-.2-.2 0-.3-.1-.5-.2s-.3-.1-.5-.2-.3-.2-.4-.3c-.1-.1-.2-.3-.3-.4-.1-.2-.1-.4-.1-.6s0-.5.1-.7.2-.4.4-.5c.2-.2.4-.3.7-.4s.6-.1.9-.1c.4 0 .7.1 1.1.2s.6.3.8.5l-.4.3"/></g><path d="m428.2 309.3l-2.3-3.3h1.6c.1 0 .2 0 .3 0 .1 0 .1.1.2.2l1.4 2.3c0-.1.1-.2.1-.2 0-.1.1-.2.1-.2l1.2-1.8c.1-.1.1-.1.2-.2s.1-.1.2-.1h1.5l-2.3 3.2 2.4 3.6h-1.6c-.1 0-.2 0-.3-.1-.1-.1-.1-.1-.2-.2l-1.5-2.4c0 .2-.1.3-.2.4l-1.3 2c0 .1-.1.1-.2.2s-.2.1-.3.1h-1.5l2.5-3.5" fill="#d3d4d4"/><g fill="#ce9600"><path d="m64.2 229.1h1.1v3.4h-1.1z"/><path d="m70.7 237.2h-11.8c-.4 0-.7-.2-.8-.4-.2-.3-.2-.6 0-.9l6-11.8c.2-.3.5-.5.8-.5s.6.2.8.5l6 11.8c.2.3.2.7 0 .9-.3.2-.6.4-1 .4m-11.5-1.2h11.2l-5.6-11.1-5.6 11.1"/><circle cx="64.8" cy="233.9" r=".7"/></g><g fill="#12a9e2"><path d="m476.8 96.3c0-.6-.4-1-1-1h-7c-.6 0-1 .4-1 1v10c0 .6.4 1 1 1h4c.4 0 .8-.2 1-.4l2.6-2.6c.3-.3.4-.6.4-1v-7m-3 9.2v-1.2h1.2l-1.2 1.2m1.8-1.9c-.1.1-.2.2-.4.2h-2v2c0 .1-.1.3-.1.3-.1.1-.2.1-.3.1h-4v-10h7v7c0 .2-.1.4-.2.4"/><path d="m472.8 101.8v-3h-1v3h-1l1.5 2 1.5-2z"/></g><g fill="#6b6b6b"><path d="m64 315.3l-1.9-1.5 6.3-8.1 1.9 1.4z"/><path d="m63 315.6l-1-.8 3.4-4.3 1 .8z"/><path d="m70.7 306.6l-1.9-1.5.6-.8 2 1.4z"/><path d="m67.2 315.3c-1.6 0-2.8-1.3-2.8-2.8s1.3-2.8 2.8-2.8 2.8 1.3 2.8 2.8-1.2 2.8-2.8 2.8m0-3.6c-.4 0-.8.4-.8.8s.4.8.8.8.8-.4.8-.8-.3-.8-.8-.8"/><path d="m69.2 318.2l-3.3.2 1.2-4.8h2.1z"/><path d="m60.7 318.1h10.1v1.8h-10.1z"/><path d="m60.7 316.7h6.8v.7h-6.8z"/></g><g fill="#fff"><path d="m48.9 58.6l-2.8 6.8h-.8l-2.8-6.8.1 3.5v2.5l1 .2v.7h-3.1v-.7l1-.2v-6.7l-1-.2v-.7h1 1.5l2.7 6.9 2.7-6.9h2.4v.7l-1 .2v6.7l1 .2v.7h-3.1v-.7l1-.2v-2.6l.2-3.4"/><path d="m51.8 62.2c0-.9.3-1.7.8-2.3s1.2-.9 2.1-.9c.9 0 1.6.3 2.1.9s.8 1.4.8 2.3v.1c0 .9-.3 1.7-.8 2.3s-1.2.9-2.1.9c-.9 0-1.6-.3-2.1-.9s-.8-1.4-.8-2.3v-.1m1.2.1c0 .7.1 1.2.4 1.7s.7.7 1.3.7c.5 0 1-.2 1.2-.7s.4-1 .4-1.7v-.1c0-.7-.1-1.2-.4-1.7s-.7-.7-1.3-.7-1 .2-1.3.7-.4 1-.4 1.7v.1z"/><path d="m60 64.5h2.6l.1-1h1v1.9h-5v-.8l3.3-4.6h-2.3l-.1 1h-1v-1.9h4.8v.8l-3.4 4.6"/><path d="m71.6 56.9c.9 0 1.6.2 2.1.7s.8 1.1.8 1.9c0 .8-.3 1.4-.8 1.9s-1.2.6-2.1.6h-1.8v2.5l1 .2v.7h-3.1v-.7l1-.2v-6.7l-1-.2v-.7h1 2.9m-1.8 4.2h1.8c.6 0 1-.2 1.3-.5s.4-.7.4-1.2-.1-.9-.4-1.2-.7-.5-1.3-.5h-1.8v3.4"/><path d="m75.4 59.8v-.7h2l.1.9c.2-.3.4-.6.7-.8s.6-.3.9-.3c.1 0 .2 0 .3 0s.2 0 .2 0l-.2 1.1h-.7c-.3 0-.6.1-.8.2s-.4.3-.5.6v3.6l1 .2v.7h-3.1v-.7l1-.2v-4.4l-.9-.2"/><path d="m80.3 62.2c0-.9.3-1.7.8-2.3s1.2-.9 2.1-.9c.9 0 1.6.3 2.1.9s.8 1.4.8 2.3v.1c0 .9-.3 1.7-.8 2.3s-1.2.9-2.1.9c-.9 0-1.6-.3-2.1-.9s-.8-1.4-.8-2.3v-.1m1.1.1c0 .7.1 1.2.4 1.7s.7.7 1.3.7c.5 0 1-.2 1.2-.7s.4-1 .4-1.7v-.1c0-.7-.1-1.2-.4-1.7s-.7-.7-1.3-.7-1 .2-1.3.7-.4 1-.4 1.7v.1z"/><path d="m96.5 59.5h-.8l-.2-1.2c-.2-.2-.4-.3-.7-.5s-.6-.2-1-.2c-.9 0-1.6.3-2 1s-.8 1.5-.8 2.5v.1c0 1 .2 1.8.7 2.5s1.1 1 1.9 1c.4 0 .7-.1 1.1-.2s.6-.3.7-.4l.2-1.2h.8v1.5c-.2.3-.6.6-1.1.8s-1.1.4-1.7.4c-1.1 0-2-.4-2.7-1.2s-1.1-1.9-1.1-3.1v-.1c0-1.2.3-2.3 1-3.1s1.6-1.2 2.7-1.2c.6 0 1.2.1 1.7.4s.9.5 1.1.8v1.4z"/><path d="m101.9 65.4c0-.2-.1-.3-.1-.5s0-.3 0-.4c-.2.3-.5.5-.8.7s-.7.3-1.1.3c-.7 0-1.2-.2-1.5-.5s-.5-.8-.5-1.4c0-.6.2-1.1.7-1.4s1.2-.5 2-.5h1.2v-.7c0-.4-.1-.7-.4-.9s-.6-.3-1-.3c-.3 0-.5 0-.8.1s-.4.2-.5.3l-.1.7h-.9v-1.2c.3-.2.6-.4 1-.6s.9-.2 1.3-.2c.7 0 1.3.2 1.7.6s.7.9.7 1.6v3.1c0 .1 0 .2 0 .2s0 .2 0 .2l.5.1v.7h-1.4m-1.9-.8c.4 0 .7-.1 1-.3s.5-.4.7-.7v-1h-1.2c-.5 0-.8.1-1.1.3s-.4.5-.4.8c0 .3.1.5.3.6s.4.3.7.3"/><path d="m104.1 64.7l1-.2v-4.5l-1-.2v-.7h2l.1.8c.2-.3.5-.5.8-.7s.7-.2 1.1-.2.8.1 1.1.3.5.5.7.9c.2-.4.5-.6.8-.9s.7-.3 1.1-.3c.6 0 1.2.2 1.5.7s.6 1.1.6 2v2.9l1 .2v.7h-3.1v-.7l1-.2v-2.9c0-.6-.1-1.1-.3-1.3s-.5-.4-1-.4c-.4 0-.7.1-1 .4s-.4.6-.4 1.1v3.1l1 .2v.7h-3.1v-.7l1-.2v-2.9c0-.6-.1-1-.3-1.3s-.5-.4-1-.4c-.4 0-.6.1-.9.2s-.4.3-.5.6v3.8l1 .2v.7h-3.1v-.8z"/><path d="m115.5 67.1l1-.2v-7l-1-.2v-.7h1.9l.1.8c.2-.3.5-.5.8-.7s.7-.2 1.1-.2c.8 0 1.4.3 1.8.9s.7 1.4.7 2.5v.1c0 .9-.2 1.7-.7 2.2s-1 .8-1.8.8c-.4 0-.7-.1-1-.2s-.5-.3-.8-.6v2.2l1 .2v.7h-3.1v-.6m5.2-4.8c0-.7-.1-1.3-.4-1.8s-.7-.7-1.3-.7c-.3 0-.6.1-.8.2s-.4.4-.6.6v3.1c.1.3.3.5.6.6s.5.2.9.2c.5 0 1-.2 1.2-.6s.4-.9.4-1.6"/><path d="m127.1 65.4c0-.2-.1-.3-.1-.5s0-.3 0-.4c-.2.3-.5.5-.8.7s-.7.3-1.1.3c-.7 0-1.2-.2-1.5-.5s-.5-.8-.5-1.4c0-.6.2-1.1.7-1.4s1.2-.5 2-.5h1.2v-.7c0-.4-.1-.7-.4-.9s-.6-.3-1-.3c-.3 0-.5 0-.8.1s-.4.2-.5.3l-.1.7h-.9v-1.2c.3-.2.6-.4 1-.6s.9-.2 1.3-.2c.7 0 1.3.2 1.7.6s.7.9.7 1.6v3.1c0 .1 0 .2 0 .2s0 .2 0 .2l.5.1v.7h-1.4m-1.9-.8c.4 0 .7-.1 1-.3s.5-.4.7-.7v-1h-1.2c-.5 0-.8.1-1.1.3s-.4.5-.4.8c0 .3.1.5.3.6s.4.3.7.3"/><path d="m129.6 64.7l1-.2v-4.5l-1-.2v-.7h2.1v5.4l1 .2v.7h-3.1v-.7m2.1-7.3h-1.2v-1.2h1.2v1.2"/><path d="m133.5 62.3c0-1 .2-1.8.7-2.5s1.1-.9 1.8-.9c.4 0 .7.1 1 .2s.6.4.8.7l.1-.8h1v6.3c0 .8-.2 1.5-.7 1.9s-1.1.7-2 .7c-.3 0-.6 0-1-.1s-.7-.2-.9-.3l.3-.9c.2.1.5.2.8.3s.6.1.9.1c.5 0 .9-.1 1.1-.4s.4-.7.4-1.2v-.6c-.2.3-.5.5-.7.6s-.6.2-1 .2c-.8 0-1.4-.3-1.8-.8s-.7-1.3-.7-2.2v-.3zm1.2.2c0 .6.1 1.1.4 1.5s.7.6 1.2.6c.3 0 .6-.1.9-.2s.4-.4.6-.7v-2.9c-.1-.3-.3-.5-.6-.6s-.5-.2-.9-.2c-.6 0-1 .2-1.2.7s-.4 1.1-.4 1.8"/><path d="m140.1 64.7l1-.2v-4.5l-1-.2v-.7h2l.1.9c.2-.3.5-.6.8-.8s.7-.3 1.1-.3c.7 0 1.2.2 1.6.6s.6 1 .6 1.9v3.1l1 .2v.7h-3.1v-.7l1-.2v-3.1c0-.6-.1-1-.3-1.2s-.6-.4-1-.4c-.3 0-.6.1-.9.2s-.5.4-.6.7v3.7l1 .2v.7h-3.1v-.6z"/><path d="m152.9 61.1h-.9l-.2-.8c-.1-.1-.3-.2-.5-.3s-.5-.1-.7-.1c-.4 0-.7.1-.9.3s-.3.4-.3.7c0 .2.1.4.3.6s.5.3 1.1.4c.8.2 1.4.4 1.8.7s.6.7.6 1.2c0 .6-.2 1-.7 1.4s-1 .5-1.8.5c-.5 0-.9-.1-1.3-.2s-.7-.3-1-.5v-1.4h.9l.2.8c.1.1.3.2.5.3s.5.1.7.1c.4 0 .7-.1 1-.2s.3-.4.3-.7c0-.3-.1-.5-.3-.6s-.6-.3-1.1-.4c-.8-.2-1.3-.4-1.7-.7s-.6-.7-.6-1.2c0-.5.2-1 .7-1.3s1-.5 1.7-.5c.5 0 .9.1 1.3.2s.7.3 1 .5l-.1 1.2"/></g></svg>
