<svg xmlns="http://www.w3.org/2000/svg" viewBox="0 0 205 205" enable-background="new 0 0 205 205"><text transform="translate(-452.91-170.56)" font-family="&apos;RobotoSlab-Regular&apos;" font-size="49" fill="#00eded">Moz Content GTM - Icons for Learn Content Page</text><text transform="translate(-452.91-54.56)"><tspan x="0" y="0" font-family="&apos;Lato-Regular&apos;" font-size="28">Beginner’s Guide to</tspan><tspan x="0" y="33.6" font-family="&apos;Lato-Regular&apos;" font-size="28">Content Marketing</tspan></text><text transform="translate(-14.912-54.56)"><tspan x="0" y="0" font-family="&apos;Lato-Regular&apos;" font-size="28">Content Marketing topics </tspan><tspan x="0" y="33.6" font-family="&apos;Lato-Regular&apos;" font-size="28">on the Moz Blog</tspan></text><text transform="translate(431.09-54.56)"><tspan x="0" y="0" font-family="&apos;Lato-Regular&apos;" font-size="28">Content videos in </tspan><tspan x="0" y="33.6" font-family="&apos;Lato-Regular&apos;" font-size="28">Moz Academy</tspan></text><text transform="translate(-452.91 279.44)"><tspan x="0" y="0" font-family="&apos;Lato-Regular&apos;" font-size="28">21 Tactics to </tspan><tspan x="0" y="33.6" font-family="&apos;Lato-Regular&apos;" font-size="28">Increase Blog Traffic</tspan></text><text transform="translate(-14.912 279.44)"><tspan x="0" y="0" font-family="&apos;Lato-Regular&apos;" font-size="28">How To Do a Content </tspan><tspan x="0" y="33.6" font-family="&apos;Lato-Regular&apos;" font-size="28">Audit - Step-by-Step</tspan></text><text transform="translate(431.09 279.44)"><tspan x="0" y="0" font-family="&apos;Lato-Regular&apos;" font-size="28">3 Steps to Identify Blog </tspan><tspan x="0" y="33.6" font-family="&apos;Lato-Regular&apos;" font-size="28">Topics that are Relevant to Your Audience</tspan></text><text transform="translate(-452.91 622.99)"><tspan x="0" y="0" font-family="&apos;Lato-Regular&apos;" font-size="28">75 Content Starters </tspan><tspan x="0" y="33.6" font-family="&apos;Lato-Regular&apos;" font-size="28">for Any Industry</tspan></text><text transform="translate(-14.912 622.99)"><tspan x="0" y="0" font-family="&apos;Lato-Regular&apos;" font-size="28">Attract Customers to </tspan><tspan x="0" y="33.6" font-family="&apos;Lato-Regular&apos;" font-size="28">Your Community with Content</tspan></text><text transform="translate(431.09 622.99)"><tspan x="0" y="0" font-family="&apos;Lato-Regular&apos;" font-size="28">It's Time to Treat Content </tspan><tspan x="0" y="33.6" font-family="&apos;Lato-Regular&apos;" font-size="28">as Part of the User Experience</tspan></text><path fill="#9f8be2" d="m-7.7-7.7h220.5v220.1h-220.5z"/><path fill="#fefefd" d="m51.4 60.5h104.3v90.9h-104.3z"/><g fill="#7b6bb0"><circle cx="182.7" cy="171.4" r="3.7"/><circle cx="55.5" cy="38" r="3.7"/></g><path d="M158.1,151.1c0,1.7-1.4,3.1-3,3.1H51c-1.7,0-3-1.4-3-3.1V59.7c0-1.7,1.4-3.1,3-3.1h104c1.7,0,3,1.4,3,3.1
		V151.1z" fill="none" stroke="#7c6cb1" stroke-width="4" stroke-miterlimit="10"/><path d="m47.6 58.8v12.1h110.4v-12.1l-6.4-2.7h-99.1l-4.9 2.7m6.9 9c-1.6 0-2.9-1.3-2.9-2.9 0-1.6 1.3-2.9 2.9-2.9s2.9 1.3 2.9 2.9c0 1.6-1.3 2.9-2.9 2.9m8.6 0c-1.6 0-2.9-1.3-2.9-2.9 0-1.6 1.3-2.9 2.9-2.9 1.6 0 2.9 1.3 2.9 2.9 0 1.6-1.3 2.9-2.9 2.9m8.6 0c-1.6 0-2.9-1.3-2.9-2.9 0-1.6 1.3-2.9 2.9-2.9 1.6 0 2.9 1.3 2.9 2.9-.1 1.6-1.3 2.9-2.9 2.9" fill="#7b6bb0"/><g fill="none" stroke="#7b6bb0" stroke-linejoin="round" stroke-linecap="round" stroke-width="5" stroke-miterlimit="10"><path d="m182.7 35.7l5.5-5.1"/><path d="m166.8 157.2l.3.3 6 5.9"/><path d="m161.4 43.7l.6-.8 10.7-15.8"/><path d="m154.6 42.1v-.3l.4-5.3"/><path d="m171.3 56.6l3.3-1.6"/><path d="m167.8 49.5l9.6-8.9"/><path d="m170.2 103.7l7.3.1"/><path d="m18.7 34.4l.9.6 17.4 11.2"/><path d="m37.5 33.3l-.2-.5-4.3-9.1"/><path d="m42.3 43.4l-1.6-3.3"/><path d="m22.3 168.3l-9.3 7.6"/><path d="m40.8 163.8l-.6.7-11.7 15.1"/><path d="m47.6 165.8l-.1.3-.8 5.3"/><path d="m31.8 150.3l-3.4 1.3"/><path d="m34.7 158.2l-6.9 5.6"/><path d="m13.5 100.5l20.2.1"/><path d="m24.5 112.2l9.2-.4"/><path d="m170.2 92.4l20-3"/><path d="m186.4 117.9l4.8.7"/><path d="m170.2 115.5l8.7 1.3 2.3.3"/><path d="m23.7 87.2l10.5 2.4"/></g><g fill="#7e6db4"><path d="m49.1 69.2h2.3v83.4h-2.3z"/><path d="m155.5 69.2h1.6v83.4h-1.6z"/><path d="m50.3 151.5h105.4v2.1h-105.4z"/></g><g fill="#7c6cb1"><path d="m104 80.5h26.1v3.8h-26.1z"/><path d="m75.7 80.5h24.3v3.8h-24.3z"/><path d="m75.7 80.5h3.8v22.3h-3.8z"/><path d="m96.2 80.5h3.8v22.3h-3.8z"/><path d="m75.7 99h24.3v3.8h-24.3z"/><path d="m104 89.7h26.1v3.8h-26.1z"/><path d="m104 99h26.1v3.8h-26.1z"/><path d="m75.8 108.4h54.3v3.8h-54.3z"/><path d="m75.8 117.8h54.3v3.5h-54.3z"/><path d="m75.8 127h54.3v3.8h-54.3z"/><path d="m75.9 136.2h27.9v3.8h-27.9z"/></g><g font-family="&apos;RobotoSlab-Regular&apos;"><text transform="translate(497.69 446.32)" font-size="97.38" fill="#17531d">1</text><text transform="translate(517.37 459.46)" font-size="97.15" fill="#51a842">2</text><text transform="translate(544.57 498.25)" font-size="119.67" fill="#9fe38a">3</text></g></svg>