<svg xmlns="http://www.w3.org/2000/svg" viewBox="0 0 205 205" enable-background="new 0 0 205 205"><text transform="translate(-19.09-502.91)" font-family="&apos;RobotoSlab-Regular&apos;" font-size="49" fill="#00eded">Moz Content GTM - Icons for Learn Content Page</text><text transform="translate(-19.09-386.91)"><tspan x="0" y="0" font-family="&apos;Lato-Regular&apos;" font-size="28">Beginner’s Guide to</tspan><tspan x="0" y="33.6" font-family="&apos;Lato-Regular&apos;" font-size="28">Content Marketing</tspan></text><text transform="translate(418.91-386.91)"><tspan x="0" y="0" font-family="&apos;Lato-Regular&apos;" font-size="28">Content Marketing topics </tspan><tspan x="0" y="33.6" font-family="&apos;Lato-Regular&apos;" font-size="28">on the Moz Blog</tspan></text><text transform="translate(864.91-386.91)"><tspan x="0" y="0" font-family="&apos;Lato-Regular&apos;" font-size="28">Content videos in </tspan><tspan x="0" y="33.6" font-family="&apos;Lato-Regular&apos;" font-size="28">Moz Academy</tspan></text><text transform="translate(-19.09-52.912)"><tspan x="0" y="0" font-family="&apos;Lato-Regular&apos;" font-size="28">21 Tactics to </tspan><tspan x="0" y="33.6" font-family="&apos;Lato-Regular&apos;" font-size="28">Increase Blog Traffic</tspan></text><text transform="translate(418.91-52.912)"><tspan x="0" y="0" font-family="&apos;Lato-Regular&apos;" font-size="28">How To Do a Content </tspan><tspan x="0" y="33.6" font-family="&apos;Lato-Regular&apos;" font-size="28">Audit - Step-by-Step</tspan></text><text transform="translate(864.91-52.912)"><tspan x="0" y="0" font-family="&apos;Lato-Regular&apos;" font-size="28">3 Steps to Identify Blog </tspan><tspan x="0" y="33.6" font-family="&apos;Lato-Regular&apos;" font-size="28">Topics that are Relevant to Your Audience</tspan></text><text transform="translate(-19.09 290.64)"><tspan x="0" y="0" font-family="&apos;Lato-Regular&apos;" font-size="28">75 Content Starters </tspan><tspan x="0" y="33.6" font-family="&apos;Lato-Regular&apos;" font-size="28">for Any Industry</tspan></text><text transform="translate(418.91 290.64)"><tspan x="0" y="0" font-family="&apos;Lato-Regular&apos;" font-size="28">Attract Customers to </tspan><tspan x="0" y="33.6" font-family="&apos;Lato-Regular&apos;" font-size="28">Your Community with Content</tspan></text><text transform="translate(864.91 290.64)"><tspan x="0" y="0" font-family="&apos;Lato-Regular&apos;" font-size="28">It's Time to Treat Content </tspan><tspan x="0" y="33.6" font-family="&apos;Lato-Regular&apos;" font-size="28">as Part of the User Experience</tspan></text><path fill="#5ce7cc" d="m-7.2-7h219.4v219h-219.4z"/><path fill="#fefefd" d="m50.9 67.8h76.4v84.1h-76.4z"/><g fill="none" stroke="#7b6bb0" stroke-linejoin="round" stroke-linecap="round" stroke-width="2" stroke-miterlimit="10"><path d="m50.9 64.7h76.4v87.2h-76.4z"/><path d="m127 77.2h-75.8"/><path d="m127 83.4h-75.8"/><path d="m127 89.7h-75.8"/><path d="m127 96h-75.8"/><path d="m127 102.3h-75.8"/><path d="m127 108.5h-75.8"/><path d="m127 114.8h-75.8"/><path d="m127 121.1h-75.8"/><path d="m127 127.4h-75.8"/><path d="m127 133.7h-75.8"/><path d="m127 139.9h-75.8"/><path d="m127 146.2h-75.8"/></g><path d="m112.1 133.6l1.3-1.3c.2 0 .3 0 .4-.1l1.8-1.8 1.2 1.2 46.2-47.2-3.1-2.8-46.1 46.9 1.2 1.2-1.8 1.8c-.1.1-.2.3-.1.4l-1.3 1.3c-.1.1-.1.1-.1.2 0 0 0 .1.1.1 0 .2.2.2.3.1" fill="#7b6bb0"/><g fill="none" stroke="#7b6bb0" stroke-linejoin="round" stroke-linecap="round" stroke-miterlimit="10"><g stroke-width="2"><path d="m57.8 151.6v-80"/><path d="m56.3 151.6v-80"/></g><path d="m156.9 90.3l-2.9-2.8"/><path d="m150.6 98.6l9.4-9.5"/><path d="m141.4 100.8l-3.7 3.8"/><path d="m144.4 97.7l-.6.6"/></g><path fill="#7b6bb0" d="m50 63.9h78.2v7.7h-78.2z"/><path fill="none" stroke="#7b6bb0" stroke-linejoin="round" stroke-linecap="round" stroke-miterlimit="10" d="m153.1 86.6l4.8 4.6"/><g fill="#7b6bb0"><circle cx="182.3" cy="177.2" r="3.7"/><circle cx="55.2" cy="43.9" r="3.7"/></g><g fill="none" stroke="#7b6bb0" stroke-linejoin="round" stroke-linecap="round" stroke-width="5" stroke-miterlimit="10"><path d="m182.3 41.5l5.5-5.1"/><path d="m166.5 163l.3.3 6 5.9"/><path d="m161.1 49.5l.6-.8 10.6-15.8"/><path d="m154.3 47.9v-.2l.4-5.4"/><path d="m171 62.4l3.3-1.5"/><path d="m169.9 109.6l7.3.1"/><path d="m18.4 40.3l.9.6 17.4 11.2"/><path d="m37.2 39.1l-.2-.4-4.3-9.1"/><path d="m42 49.3l-1.6-3.3"/><path d="m22 174.2l-9.3 7.5"/><path d="m40.5 169.6l-.6.8-11.7 15"/><path d="m47.3 171.6l-.1.3-.8 5.3"/><path d="m31.5 156.1l-3.4 1.3"/><path d="m34.4 164l-6.9 5.7"/><path d="m13.2 106.3l20.2.1"/><path d="m24.2 118.1l9.2-.5"/><path d="m169.9 98.3l20-3"/><path d="m186.1 123.7l4.8.7"/><path d="m169.9 121.4l8.7 1.2 2.3.4"/><path d="m23.4 93l10.5 2.4"/></g><g font-family="&apos;RobotoSlab-Regular&apos;"><text transform="translate(931.51 113.96)" font-size="97.38" fill="#17531d">1</text><text transform="translate(951.2 127.11)" font-size="97.15" fill="#51a842">2</text><text transform="translate(978.39 165.9)" font-size="119.67" fill="#9fe38a">3</text></g></svg>