<svg xmlns="http://www.w3.org/2000/svg" viewBox="0 0 205 205" enable-background="new 0 0 205 205"><text transform="translate(-452.91-502.91)" font-family="&apos;RobotoSlab-Regular&apos;" font-size="49" fill="#00eded">Moz Content GTM - Icons for Learn Content Page</text><text transform="translate(-452.91-386.91)"><tspan x="0" y="0" font-family="&apos;Lato-Regular&apos;" font-size="28">Beginner’s Guide to</tspan><tspan x="0" y="33.6" font-family="&apos;Lato-Regular&apos;" font-size="28">Content Marketing</tspan></text><text transform="translate(-14.912-386.91)"><tspan x="0" y="0" font-family="&apos;Lato-Regular&apos;" font-size="28">Content Marketing topics </tspan><tspan x="0" y="33.6" font-family="&apos;Lato-Regular&apos;" font-size="28">on the Moz Blog</tspan></text><text transform="translate(431.09-386.91)"><tspan x="0" y="0" font-family="&apos;Lato-Regular&apos;" font-size="28">Content videos in </tspan><tspan x="0" y="33.6" font-family="&apos;Lato-Regular&apos;" font-size="28">Moz Academy</tspan></text><text transform="translate(-452.91-52.912)"><tspan x="0" y="0" font-family="&apos;Lato-Regular&apos;" font-size="28">21 Tactics to </tspan><tspan x="0" y="33.6" font-family="&apos;Lato-Regular&apos;" font-size="28">Increase Blog Traffic</tspan></text><text transform="translate(-14.912-52.912)"><tspan x="0" y="0" font-family="&apos;Lato-Regular&apos;" font-size="28">How To Do a Content </tspan><tspan x="0" y="33.6" font-family="&apos;Lato-Regular&apos;" font-size="28">Audit - Step-by-Step</tspan></text><text transform="translate(431.09-52.912)"><tspan x="0" y="0" font-family="&apos;Lato-Regular&apos;" font-size="28">3 Steps to Identify Blog </tspan><tspan x="0" y="33.6" font-family="&apos;Lato-Regular&apos;" font-size="28">Topics that are Relevant to Your Audience</tspan></text><text transform="translate(-452.91 290.64)"><tspan x="0" y="0" font-family="&apos;Lato-Regular&apos;" font-size="28">75 Content Starters </tspan><tspan x="0" y="33.6" font-family="&apos;Lato-Regular&apos;" font-size="28">for Any Industry</tspan></text><text transform="translate(-14.912 290.64)"><tspan x="0" y="0" font-family="&apos;Lato-Regular&apos;" font-size="28">Attract Customers to </tspan><tspan x="0" y="33.6" font-family="&apos;Lato-Regular&apos;" font-size="28">Your Community with Content</tspan></text><text transform="translate(431.09 290.64)"><tspan x="0" y="0" font-family="&apos;Lato-Regular&apos;" font-size="28">It's Time to Treat Content </tspan><tspan x="0" y="33.6" font-family="&apos;Lato-Regular&apos;" font-size="28">as Part of the User Experience</tspan></text><path fill="#99a2a3" d="m-11.1-10.9h227.2v226.8h-227.2z"/><g fill="#424a4f"><circle cx="170.8" cy="21.8" r="3.7"/><circle cx="37.5" cy="148.9" r="3.7"/></g><g fill="none" stroke="#424a4f" stroke-linejoin="round" stroke-linecap="round" stroke-width="5" stroke-miterlimit="10"><path d="m35.2 21.8l-5.1-5.5"/><path d="m156.7 37.7l.3-.3 5.9-6.1"/><path d="m43.2 43l-.8-.5-15.8-10.7"/><path d="m41.6 49.9l-.3-.1-5.3-.4"/><path d="m56.1 33.1l-1.6-3.2"/><path d="m103.2 34.2l.1-7.3"/><path d="m33.9 185.7l.6-.9 11.2-17.4"/><path d="m32.8 166.9l-.5.2-9.1 4.3"/><path d="m42.9 162.1l-3.3 1.6"/><path d="m167.8 182.2l7.6 9.2"/><path d="m163.2 163.6l.8.6 15.1 11.7"/><path d="m165.3 156.9h.2l5.3.8"/><path d="m149.7 172.6l1.4 3.4"/><path d="m157.7 169.7l5.6 6.9"/><path d="m100 190.9v-20.2"/><path d="m111.7 179.9l-.5-9.2"/><path d="m91.9 34.2l-3-20"/><path d="m117.4 18l.6-4.8"/><path d="m115 34.2l1.3-8.7.3-2.3"/><path d="m86.7 180.7l2.4-10.5"/></g><path d="m150 146.7h-92.2c-2.4 0-4.3-1.9-4.3-4.3v-79.9c0-2.4 1.9-4.3 4.3-4.3h92.2c2.4 0 4.3 1.9 4.3 4.3v79.9c.1 2.4-1.9 4.3-4.3 4.3" fill="#d6e1e1"/><path d="m144.2 139.4h-80.7c-1.5 0-2.7-1.2-2.7-2.7v-55c0-1.5 1.2-2.7 2.7-2.7h80.7c1.5 0 2.7 1.2 2.7 2.7v55c0 1.4-1.2 2.7-2.7 2.7" fill="#fff"/><path fill="none" stroke="#4d4c4d" stroke-linejoin="round" stroke-linecap="round" stroke-width="2" stroke-miterlimit="10" d="m101.5 68.8h43.1"/><g fill="#4d4c4d"><circle cx="63.2" cy="68.8" r="2.5"/><circle cx="70.4" cy="68.8" r="2.5"/><circle cx="77.2" cy="68.8" r="2.5"/></g><g fill="#d6e1e1"><path d="m66.4 84.5h75v18.3h-75z"/><path d="m66.9 108.6h22.2v22.6h-22.2z"/></g><g fill="none" stroke="#4d4c4d" stroke-linejoin="round" stroke-linecap="round" stroke-width="2" stroke-miterlimit="10"><path d="m103.8 110.4h32"/><path d="m103.8 120.6h32"/><path d="m103.8 130.8h32"/></g><path d="m161.6 129.5l-18-18c3.3-4.1 5.4-9.4 5.4-15.1 0-13.2-10.8-24-24-24s-24 10.8-24 24 10.8 24 24 24c5.7 0 11-2 15.1-5.4l18 18 3.5-3.5m-55.6-33.1c0-10.5 8.5-19 19-19s19 8.5 19 19-8.5 19-19 19-19-8.5-19-19" fill="#4d4c4d"/><circle cx="124.6" cy="96.4" r="17.4" opacity=".57" fill="#fff"/><g font-family="&apos;RobotoSlab-Regular&apos;"><text transform="translate(497.69 113.96)" font-size="97.38" fill="#17531d">1</text><text transform="translate(517.37 127.11)" font-size="97.15" fill="#51a842">2</text><text transform="translate(544.57 165.9)" font-size="119.67" fill="#9fe38a">3</text></g></svg>