<svg xmlns="http://www.w3.org/2000/svg" viewBox="0 0 205 205" enable-background="new 0 0 205 205"><text transform="translate(-902.91-502.91)" font-family="&apos;RobotoSlab-Regular&apos;" font-size="49" fill="#00eded">Moz Content GTM - Icons for Learn Content Page</text><text transform="translate(-902.91-386.91)"><tspan x="0" y="0" font-family="&apos;Lato-Regular&apos;" font-size="28">Beginner’s Guide to</tspan><tspan x="0" y="33.6" font-family="&apos;Lato-Regular&apos;" font-size="28">Content Marketing</tspan></text><text transform="translate(-464.91-386.91)"><tspan x="0" y="0" font-family="&apos;Lato-Regular&apos;" font-size="28">Content Marketing topics </tspan><tspan x="0" y="33.6" font-family="&apos;Lato-Regular&apos;" font-size="28">on the Moz Blog</tspan></text><text transform="translate(-18.912-386.91)"><tspan x="0" y="0" font-family="&apos;Lato-Regular&apos;" font-size="28">Content videos in </tspan><tspan x="0" y="33.6" font-family="&apos;Lato-Regular&apos;" font-size="28">Moz Academy</tspan></text><text transform="translate(-902.91-52.912)"><tspan x="0" y="0" font-family="&apos;Lato-Regular&apos;" font-size="28">21 Tactics to </tspan><tspan x="0" y="33.6" font-family="&apos;Lato-Regular&apos;" font-size="28">Increase Blog Traffic</tspan></text><text transform="translate(-464.91-52.912)"><tspan x="0" y="0" font-family="&apos;Lato-Regular&apos;" font-size="28">How To Do a Content </tspan><tspan x="0" y="33.6" font-family="&apos;Lato-Regular&apos;" font-size="28">Audit - Step-by-Step</tspan></text><text transform="translate(-18.912-52.912)"><tspan x="0" y="0" font-family="&apos;Lato-Regular&apos;" font-size="28">3 Steps to Identify Blog </tspan><tspan x="0" y="33.6" font-family="&apos;Lato-Regular&apos;" font-size="28">Topics that are Relevant to Your Audience</tspan></text><text transform="translate(-902.91 290.64)"><tspan x="0" y="0" font-family="&apos;Lato-Regular&apos;" font-size="28">75 Content Starters </tspan><tspan x="0" y="33.6" font-family="&apos;Lato-Regular&apos;" font-size="28">for Any Industry</tspan></text><text transform="translate(-464.91 290.64)"><tspan x="0" y="0" font-family="&apos;Lato-Regular&apos;" font-size="28">Attract Customers to </tspan><tspan x="0" y="33.6" font-family="&apos;Lato-Regular&apos;" font-size="28">Your Community with Content</tspan></text><text transform="translate(-18.912 290.64)"><tspan x="0" y="0" font-family="&apos;Lato-Regular&apos;" font-size="28">It's Time to Treat Content </tspan><tspan x="0" y="33.6" font-family="&apos;Lato-Regular&apos;" font-size="28">as Part of the User Experience</tspan></text><path fill="#d1f5c0" d="m-11.1-10.9h227.2v226.8h-227.2z"/><path d="m53.4 108l10.7-1.3v-51.9l-10.8.2v-5.8l20.3-4.4v61.9l10.7 1.3v6h-30.9v-6" fill="#17531d"/><path d="m72 127.1v-6.4l22.6-25.1c4-4.5 6.8-8.1 8.2-10.8 1.4-2.7 2.2-5.4 2.2-8.2 0-3.4-1-6.3-3-8.7-2-2.4-4.7-3.5-8-3.5-4.8 0-8.3 1.2-10.5 3.7-2.2 2.4-3.4 5.9-3.4 10.3h-9l-.1-.3c-.2-5.9 1.8-10.9 5.9-15 4.1-4 9.8-6.1 17.1-6.1 6.2 0 11.2 1.8 14.9 5.4 3.7 3.6 5.5 8.2 5.5 13.8 0 3.8-1.1 7.5-3.3 11.3-2.2 3.8-5.4 7.8-9.4 12.2l-18.2 19.8.1.2h24.4l.8-7.9h7.9v15.2h-44.7z" fill="#51a842"/><path d="m115.8 118h10.1c5.1 0 8.7-1.3 10.8-3.8 2.1-2.6 3.2-6.1 3.2-10.7 0-4.9-1.2-8.6-3.6-11.1-2.4-2.5-6-3.8-10.7-3.8-4.5 0-8.1 1.3-10.8 3.9-2.7 2.6-4.1 6.1-4.1 10.5h-11l-.1-.4c-.2-6.4 2.1-11.9 7-16.4 4.8-4.5 11.2-6.7 19-6.7 7.9 0 14.1 2.1 18.8 6.3 4.7 4.2 7 10.2 7 17.9 0 3.5-1.1 7-3.2 10.5-2.1 3.5-5.3 6.1-9.6 8 5.1 1.7 8.7 4.3 10.8 7.9 2.1 3.6 3.2 7.6 3.2 12 0 7.8-2.5 13.8-7.6 18.3-5.1 4.4-11.6 6.7-19.5 6.7-7.8 0-14.2-2.1-19.3-6.3-5.1-4.2-7.5-9.9-7.3-17l.2-.4h11c0 4.5 1.4 8 4.1 10.7 2.7 2.6 6.5 4 11.3 4 4.9 0 8.7-1.3 11.5-4 2.8-2.6 4.1-6.6 4.1-11.7 0-5.3-1.2-9.1-3.7-11.6-2.5-2.5-6.3-3.7-11.6-3.7h-10.1v-9.1z" fill="#9fe38a"/><g fill="#247163"><circle cx="184.6" cy="168.3" r="3.7"/><circle cx="57.5" cy="35" r="3.7"/></g><g fill="none" stroke="#247163" stroke-linejoin="round" stroke-linecap="round" stroke-width="4" stroke-miterlimit="10"><path d="m184.6 32.7l5.5-5.1"/><path d="m168.7 154.2l.3.3 6.1 5.9"/><path d="m163.4 40.7l.5-.8 10.7-15.8"/><path d="m156.5 39.1l.1-.3.4-5.3"/><path d="m173.3 53.6l3.2-1.6"/><path d="m172.2 100.7l7.3.1"/><path d="m20.7 31.4l.9.6 17.4 11.2"/><path d="m39.5 30.3l-.2-.5-4.3-9.1"/><path d="m44.3 40.4l-1.6-3.3"/><path d="m24.2 165.3l-9.2 7.6"/><path d="m42.8 160.8l-.6.7-11.7 15.1"/><path d="m49.5 162.8v.3l-.8 5.2"/><path d="m33.8 147.2l-3.4 1.4"/><path d="m36.7 155.2l-6.9 5.6"/><path d="m15.5 97.5l20.2.1"/><path d="m26.5 109.2l9.2-.4"/><path d="m172.2 89.4l20-3"/><path d="m188.4 114.9l4.8.7"/><path d="m172.2 112.5l8.7 1.3 2.3.3"/><path d="m25.7 84.2l10.5 2.4"/></g></svg>