<svg xmlns="http://www.w3.org/2000/svg" viewBox="0 0 205 205" enable-background="new 0 0 205 205"><text transform="translate(-452.91-847.03)" font-family="&apos;RobotoSlab-Regular&apos;" font-size="49" fill="#00eded">Moz Content GTM - Icons for Learn Content Page</text><text transform="translate(-452.91-731.03)"><tspan x="0" y="0" font-family="&apos;Lato-Regular&apos;" font-size="28">Beginner’s Guide to</tspan><tspan x="0" y="33.6" font-family="&apos;Lato-Regular&apos;" font-size="28">Content Marketing</tspan></text><text transform="translate(-14.912-731.03)"><tspan x="0" y="0" font-family="&apos;Lato-Regular&apos;" font-size="28">Content Marketing topics </tspan><tspan x="0" y="33.6" font-family="&apos;Lato-Regular&apos;" font-size="28">on the Moz Blog</tspan></text><text transform="translate(431.09-731.03)"><tspan x="0" y="0" font-family="&apos;Lato-Regular&apos;" font-size="28">Content videos in </tspan><tspan x="0" y="33.6" font-family="&apos;Lato-Regular&apos;" font-size="28">Moz Academy</tspan></text><text transform="translate(-452.91-397.03)"><tspan x="0" y="0" font-family="&apos;Lato-Regular&apos;" font-size="28">21 Tactics to </tspan><tspan x="0" y="33.6" font-family="&apos;Lato-Regular&apos;" font-size="28">Increase Blog Traffic</tspan></text><text transform="translate(-14.912-397.03)"><tspan x="0" y="0" font-family="&apos;Lato-Regular&apos;" font-size="28">How To Do a Content </tspan><tspan x="0" y="33.6" font-family="&apos;Lato-Regular&apos;" font-size="28">Audit - Step-by-Step</tspan></text><text transform="translate(431.09-397.03)"><tspan x="0" y="0" font-family="&apos;Lato-Regular&apos;" font-size="28">3 Steps to Identify Blog </tspan><tspan x="0" y="33.6" font-family="&apos;Lato-Regular&apos;" font-size="28">Topics that are Relevant to Your Audience</tspan></text><text transform="translate(-452.91-53.48)"><tspan x="0" y="0" font-family="&apos;Lato-Regular&apos;" font-size="28">75 Content Starters </tspan><tspan x="0" y="33.6" font-family="&apos;Lato-Regular&apos;" font-size="28">for Any Industry</tspan></text><text transform="translate(-14.912-53.48)"><tspan x="0" y="0" font-family="&apos;Lato-Regular&apos;" font-size="28">Attract Customers to </tspan><tspan x="0" y="33.6" font-family="&apos;Lato-Regular&apos;" font-size="28">Your Community with Content</tspan></text><text transform="translate(431.09-53.48)"><tspan x="0" y="0" font-family="&apos;Lato-Regular&apos;" font-size="28">It's Time to Treat Content </tspan><tspan x="0" y="33.6" font-family="&apos;Lato-Regular&apos;" font-size="28">as Part of the User Experience</tspan></text><path fill="#bee6f6" d="m-8.3-8.1h221.6v221.3h-221.6z"/><path d="m118.2 105.8c4 0 6.8 0 10.4 0 0 11.6.9 23.1-.3 34.3-1.2 11.6-12.3 18.5-25.6 17.3 0-2.8 0-5.6 0-8.5 13.6-4.1 15.3-6.3 15.4-21.1.1-7 .1-14.1.1-22" fill="#ff4d49"/><g fill="#272732"><path d="m114.8 85.9c6.2 0 11.2 0 18.5 0-1.1 20 .6 55.2-3.7 59.4-1.4 10.4-18 17.8-30.3 16-14.9-2.1-24.6-10.2-25.1-22.8-.7-17.3-.2-34.6-.2-52.4 4.7 0 9.9 0 16.1 0 0 15.3-.2 30.5.1 45.7.1 8.8 4.9 13.3 13.2 12.9 7.1-.3 11.5-3.3 11.4-11.4-.2-15.5 0-31 0-47.4m3.4 19.9c0 8 .1 15 0 22-.1 14.7-1.8 16.9-15.4 21.1 0 2.8 0 5.7 0 8.5 13.2 1.2 24.3-5.6 25.6-17.3 1.2-11.2.3-22.6.3-34.3-3.7 0-6.5 0-10.5 0m-41.8-16.7c0 4.8 0 9.1 0 13.5 3.8 0 7.1 0 10.7 0 0-4.8 0-8.9 0-13.5-3.6 0-6.8 0-10.7 0m52.1 13.7c0-4.6 0-8.9 0-13.3-3.6 0-6.9 0-9.7 0 0 5 0 9.3 0 13.3 3.6 0 6.4 0 9.7 0"/><path d="m63 42.5c1.3 5 2.7 9.9 4.1 15.4 2.9-1.1 5.2-2 8.1-3.1 0 7 0 13.4 0 19.9-.5.1-.9.3-1.4.4-1.2-3.5-2.4-7.1-3.8-11.3-2.8.6-5.4 1.2-8.2 1.9 0-8 0-15.5 0-23.1.5-.1.9-.1 1.2-.1"/><path d="m104.4 67.3c-.2-3.9-.4-7.9-.6-12.2-2.9 0-5.4 0-9.1 0 2-7.6 3.9-15 5.8-22.3.5.1 1.1.1 1.6.2 0 5 0 10 0 15.5 3.2-.4 5.7-.7 8.9-1.1-2 7-3.8 13.5-5.7 20-.3 0-.6 0-.9-.1"/><path d="m33.1 118.7c.3-3.1.6-5.6 1-9 6.8 3.5 12.9 6.7 21.3 11-6.8-1-11-1.6-15.7-2.2-.6 2.6-1.1 5-1.8 8.5-6.9-3.4-13.6-6.6-20.2-9.9.1-.4.2-.9.3-1.3 4.8.9 9.6 1.8 15.1 2.9"/><path d="m47.8 150.2c1.3 3 2.2 5 3.4 7.9-8 .7-15.4 1.3-22.7 1.9-.1-.4-.2-.9-.3-1.3 4.5-1.7 9-3.3 14.2-5.2-1-2.4-1.9-4.7-3.2-7.9 6.7-.6 13.2-1.2 19.6-1.7.2.4.3.8.5 1.3-3.7 1.4-7.3 3.1-11.5 5"/><path d="m145.7 143c3.4 2.3 6.8 4.5 10.5 7 1.7-2.3 3.3-4.3 5.4-7.1 4.4 5.3 8.7 10.4 13 15.5-.3.4-.7.8-1 1.2-3.5-2.3-7.1-4.5-11.2-7.2-1.4 2.5-2.7 4.8-4.3 7.8-4.8-5.8-9.1-11.2-13.5-16.5.4-.2.8-.5 1.1-.7"/><path d="m165.3 118.8c.5-3.4.8-5.9 1.2-8.9 7.3 2.7 14.1 5.1 20.9 7.6-.1.4-.1.8-.2 1.2-5.1-.4-10.2-.9-15.7-1.3.2 3.3.3 5.8.5 9.1-6.9-2.6-13.4-5-19.8-7.4.1-.4.1-.9.2-1.3 4 .3 8.1.6 12.9 1"/><path d="m128.6 60.3c4.5-5 9-10.1 13.5-15.2.3.2.6.4.9.6-2 3.7-4 7.5-6.4 11.9 2.6 1.1 5.1 2.1 7.5 3.2-5 5.1-9.8 10-16 16.3 2.7-5.3 4.6-8.9 6.7-13.1-2.6-1.5-4.9-2.9-6.2-3.7"/><path d="m47.6 86.8c-2 2.1-3.8 4-6.2 6.5-3.6-5.9-6.9-11.4-10.2-16.9.5-.4.9-.8 1.4-1.2 3 2.8 6.1 5.5 9.5 8.6 1.7-2.5 3.1-4.6 5.1-7.7 3.8 6.6 7.4 12.7 10.9 18.7-.3.3-.7.5-1 .8-3-2.7-6-5.6-9.5-8.8"/><path d="m157.3 87.1c-1.4-2.5-2.5-4.7-4.2-7.7 7.2-1.7 13.8-3.2 20.4-4.7.2.4.3.9.5 1.3-3.9 2.3-7.8 4.6-12.1 7.1 1.7 2.3 3.3 4.4 5.4 7.2-6.8 1.5-13.1 2.9-19.4 4.3-.2-.4-.4-.8-.6-1.2 3.2-2 6.4-3.9 10-6.3"/></g><g fill="#fff"><path d="m76.4 89.1c3.9 0 7.1 0 10.7 0 0 4.6 0 8.8 0 13.5-3.6 0-6.9 0-10.7 0 0-4.4 0-8.6 0-13.5"/><path d="m128.5 102.8c-3.3 0-6.2 0-9.7 0 0-4 0-8.3 0-13.3 2.8 0 6.1 0 9.7 0 0 4.4 0 8.7 0 13.3"/></g></svg>