<svg xmlns="http://www.w3.org/2000/svg" viewBox="0 0 205 205" enable-background="new 0 0 205 205"><text transform="translate(-902.91-847.03)" font-family="&apos;RobotoSlab-Regular&apos;" font-size="49" fill="#00eded">Moz Content GTM - Icons for Learn Content Page</text><text transform="translate(-902.91-731.03)"><tspan x="0" y="0" font-family="&apos;Lato-Regular&apos;" font-size="28">Beginner’s Guide to</tspan><tspan x="0" y="33.6" font-family="&apos;Lato-Regular&apos;" font-size="28">Content Marketing</tspan></text><text transform="translate(-464.91-731.03)"><tspan x="0" y="0" font-family="&apos;Lato-Regular&apos;" font-size="28">Content Marketing topics </tspan><tspan x="0" y="33.6" font-family="&apos;Lato-Regular&apos;" font-size="28">on the Moz Blog</tspan></text><text transform="translate(-18.912-731.03)"><tspan x="0" y="0" font-family="&apos;Lato-Regular&apos;" font-size="28">Content videos in </tspan><tspan x="0" y="33.6" font-family="&apos;Lato-Regular&apos;" font-size="28">Moz Academy</tspan></text><text transform="translate(-902.91-397.03)"><tspan x="0" y="0" font-family="&apos;Lato-Regular&apos;" font-size="28">21 Tactics to </tspan><tspan x="0" y="33.6" font-family="&apos;Lato-Regular&apos;" font-size="28">Increase Blog Traffic</tspan></text><text transform="translate(-464.91-397.03)"><tspan x="0" y="0" font-family="&apos;Lato-Regular&apos;" font-size="28">How To Do a Content </tspan><tspan x="0" y="33.6" font-family="&apos;Lato-Regular&apos;" font-size="28">Audit - Step-by-Step</tspan></text><text transform="translate(-18.912-397.03)"><tspan x="0" y="0" font-family="&apos;Lato-Regular&apos;" font-size="28">3 Steps to Identify Blog </tspan><tspan x="0" y="33.6" font-family="&apos;Lato-Regular&apos;" font-size="28">Topics that are Relevant to Your Audience</tspan></text><text transform="translate(-902.91-53.48)"><tspan x="0" y="0" font-family="&apos;Lato-Regular&apos;" font-size="28">75 Content Starters </tspan><tspan x="0" y="33.6" font-family="&apos;Lato-Regular&apos;" font-size="28">for Any Industry</tspan></text><text transform="translate(-464.91-53.48)"><tspan x="0" y="0" font-family="&apos;Lato-Regular&apos;" font-size="28">Attract Customers to </tspan><tspan x="0" y="33.6" font-family="&apos;Lato-Regular&apos;" font-size="28">Your Community with Content</tspan></text><text transform="translate(-18.912-53.48)"><tspan x="0" y="0" font-family="&apos;Lato-Regular&apos;" font-size="28">It's Time to Treat Content </tspan><tspan x="0" y="33.6" font-family="&apos;Lato-Regular&apos;" font-size="28">as Part of the User Experience</tspan></text><path fill="#216b86" d="m-8.3-8.1h221.6v221.3h-221.6z"/><g fill="#5ce7cc"><circle cx="183" cy="172.2" r="3.7"/><circle cx="55.9" cy="38.9" r="3.7"/></g><g stroke-miterlimit="10"><g fill="none" stroke="#5ce7cc" stroke-linejoin="round" stroke-linecap="round" stroke-width="5"><path d="m183 36.5l5.5-5.1"/><path d="m167.1 158l.3.3 6.1 6"/><path d="m161.8 44.5l.6-.8 10.6-15.8"/><path d="m154.9 42.9l.1-.2.4-5.4"/><path d="m171.7 57.4l3.2-1.5"/><path d="m170.6 104.6l7.3.1"/><path d="m19.1 35.3l.9.6 17.4 11.2"/><path d="m37.9 34.1l-.2-.4-4.3-9.1"/><path d="m42.7 44.3l-1.6-3.3"/><path d="m22.6 169.2l-9.2 7.5"/><path d="m41.2 164.6l-.6.8-11.7 15"/><path d="m47.9 166.6v.3l-.8 5.3"/><path d="m32.2 151.1l-3.4 1.4"/><path d="m35.1 159l-6.9 5.7"/><path d="m13.9 101.3l20.2.1"/><path d="m24.9 113.1l9.2-.5"/><path d="m170.6 93.3l20-3"/><path d="m186.8 118.7l4.8.7"/><path d="m170.6 116.4l8.7 1.2 2.3.4"/><path d="m24.1 88l10.5 2.4"/></g><path fill="#54e6ca" stroke="#45c9b0" stroke-width="2" d="m63.1 78.9h20.8v14.1h-20.8z"/></g><path fill="#50d6bc" d="m78.5 90.3h-14.7v-10.6z"/><path fill="#54e6ca" stroke="#45c9b0" stroke-width="2" stroke-miterlimit="10" d="m92.8 79h20.8v14.1h-20.8z"/><path fill="#50d6bc" d="m108.2 90.4h-14.8v-10.6z"/><path fill="#54e6ca" stroke="#45c9b0" stroke-width="2" stroke-miterlimit="10" d="m122.4 79.1h20.8v14.1h-20.8z"/><path fill="#50d6bc" d="m137.8 90.5h-14.7v-10.6z"/><path fill="#54e6ca" stroke="#45c9b0" stroke-width="2" stroke-miterlimit="10" d="m51.4 90.4h102.9v42.7h-102.9z"/><g fill="#50d6bc"><path d="m62.4 122.7c2.2.6 4.7.9 7.3.9 1.2 0 2.4-.1 3.6-.2-2.2-.6-4.7-.9-7.3-.9-1.3 0-2.5.1-3.6.2"/><path d="m71.3 118.9c4.1 1.1 8.8 2 13.8 2.7 2.3.3 4.6.5 6.8.7-4.1-1.1-8.8-2-13.8-2.7-2.3-.4-4.6-.6-6.8-.7"/><path d="m136.8 130.2c2.8.3 5.9.3 9.3.2 1.5-.1 3-.2 4.5-.3-2.8-.3-5.9-.3-9.3-.2-1.6.1-3.1.2-4.5.3"/><path d="m94.5 84.8c2.8.3 5.9.3 9.3.2 1.5-.1 3-.2 4.5-.3-2.8-.3-5.9-.3-9.3-.2-1.5.1-3 .2-4.5.3"/><path d="m63.6 82.9c2.8.3 5.9.3 9.3.2 1.5-.1 3-.2 4.5-.3-2.8-.3-5.9-.3-9.3-.2-1.5.1-3 .2-4.5.3"/><path d="m93.3 86.8c3.7.3 7.8.4 12.2.2 2-.1 4-.2 5.9-.4-3.7-.3-7.8-.4-12.2-.2-2.1.1-4 .2-5.9.4"/></g><path d="m78.8 124c4.9.5 10.4.9 16.2.9 2.7 0 5.3 0 7.9-.1-4.9-.5-10.4-.9-16.2-.9-2.7-.1-5.4 0-7.9.1" fill="#5eefd3"/></svg>