<svg xmlns="http://www.w3.org/2000/svg" viewBox="0 0 205 205" enable-background="new 0 0 205 205"><text transform="translate(-902.91-170.56)" font-family="&apos;RobotoSlab-Regular&apos;" font-size="49" fill="#00eded">Moz Content GTM - Icons for Learn Content Page</text><text transform="translate(-902.91-54.56)"><tspan x="0" y="0" font-family="&apos;Lato-Regular&apos;" font-size="28">Beginner’s Guide to</tspan><tspan x="0" y="33.6" font-family="&apos;Lato-Regular&apos;" font-size="28">Content Marketing</tspan></text><text transform="translate(-464.91-54.56)"><tspan x="0" y="0" font-family="&apos;Lato-Regular&apos;" font-size="28">Content Marketing topics </tspan><tspan x="0" y="33.6" font-family="&apos;Lato-Regular&apos;" font-size="28">on the Moz Blog</tspan></text><text transform="translate(-18.912-54.56)"><tspan x="0" y="0" font-family="&apos;Lato-Regular&apos;" font-size="28">Content videos in </tspan><tspan x="0" y="33.6" font-family="&apos;Lato-Regular&apos;" font-size="28">Moz Academy</tspan></text><text transform="translate(-902.91 279.44)"><tspan x="0" y="0" font-family="&apos;Lato-Regular&apos;" font-size="28">21 Tactics to </tspan><tspan x="0" y="33.6" font-family="&apos;Lato-Regular&apos;" font-size="28">Increase Blog Traffic</tspan></text><text transform="translate(-464.91 279.44)"><tspan x="0" y="0" font-family="&apos;Lato-Regular&apos;" font-size="28">How To Do a Content </tspan><tspan x="0" y="33.6" font-family="&apos;Lato-Regular&apos;" font-size="28">Audit - Step-by-Step</tspan></text><text transform="translate(-18.912 279.44)"><tspan x="0" y="0" font-family="&apos;Lato-Regular&apos;" font-size="28">3 Steps to Identify Blog </tspan><tspan x="0" y="33.6" font-family="&apos;Lato-Regular&apos;" font-size="28">Topics that are Relevant to Your Audience</tspan></text><text transform="translate(-902.91 622.99)"><tspan x="0" y="0" font-family="&apos;Lato-Regular&apos;" font-size="28">75 Content Starters </tspan><tspan x="0" y="33.6" font-family="&apos;Lato-Regular&apos;" font-size="28">for Any Industry</tspan></text><text transform="translate(-464.91 622.99)"><tspan x="0" y="0" font-family="&apos;Lato-Regular&apos;" font-size="28">Attract Customers to </tspan><tspan x="0" y="33.6" font-family="&apos;Lato-Regular&apos;" font-size="28">Your Community with Content</tspan></text><text transform="translate(-18.912 622.99)"><tspan x="0" y="0" font-family="&apos;Lato-Regular&apos;" font-size="28">It's Time to Treat Content </tspan><tspan x="0" y="33.6" font-family="&apos;Lato-Regular&apos;" font-size="28">as Part of the User Experience</tspan></text><path fill="#faad65" d="m-11.1-11.1h227.2v226.8h-227.2z"/><g fill="#fff"><path d="m132.7 169.9c0 0-3.1-10.6 5-12.3 0 0 8.5-1.4 6.7 14.3 0 .1-11.2 2-11.7-2"/><path d="m69.7 112.1l-1.5 16.8 37.4 16.1 32.3-13.5-1.3-18.8-33.6 11.7z"/><path d="m36.1 94.4l67.4-18.7 68.1 24.7-70.5 24.6-69.6-28.7z"/></g><g fill="#964127"><path d="m25.7 72c-2.8 0-5.3-2-5.7-4.8-.3-1.5.1-3.1 1-4.4.9-1.3 2.2-2.1 3.8-2.4 1.5-.3 3.1.1 4.4 1 1.3.9 2.1 2.2 2.4 3.8.3 1.5-.1 3.1-1 4.4-.9 1.3-2.2 2.1-3.8 2.4-.5 0-.8 0-1.1 0m0-7.4c-.1 0-.2 0-.3 0-.4.1-.8.3-1 .7-.2.3-.3.8-.3 1.2.1.9 1 1.4 1.8 1.3.4-.1.8-.3 1-.7.2-.3.3-.8.3-1.2s-.3-.8-.6-1c-.3-.2-.6-.3-.9-.3"/><path d="m159 85.9c-2.8 0-5.3-2-5.7-4.8-.3-1.5.1-3.1 1-4.4.9-1.3 2.2-2.1 3.8-2.4 1.5-.3 3.1.1 4.4 1 1.3.9 2.1 2.2 2.4 3.8.3 1.5-.1 3.1-1 4.4-.9 1.3-2.2 2.1-3.8 2.4-.5 0-.8 0-1.1 0m0-7.4c-.1 0-.2 0-.3 0-.4.1-.8.3-1 .7-.2.3-.3.8-.3 1.2.1.9 1 1.4 1.8 1.3.4-.1.8-.3 1-.7.2-.3.3-.8.3-1.2s-.3-.8-.6-1c-.3-.2-.6-.3-.9-.3"/><path d="m77.9 180c-2.8 0-5.3-2-5.7-4.8-.3-1.5.1-3.1 1-4.4.9-1.3 2.2-2.1 3.8-2.4 1.5-.3 3.1.1 4.4 1 1.3.9 2.1 2.2 2.4 3.8.5 3.2-1.6 6.2-4.8 6.7-.4.1-.7.1-1.1.1m-1.5-5.6c.1.9 1 1.4 1.8 1.3.9-.1 1.5-1 1.3-1.8-.1-.4-.3-.8-.7-1-.3-.2-.8-.3-1.2-.3-.4.1-.8.3-1 .6-.2.4-.3.8-.2 1.2"/><path d="m123.4 70.2c-.3 0-.5 0-.8-.1-1.1-.4-1.6-1.6-1.2-2.7l1.4-3.8c.4-1.1 1.6-1.6 2.7-1.2 1.1.4 1.6 1.6 1.2 2.7l-1.4 3.8c-.2.8-1 1.3-1.9 1.3"/><path d="m132.6 72.9c-.3 0-.5-.1-.8-.2-1.1-.4-1.6-1.7-1.2-2.8l3.7-9.1c.4-1.1 1.7-1.6 2.8-1.2 1.1.4 1.6 1.7 1.2 2.8l-3.7 9.1c-.4.9-1.2 1.4-2 1.4"/><path d="m80.9 69.6c-.9 0-1.8-.6-2-1.6l-1-3.9c-.3-1.1.4-2.3 1.5-2.6 1.1-.3 2.3.4 2.6 1.5l1 3.9c.3 1.1-.4 2.3-1.5 2.6-.2.1-.4.1-.6.1"/><path d="m101.1 52.4c-2.8 0-5.3-2-5.7-4.8-.5-3.2 1.6-6.2 4.8-6.7 1.5-.3 3.1.1 4.4 1 1.3.9 2.1 2.2 2.4 3.8.3 1.5-.1 3.1-1 4.4-.9 1.3-2.2 2.1-3.8 2.4-.4-.2-.7-.1-1.1-.1m.1-7.5c-.1 0-.2 0-.3 0-.9.1-1.5 1-1.3 1.8.1.9 1 1.4 1.8 1.3.4-.1.8-.3 1-.7.2-.3.3-.8.3-1.2-.1-.4-.3-.8-.6-1-.3-.1-.6-.2-.9-.2"/><path d="m90.1 66.7c-1 0-1.9-.7-2.1-1.7l-4.7-21.8c-.2-1.1.5-2.3 1.6-2.5 1.1-.2 2.3.5 2.5 1.6l4.7 21.8c.2 1.1-.5 2.3-1.6 2.5-.1.1-.3.1-.4.1"/><path d="m118.7 44.9c-.1 0-.3 0-.4 0-1.1-.2-1.9-1.4-1.6-2.5l1.7-8.2c.2-1.1 1.4-1.9 2.5-1.6 1.1.2 1.9 1.4 1.6 2.5l-1.7 8.2c-.2.9-1.1 1.6-2.1 1.6"/><path d="m114.1 66.9c-.1 0-.3 0-.4 0-1.1-.2-1.9-1.4-1.6-2.5l3-14.2c.2-1.1 1.4-1.9 2.5-1.6 1.1.2 1.9 1.4 1.6 2.5l-3 14.2c-.2.9-1.1 1.6-2.1 1.6"/><path d="m101.4 38.6c-1.1 0-2.1-.9-2.1-2.1l-.4-20c0-1.2.9-2.1 2.1-2.2 1.2 0 2.1.9 2.2 2.1l.4 20c-.1 1.2-1 2.2-2.2 2.2"/><path d="m101.6 67.1c-1.1 0-2.1-.9-2.1-2.1l-.3-14.8c0-1.2.9-2.1 2.1-2.2 1.1 0 2.1.9 2.1 2.1l.3 14.8c0 1.2-.9 2.1-2.1 2.2"/><path d="m71.6 72.9c-.8 0-1.6-.5-2-1.3l-3.7-9.1c-.4-1.1.1-2.3 1.2-2.8 1.1-.4 2.3.1 2.8 1.2l3.7 9.1c.4 1.1-.1 2.3-1.2 2.8-.3 0-.6.1-.8.1"/><path d="m25.7 155.7c-.7 0-1.4-.4-1.8-1-.6-1-.3-2.3.7-2.9l6.4-4c1-.6 2.3-.3 2.9.7.6 1 .3 2.3-.7 2.9l-6.4 4c-.3.2-.7.3-1.1.3"/><path d="m40.4 162.1c-.5 0-1.1-.2-1.5-.6-.8-.8-.8-2.2 0-3l14.3-14.3c.8-.8 2.2-.8 3 0 .8.8.8 2.2 0 3l-14.3 14.3c-.4.4-1 .6-1.5.6"/><path d="m60.4 157.7c-.2 0-.4 0-.6-.1-1.1-.3-1.8-1.5-1.5-2.6l1.5-5.5c.3-1.1 1.5-1.8 2.6-1.5 1.1.3 1.8 1.5 1.5 2.6l-1.5 5.5c-.2 1-1.1 1.6-2 1.6"/><path d="m43.8 134.1c-.9 0-1.8-.6-2-1.6-.3-1.1.4-2.3 1.5-2.6l3.5-.9c1.1-.3 2.3.4 2.6 1.5.3 1.1-.4 2.3-1.5 2.6l-3.5.9c-.3 0-.4.1-.6.1"/><path d="m38.2 147.9c-.7 0-1.4-.4-1.8-1-.6-1-.3-2.3.7-2.9l11.2-7c1-.6 2.3-.3 2.9.7.6 1 .3 2.3-.7 2.9l-11.2 7c-.3.1-.7.3-1.1.3"/><path d="m179.1 138.5c-.1 0-.1 0-.2 0l-20.1-1.9c-1.2-.1-2-1.1-1.9-2.3.1-1.2 1.2-2 2.3-1.9l20.1 1.9c1.2.1 2 1.1 1.9 2.3-.1 1.1-1 1.9-2.1 1.9"/><path d="m155.3 153.7c-.4 0-.9-.1-1.2-.4l-3-2.1c-.9-.7-1.2-2-.5-3 .7-.9 2-1.2 3-.5l3 2.1c.9.7 1.2 2 .5 3-.5.6-1.2.9-1.8.9"/><path d="m169.5 149.3c-.2 0-.5 0-.7-.1l-12.5-4.2c-1.1-.4-1.7-1.6-1.3-2.7.4-1.1 1.6-1.7 2.7-1.3l12.5 4.2c1.1.4 1.7 1.6 1.3 2.7-.3.8-1.1 1.4-2 1.4"/><path d="m101.4 129.5l-81.4-32.9 82.9-25 83 28-84.5 29.9m-52.3-31.6l52.5 21.3 54.7-19.4-53.6-18.1-53.6 16.2"/><path d="m100.6 150.2l-37.9-16 1.3-22.8 9.7.5-.9 16.1 28.2 11.8 31.8-10.8-1-15.1 9.7-.7 1.5 22.5z"/><path d="m101.5 106.2c-4.7 0-8.4-2.6-8.4-6s3.7-6 8.4-6c4.7 0 8.4 2.6 8.4 6s-3.8 6-8.4 6m0-7.7c-2.7 0-4.1 1.2-4.1 1.7 0 .5 1.4 1.7 4.1 1.7s4.1-1.2 4.1-1.7c0-.5-1.5-1.7-4.1-1.7"/><path d="m138.3 159c-1.2 0-2.1-.9-2.1-2.1v-40.4l-31.3-11.5c-1.1-.4-1.7-1.6-1.3-2.7.4-1.1 1.6-1.7 2.7-1.3l34.1 12.5v43.4c.1 1.2-.9 2.1-2.1 2.1"/><path d="m137.9 174.9c-1.9 0-3.7-.3-5-.8-2.9-1.1-3.3-2.9-3.3-3.9v-7c0-4.6 3.8-8.4 8.4-8.4s8.4 3.8 8.4 8.4v7c-.1 2.9-3.4 4.7-8.5 4.7m-4.2-5c.5.3 2 .8 4.2.8s3.7-.5 4.2-.8v-6.7c0-2.3-1.9-4.2-4.2-4.2s-4.2 1.9-4.2 4.2v6.7"/><path d="m129.5 169.9h3.2v21.9h-3.2z"/><path d="m142.5 169.9h3.7v21.9h-3.7z"/><path d="m136.6 172h2.2v19.9h-2.2z"/></g><g font-family="&apos;RobotoSlab-Regular&apos;"><text transform="translate(47.689 446.32)" font-size="97.38" fill="#17531d">1</text><text transform="translate(67.37 459.46)" font-size="97.15" fill="#51a842">2</text><text transform="translate(94.57 498.25)" font-size="119.67" fill="#9fe38a">3</text></g></svg>