<svg xmlns="http://www.w3.org/2000/svg" viewBox="0 0 205 205" enable-background="new 0 0 205 205"><text transform="translate(-19.09-847.03)" font-family="&apos;RobotoSlab-Regular&apos;" font-size="49" fill="#00eded">Moz Content GTM - Icons for Learn Content Page</text><text transform="translate(-19.09-731.03)"><tspan x="0" y="0" font-family="&apos;Lato-Regular&apos;" font-size="28">Beginner’s Guide to</tspan><tspan x="0" y="33.6" font-family="&apos;Lato-Regular&apos;" font-size="28">Content Marketing</tspan></text><text transform="translate(418.91-731.03)"><tspan x="0" y="0" font-family="&apos;Lato-Regular&apos;" font-size="28">Content Marketing topics </tspan><tspan x="0" y="33.6" font-family="&apos;Lato-Regular&apos;" font-size="28">on the Moz Blog</tspan></text><text transform="translate(864.91-731.03)"><tspan x="0" y="0" font-family="&apos;Lato-Regular&apos;" font-size="28">Content videos in </tspan><tspan x="0" y="33.6" font-family="&apos;Lato-Regular&apos;" font-size="28">Moz Academy</tspan></text><text transform="translate(-19.09-397.03)"><tspan x="0" y="0" font-family="&apos;Lato-Regular&apos;" font-size="28">21 Tactics to </tspan><tspan x="0" y="33.6" font-family="&apos;Lato-Regular&apos;" font-size="28">Increase Blog Traffic</tspan></text><text transform="translate(418.91-397.03)"><tspan x="0" y="0" font-family="&apos;Lato-Regular&apos;" font-size="28">How To Do a Content </tspan><tspan x="0" y="33.6" font-family="&apos;Lato-Regular&apos;" font-size="28">Audit - Step-by-Step</tspan></text><text transform="translate(864.91-397.03)"><tspan x="0" y="0" font-family="&apos;Lato-Regular&apos;" font-size="28">3 Steps to Identify Blog </tspan><tspan x="0" y="33.6" font-family="&apos;Lato-Regular&apos;" font-size="28">Topics that are Relevant to Your Audience</tspan></text><text transform="translate(-19.09-53.48)"><tspan x="0" y="0" font-family="&apos;Lato-Regular&apos;" font-size="28">75 Content Starters </tspan><tspan x="0" y="33.6" font-family="&apos;Lato-Regular&apos;" font-size="28">for Any Industry</tspan></text><text transform="translate(418.91-53.48)"><tspan x="0" y="0" font-family="&apos;Lato-Regular&apos;" font-size="28">Attract Customers to </tspan><tspan x="0" y="33.6" font-family="&apos;Lato-Regular&apos;" font-size="28">Your Community with Content</tspan></text><text transform="translate(864.91-53.48)"><tspan x="0" y="0" font-family="&apos;Lato-Regular&apos;" font-size="28">It's Time to Treat Content </tspan><tspan x="0" y="33.6" font-family="&apos;Lato-Regular&apos;" font-size="28">as Part of the User Experience</tspan></text><path fill="#fcca9c" d="m-8.3-8.1h221.6v221.3h-221.6z"/><g fill="#92ab3e"><path d="m95.5 41.3c0 0-26.7 30.2 4.3 55.9-.1 0 26.3-23.5-4.3-55.9"/><path d="m162.6 81.9c0 0-36.7-6.6-42.1 30.1 0-.1 31.2 9.6 42.1-30.1"/><path d="m51.2 101.3c0 0 6 30 35.6 23.1 0 .1-2-26.7-35.6-23.1"/></g><path d="m69 113c0 0 18.8 2.6 26.5 26.6" fill="none" stroke="#4d4c4d" stroke-width="3" stroke-miterlimit="10"/><path d="m140.2 141h-71.2c0 0 30.1-12 71.2 0" fill="#4d4c4d"/><g fill="none" stroke="#4d4c4d" stroke-width="3" stroke-miterlimit="10"><path d="m149.8 91.8c0 0-52.6 29.5-38.3 48.8"/><path d="m103.6 139.6c-3.3-15.1-5.1-70.3-5.1-70.3"/></g><g fill="#92ab3e"><circle cx="182.5" cy="169.8" r="3.7"/><circle cx="55.4" cy="36.4" r="3.7"/></g><g fill="none" stroke="#92ab3e" stroke-linecap="round" stroke-width="5" stroke-miterlimit="10"><path d="m182.5 34.1l5.5-5.1"/><path d="m166.6 155.6l.3.3 6.1 5.9"/><path d="m161.3 42.1l.6-.8 10.6-15.8"/><path d="m154.4 40.5l.1-.3.4-5.3"/><path d="m171.2 55l3.2-1.6"/><path d="m170.1 102.2h7.3"/><path d="m18.6 32.9l.9.5 17.4 11.2"/><path d="m37.4 31.7l-.2-.5-4.3-9.1"/><path d="m42.2 41.8l-1.6-3.3"/><path d="m22.1 166.7l-9.2 7.6"/><path d="m40.7 162.2l-.6.8-11.7 15"/><path d="m47.4 164.2v.3l-.8 5.3"/><path d="m31.7 148.7l-3.4 1.3"/><path d="m34.6 156.6l-6.9 5.6"/><path d="m13.4 98.9l20.2.1"/><path d="m24.4 110.6l9.2-.4"/><path d="m170.1 90.8l20-2.9"/><path d="m186.3 116.3l4.8.7"/><path d="m170.1 113.9l8.7 1.3 2.3.3"/><path d="m23.6 85.6l10.5 2.4"/></g></svg>