<svg xmlns="http://www.w3.org/2000/svg" viewBox="0 0 70.4 68.5" enable-background="new 0 0 70.4 68.5"><g fill="#fff"><circle cx="28.7" cy="41.3" r="24.7"/><path d="M28.2,16.2c13.7,0,24.9,11.1,24.9,24.9S42,66,28.2,66S3.3,54.9,3.3,41.1"/></g><g stroke-miterlimit="10"><g fill="none" stroke-linecap="round"><g stroke-dasharray="1 3" stroke="#d5e0e0"><path d="m13.4 22.5h32"/><path d="m5.4 30.5h46"/><path d="m5.4 37.5h47"/><path d="m11.4 46.5h42"/><path d="m7.4 54.5h43"/><path d="m14.4 61.5h28"/></g><g stroke-width="2"><path d="m4.9 43.4c3.9 6 8.9 11.9 13.5 10.2 4.8-1.8 8.2-11.7 12.3-21.4" stroke="#aa8fdb"/><path d="m10.1 44.2c2.9-2.3 5.5-5.2 8.1-7 6.1-4.3 14.7-5.4 28.7-1.2" stroke="#27e5c9"/></g></g><g stroke-width="2"><g fill="#aa8fdb" stroke="#aa8fdb"><circle cx="26.6" cy="42.8" r="2.4"/><circle cx="8.1" cy="46.6" r="2.4"/></g><circle cx="46.5" cy="35.8" r="2.4" fill="#27e5c9" stroke="#27e5c9"/><circle cx="46.7" cy="12.7" r="2.4" fill="#aa8fdb" stroke="#aa8fdb"/><g fill="none" stroke-linecap="round"><path d="m53.1 41.1c0 13.8-11.1 24.9-24.9 24.9-11.5 0-21.2-7.8-24-18.4-.6-2.1-.9-4.2-.9-6.5 0-1.3.1-2.5.3-3.7.3-2.4 1-4.6 2-6.7 1.5-3.2 3.6-6 6.1-8.2 4.4-3.9 10.2-6.3 16.5-6.3 3.2 0 6.3.6 9.2 1.8.5.2.9.4 1.4.6 7.4 3.5 12.8 10.5 14 18.9.2 1.2.3 2.4.3 3.6z" stroke="#1fbce3"/><path d="m30.8 32.2c4.1-9.5 9-18.9 16.9-20.3" stroke="#aa8fdb"/></g><circle cx="30.2" cy="33.6" r="2.4" fill="#27e5c9" stroke="#27e5c9"/></g></g></svg>