<svg xmlns="http://www.w3.org/2000/svg" viewBox="-348 166.5 70.4 68.5" enable-background="new -348 166.5 70.4 68.5"><circle cx="-319.6" cy="207.6" r="24.9" fill="#fff"/><g fill="none" stroke-linecap="round" stroke-width="2" stroke-miterlimit="10"><path d="m-326.1 183.6l-.1 19.4c0 1.6-1.3 2.9-2.9 2.9h-15.3" stroke="#d6e1e1"/><path stroke="#00e7ca" d="m-330.5 198.1h16.8"/><path d="m-294.8 205.8h-15.3c-1.6 0-2.9-1.3-2.9-2.9v-19.4" stroke="#d6e1e1"/><g stroke="#ab8ede"><path d="m-319.6 214.9v-5.9h14.8v-5.9"/><circle cx="-304.8" cy="198.9" r="2.8"/></g><circle cx="-334.2" cy="197.9" r="2.8" stroke="#00e7ca"/><path d="m-343.3 216.1h30.5c1.6 0 2.9 1.3 2.9 2.9v11.6" stroke="#d6e1e1"/><g stroke="#00bde6"><circle cx="-319.5" cy="207.6" r="24.9"/><path d="m-319.5 182.7c13.7 0 24.9 11.1 24.9 24.9 0 13.7-11.1 24.9-24.9 24.9s-24.9-11.1-24.9-24.9"/></g></g></svg>