<?xml version="1.0" encoding="utf-8"?><svg xmlns="http://www.w3.org/2000/svg" viewBox="0 0 1234.7 919" enable-background="new 0 0 1234.7 919"><path d="m1166.7 11.1h-287.2-523.5-287.2c-31.9 0-58 25.8-58 57.8v150.3 554.9 78c0 31.9 26.1 57.8 58 57.8h287.2 523.2 287.4c31.9 0 58-25.8 58-57.8v-78-555-150.3c.1-31.9-26-57.7-57.9-57.7" fill="#fff"/><path d="m162 102.2l10.8-11.3h-22.1c-.5 0-.7.5-.7.7v2.4c-2.1-3.3-6.1-5.6-10.8-5.6-6.1 0-11 3.8-12 8.9v-6.3h-3.8c-.9 0-1.6.5-2.3.9l-7.5 8.2-7.5-8.2c-.5-.7-1.4-.9-2.3-.9h-3.8v16.4h4.5c.5 0 .7-.5.7-.7v-7.7l8.2 9.2 8.2-9.2v7.7c0 .5.5.7.7.7h4.5v-6.8c.9 5.2 5.9 8.9 12 8.9 6.8 0 12.2-4.7 12.2-10.6 0-.9-.2-1.9-.5-2.8h9.6l-10.6 11.3h1.2 20.9c.5 0 .7-.5.7-.7v-4.5c.1 0-10.3 0-10.3 0m-22.7 2.1c-3.3 0-6.1-2.3-6.1-5.2s2.8-5.2 6.1-5.2 6.1 2.3 6.1 5.2c-.3 2.9-2.9 5.2-6.1 5.2" fill="#4dbae8"/><g enable-background="new" fill="#707a7c"><path d="m138.3 248c.2 0 .7 0 .9-.2.2-.2.5-.2.7-.5.2-.2.2-.5.5-.7.2-.2.2-.7.2-1.2v-6.3h1.9v6.3c0 .7-.2 1.2-.2 1.9-.2.5-.5.9-.7 1.4-.2.2-.7.7-1.4.9-.5.2-1.2.2-1.9.2s-1.4-.2-1.9-.2c-.5-.2-.9-.5-1.4-.9-.2-.2-.7-.7-.7-1.4-.2-.5-.2-1.2-.2-1.9v-6.3h1.9v6.3c0 .2 0 .7.2 1.2.2.2.2.7.5.7.2.2.5.5.7.5.2.2.7.2.9.2"/><path d="m146.8 245.7v4h-1.9v-10.6h3.3c.7 0 1.4 0 1.9.2.5.2.9.2 1.4.7.2.2.7.7.7.9.2.2.2.7.2 1.4 0 .2 0 .7-.2.9-.2.2-.2.7-.5.7-.2.2-.5.5-.7.7-.2.2-.7.2-.9.5.2.2.5.2.7.7l2.6 4h-1.9c-.2 0-.2 0-.5-.2-.2 0-.2-.2-.2-.2l-2.3-3.5c-.2-.2-.2-.2-.2-.2-.2-.2-.2 0-.5 0h-1m0-1.4h1.4c.2 0 .7 0 .9-.2.2-.2.5-.2.7-.2.2-.2.2-.2.2-.7.2-.2.2-.5.2-.7 0-.5-.2-.9-.5-1.4s-.7-.5-1.6-.5h-1.4l.1 3.7"/><path d="m156.4 248h4.2v1.6h-6.1v-10.6h1.9v9"/><path d="m161.6 243.6c0-.2 0-.2.2-.5 0-.2.2-.2.2-.2.2-.2.2-.2.2-.2s.2-.2.5-.2c.2 0 .2 0 .5.2.2.2.2.2.2.2.2.2.2.2.2.2 0 .2.2.2.2.5 0 .2 0 .2-.2.5 0 .2-.2.2-.2.2-.2.2-.2.2-.2.2s-.2.2-.5.2c-.2 0-.2 0-.5-.2-.2-.2-.2-.2-.2-.2-.2-.2-.2-.2-.2-.2 0-.5-.2-.5-.2-.5m0 5.1c0-.2 0-.2.2-.5 0-.2.2-.2.2-.2.2-.2.2-.2.2-.2s.2-.2.5-.2c.2 0 .2 0 .5.2.2.2.2.2.2.2.2.2.2.2.2.2 0 .2.2.2.2.5s0 .2-.2.5c0 .2-.2.2-.2.2-.2.2-.2.2-.2.2s-.2.2-.5.2c-.2 0-.2 0-.5-.2-.2 0-.2-.2-.2-.2-.2-.2-.2-.2-.2-.2 0-.5-.2-.5-.2-.5"/></g><g stroke="#dbe3e3" stroke-miterlimit="10"><g fill="none"><path d="m105.7 841.2v-337.4h1038.4v337.4"/><path d="m136.9 841.2v-196.3h974.8v196.3"/><path d="m183.6 226.4h793.8v37.1h-793.8z"/></g><path d="m147.2 627.1h954.2c5.6 0 10.1 4.5 10.1 10.1v27h-974.6v-27c.2-5.4 4.9-10.1 10.3-10.1z" fill="#f2f2f2"/></g><path fill="#aae3fa" d="m993.6 227.4h120.2v37.1h-120.2z"/><g fill="none" stroke-miterlimit="10"><g stroke="#dbe3e3"><path d="m443.4 330.2h-309.1"/><path d="m480.2 330.2h359.1"/></g><g stroke="#dadada" stroke-linecap="round" stroke-width="2"><path d="m199.8 369.4h-59.1"/><path d="m179.7 377.7h-39"/><path d="m370.6 369.4h-59.2"/><path d="m350.4 377.7h-39"/><path d="m1064.1 686.9h-25.6"/><path d="m626.8 369.4h-144"/><path d="m577.5 377.7h-94.7"/><path d="m895 548.2h-765.8"/><path d="m808.8 369.4h-144"/><path d="m759.5 377.7h-94.7"/><path d="m807.2 411.5h-144"/><path d="m757.8 419.7h-94.6"/></g><path stroke="#dbe3e3" d="m876.2 330.2h239.3"/><g stroke="#dadada" stroke-linecap="round" stroke-width="2"><path d="m1108.7 369.4h-229.9"/><path d="m1030 377.7h-151.2"/></g></g><g enable-background="new" fill="#fff"><path d="m1042.7 241c0 .2-.2.2 0 0-.2.2-.2.2-.5.2s-.2 0-.2-.2c-.2 0-.2-.2-.5-.2-.2-.2-.2-.2-.7-.2-.2 0-.5-.2-.7-.2s-.5 0-.7.2c-.2 0-.2.2-.5.2s-.2.2-.2.5c-.2.2-.2.2-.2.5s0 .5.2.7.2.2.5.5c.2.2.5.2.7.2.2.2.7.2.9.2.2.2.7.2.9.2.2.2.5.2.7.5.2.2.5.5.5.7.2.2.2.7.2 1.2 0 .5 0 .9-.2 1.4s-.2.7-.7 1.2c-.2.2-.7.5-1.2.7-.5.2-.9.2-1.6.2-.2 0-.7 0-.9-.2-.2 0-.7-.2-.9-.2-.2-.2-.7-.2-.7-.5-.2-.2-.5-.2-.7-.7l.7-.9.2-.2h.2c.2 0 .2 0 .2.2.2.2.2.2.5.2.2.2.5.2.7.2.2.2.7.2.9.2.5 0 .9-.2 1.4-.2.2-.2.5-.7.5-1.2 0-.2 0-.5-.2-.7s-.2-.2-.5-.5c-.2-.2-.5-.2-.7-.2-.2-.2-.7-.2-.7-.2-.2-.2-.7-.2-.7-.2-.2-.2-.5-.2-.7-.5-.2-.2-.5-.5-.5-.7-.2-.2-.2-.7-.2-1.4 0-.2 0-.7.2-1.2.2-.2.2-.7.7-.9.2-.2.7-.5 1.2-.7s.9-.2 1.4-.2c.7 0 1.2.2 1.9.2.5.2.9.5 1.4.7l-1.4 1.3"/><path d="m1047.9 241.9c.5 0 .9 0 1.4.2.2.2.7.2.9.7.2.2.5.7.7 1.2.2.5.2.9.2 1.4 0 .2 0 .2 0 .2 0 .2 0 .2 0 .2s0 .2-.2.2c-.2 0-.2 0-.2 0h-4.7c0 .7.2 1.4.7 1.6.2.2.7.5 1.4.5.2 0 .5 0 .7-.2.2 0 .2-.2.5-.2.2-.2.2-.2.5-.2s.2-.2.2-.2h.2c0 0 .2 0 .2.2l.5.7c-.2.2-.5.5-.7.7-.2.2-.5.2-.7.2-.2.2-.5.2-.7.2s-.5 0-.7 0c-.5 0-.9-.2-1.4-.2-.5-.2-.7-.5-1.2-.7-.2-.2-.7-.7-.7-1.4-.2-.5-.2-1.2-.2-1.9 0-.5.2-.9.2-1.4.2-.5.2-.7.7-1.2.2-.2.7-.7 1.2-.7 0 .1.7.1 1.2.1m0 1.7c-.5 0-.9.2-1.4.5-.2.2-.5.7-.7 1.4h3.5c0-.2 0-.5-.2-.7 0-.2-.2-.2-.2-.5-.2-.2-.2-.2-.5-.2-.1-.5-.3-.5-.5-.5"/><path d="m1058.4 249.7h-.7c-.2 0-.2 0-.2 0-.2 0-.2-.2-.2-.2l-.2-.5c-.2.2-.2.2-.5.5-.2.2-.2.2-.5.2-.2.2-.2.2-.7.2-.2 0-.5 0-.7 0-.2 0-.7 0-.7-.2-.2-.2-.5-.2-.7-.2-.2-.2-.2-.2-.5-.7-.2-.2-.2-.5-.2-.7 0-.2 0-.5.2-.7.2-.2.2-.5.7-.7.2-.2.7-.5 1.4-.5.7-.2 1.4-.2 2.1-.2v-.5c0-.5-.2-.7-.2-1.2-.2-.2-.5-.2-.9-.2-.2 0-.5 0-.7.2-.2 0-.2.2-.5.2s-.2.2-.2.2l-.2.2c-.2 0-.2 0-.2-.2-.2 0-.2-.2-.2-.2l-.2-.7c.7-.7 1.9-1.2 3.1-1.2.5 0 .7 0 1.2.2.2.2.7.2.7.7.2.2.5.5.5.9.2.2.2.7.2 1.2v4.5l-1-.4m-3.5-1.2c.2 0 .2 0 .5 0s.2-.2.5-.2.2-.2.2-.2l.2-.2v-1.2c-.5 0-.9 0-1.4.2-.2 0-.7.2-.7.2-.2.2-.2.2-.5.2-.2.2-.2.2-.2.5s.2.5.2.7c.5-.2 1 0 1.2 0"/><path d="m1060.1 249.7v-7.5h1.2c.2 0 .2 0 .2.2 0 .2.2.2.2.2l.2.9c.2-.5.7-.7.9-1.2.2-.2.7-.2 1.2-.2.2 0 .7.2.9.2l-.2 1.4c0 .2 0 .2-.2.2h-.2-.2c-.2 0-.2 0-.5 0-.2 0-.7.2-.9.2-.2.2-.5.5-.7.9v4.7h-1.9"/><path d="m1071.3 243.6c0 .4 0 .4 0 0-.2.2-.2.2-.2.2-.2 0-.2 0-.2-.2-.2 0-.2-.2-.2-.2-.2 0-.2-.2-.5-.2s-.2-.2-.7-.2c-.2 0-.7 0-.7.2-.2.2-.5.2-.7.5-.2.2-.2.7-.2.9 0 .2-.2.7-.2.9s0 .7.2 1.2c.2.2.2.7.2.7.2.2.2.2.7.5.2.2.5.2.7.2s.5 0 .7-.2c.2 0 .2-.2.5-.2.2-.2.2-.2.2-.2.2 0 .2-.2.2-.2.2 0 .2 0 .2.2l.5.7c-.2.2-.5.5-.7.7-.2.2-.5.2-.7.2-.2.2-.5.2-.7.2-.2 0-.5 0-.7 0-.5 0-.9-.2-1.4-.2-.2-.2-.7-.5-1.2-.7-.2-.2-.5-.7-.7-1.4-.2-.5-.2-.9-.2-1.6 0-.5 0-1.2.2-1.4.2-.5.2-.7.7-1.4.2-.2.7-.7 1.2-.7.5-.2.9-.2 1.6-.2.5 0 .9.2 1.4.2.5.2.7.5 1.2.7l-.5 1"/><path d="m1073.2 249.7v-10.8h1.9v4.2c.2-.2.7-.5.9-.7.2-.2.7-.2 1.4-.2.5 0 .7 0 1.2.2.2.2.7.2.7.7.2.2.2.5.5.9.2.2.2.7.2 1.2v4.7h-1.9v-4.7c0-.5-.2-.7-.2-1.2-.2-.2-.5-.2-.9-.2-.2 0-.7 0-.7.2-.2.2-.5.2-.7.7v5.4c-.5-.2-2.4-.2-2.4-.4"/></g><g fill="#dadada"><path d="m249.2 435.9h8.9v28.4h-8.9z"/><path d="m236.7 448.1h8.9v16.2h-8.9z"/></g><path fill="#7ad65f" d="m224 455.4h8.9v8.7h-8.9z"/><g fill="#dadada"><path d="m765.3 675.7h8.9v22.8h-8.9z"/><path d="m752.7 685.5h8.9v12.9h-8.9z"/></g><path fill="#7ad65f" d="m740 691.4h8.9v7h-8.9z"/><g fill="#ff6e67"><path d="m765.3 762.1h8.9v22.8h-8.9z"/><path d="m765.3 778.3h8.9v6.8h-8.9z"/><path d="m752.7 772h8.9v12.9h-8.9z"/><path d="m740 778.1h8.9v7h-8.9z"/></g><g fill="#f2f2f2"><path d="m261.1 602.4h-121.8c-2.8 0-5.4-2.3-5.4-5.4v-14.8c0-2.8 2.3-5.4 5.4-5.4h121.9c2.8 0 5.4 2.3 5.4 5.4v14.8c-.1 3.1-2.6 5.4-5.5 5.4"/><path d="m443.1 602.4h-121.8c-2.8 0-5.4-2.3-5.4-5.4v-14.8c0-2.8 2.3-5.4 5.4-5.4h121.9c2.8 0 5.4 2.3 5.4 5.4v14.8c-.1 3.1-2.4 5.4-5.5 5.4"/></g><path fill="#dedede" d="m434.9 594.2l-6.1-6.1h12.2z"/><path d="m609.9 602.4h-121.9c-2.8 0-5.4-2.3-5.4-5.4v-14.8c0-2.8 2.3-5.4 5.4-5.4h121.9c2.8 0 5.4 2.3 5.4 5.4v14.8c.2 3.1-2.1 5.4-5.4 5.4" fill="#f2f2f2"/><g fill="#dedede"><path d="m601.9 594.2l-6.1-6.1h12z"/><path d="m254.8 594.2l-6.1-6.1h12z"/></g><g fill="#f7f7f7"><path d="m138.1 707.4h972.7v43.9h-972.7z"/><path d="m138.1 797.6h972.7v43.9h-972.7z"/></g><g fill="none" stroke="#dbe3e3" stroke-miterlimit="10"><path d="m391.2 628.7v213.5"/><path d="m654.7 628.7v213.5"/><path d="m868.4 627.8v213.4"/><path d="m996.2 628.7v213.5"/></g><path fill="#dadada" d="m765.3 717.2h8.9v22.8h-8.9z"/><g fill="#ffac59"><path d="m752.7 727.1h8.9v12.9h-8.9z"/><path d="m740 732.7h8.9v7h-8.9z"/></g><g fill="#ff6e67"><path d="m765.3 810h8.9v22.8h-8.9z"/><path d="m752.7 819.6h8.9v12.9h-8.9z"/><path d="m740 825.7h8.9v7h-8.9z"/></g><g fill="none" stroke-linecap="round" stroke-width="2" stroke-miterlimit="10"><path stroke="#4c9fdc" d="m354.8 692.8h-193.5"/><path stroke="#dadada" d="m316.6 683.2h-156.2"/><path stroke="#4c9fdc" d="m256.9 733.9h-95.6"/><path stroke="#dadada" d="m316.6 724.3h-156.2"/><path stroke="#4c9fdc" d="m331.4 779h-169.1"/><path stroke="#dadada" d="m346.2 769.4h-185.3"/><path stroke="#4c9fdc" d="m330.9 823.4h-169.1"/><path stroke="#dadada" d="m264 813.8h-103.6"/><path stroke="#4c9fdc" d="m496.2 692.8h-52.1"/><path stroke="#dadada" d="m546.2 683.2h-103.5"/><path stroke="#4c9fdc" d="m509.1 733.9h-65"/><path stroke="#dadada" d="m535 724.3h-92.3"/><path stroke="#4c9fdc" d="m528.6 780.6h-84.5"/><path stroke="#dadada" d="m546.2 770.8h-103.5"/><path stroke="#4c9fdc" d="m509.1 821.7h-65"/><g stroke="#dadada"><path d="m486.1 812.1h-43.4"/><path d="m1064.1 729.5h-25.6"/><path d="m1064.1 777.4h-25.6"/><path d="m1064.1 820.1h-25.6"/><path d="m945.9 686.9h-25.3"/><path d="m945.9 729.5h-25.3"/><path d="m945.9 777.4h-25.3"/><path d="m945.9 820.1h-25.3"/></g></g><path fill="#2995bb" d="m68.3 119.3h1110.8v52.1h-1110.8z"/><path fill="none" stroke="#e1e1e1" stroke-width="2" stroke-miterlimit="10" d="m68.8 70.2h1112v774.3h-1112z"/><g enable-background="new" fill="#fff"><path d="m121.4 143.5c0 3.5-.9 6.6-3.1 8.9-2.1 2.3-4.5 3.3-7.5 3.3s-5.4-1.2-7.5-3.3c-1.9-2.3-3.1-5.2-3.1-8.9v-.2c0-3.5.9-6.6 3.1-8.9 1.9-2.3 4.2-3.3 7.5-3.3 3.1 0 5.6 1.2 7.5 3.3 2.2 2.3 3.1 5.6 3.1 9.1m-1.9-.5c0-3.1-.7-5.6-2.3-7.7-1.6-2.1-3.5-3.1-6.1-3.1-2.6 0-4.5.9-6.1 3.1-1.6 2.1-2.3 4.5-2.3 7.7v.5c0 3.1.7 5.6 2.3 7.7 1.6 2.1 3.5 3.1 6.1 3.1 2.8 0 4.7-.9 6.1-3.1 1.6-2.1 2.3-4.5 2.3-7.7v-.5"/><path d="m124.2 139.1v-1.6h4.2l.2 2.8c.7-.9 1.4-1.9 2.3-2.3.9-.5 2.1-.9 3.3-.9 2.3 0 3.8.9 4.9 2.6 1.2 1.9 1.9 4 1.9 6.8v.5c0 2.8-.7 4.7-1.9 6.3-1.2 1.6-3.1 2.6-4.9 2.6-1.4 0-2.3-.2-3.3-.7-.9-.5-1.9-1.2-2.3-2.1v7.7l2.8.2v1.4h-7.4v-1.6l2.8-.2v-21.4c0-.1-2.6-.1-2.6-.1m15.3 7.7c0-2.3-.5-4-1.4-5.6-.9-1.6-2.3-2.3-4-2.3-1.4 0-2.6.2-3.1.9-.9.7-1.4 1.4-1.9 2.6v9.2c.5.9 1.2 1.9 2.1 2.3.9.5 2.1.9 3.1.9 1.9 0 3.1-.7 3.8-2.1.9-1.4 1.4-3.1 1.4-5.2v-.7"/><path d="m152.6 155.7c-2.3 0-4-.9-5.6-2.6-1.6-1.6-2.3-3.8-2.3-6.3v-.9c0-2.6.7-4.7 2.3-6.3 1.6-1.6 3.1-2.6 5.4-2.6 2.3 0 3.8.7 5.2 2.1 1.4 1.4 1.9 3.1 1.9 5.6v1.6h-12.7v.5c0 2.1.5 3.5 1.6 4.9 1.2 1.4 2.6 2.1 4.2 2.1 1.2 0 2.3-.2 3.1-.5.9-.2 1.6-.9 2.3-1.6l.9 1.4c-.7.7-1.6 1.4-2.6 1.6-1.1 1-2.5 1-3.7 1m-.2-16.9c-1.4 0-2.8.5-3.5 1.6-.9 1.2-1.6 2.6-1.9 4.2h10.3v-.5c0-1.6-.5-3.1-1.4-3.8-.9-.8-2.1-1.5-3.5-1.5"/><path d="m162.5 154.3l2.8-.2v-14.6l-2.8-.2v-1.6h4.5l.2 3.1c.7-1.2 1.4-2.1 2.3-2.6.9-.7 2.1-.9 3.3-.9 2.1 0 3.3.7 4.5 1.9.9 1.2 1.6 3.1 1.6 5.6v9.2l2.8.2v1.4h-7.5v-1.4l2.8-.2v-9.2c0-2.1-.5-3.3-1.2-4.2-.7-.9-1.9-1.4-3.1-1.4-1.4 0-2.6.5-3.3 1.2-.9.7-1.6 1.9-1.9 3.1v10.8l2.8.2v1.4h-7.3l-.5-1.6"/><path d="m209.5 138.6h-1.6l-.2-3.3c-.7-.7-1.4-1.4-2.6-1.9-1.2-.5-2.3-.7-3.5-.7-2.1 0-3.5.5-4.7 1.4-1.2.9-1.6 2.1-1.6 3.1s.5 2.3 1.6 3.1c.9.9 2.8 1.6 5.2 2.1 2.6.7 4.5 1.6 5.9 2.8 1.4 1.2 2.1 2.8 2.1 4.5 0 1.9-.7 3.3-2.3 4.5s-3.5 1.9-6.1 1.9c-1.9 0-3.3-.2-4.7-.9-1.6-.7-2.8-1.6-3.5-2.6v-4.2h1.6l.2 3.5c.7.9 1.6 1.4 2.8 1.9 1.2.5 2.3.7 3.5.7 1.9 0 3.3-.5 4.5-1.4s1.9-2.1 1.9-3.3c0-1.4-.5-2.6-1.6-3.1-.9-.9-2.8-1.6-5.2-2.3-2.8-.7-4.7-1.6-6.1-2.6-1.4-.9-2.1-2.6-2.1-4.2 0-1.9.7-3.3 2.3-4.5s3.5-1.9 5.9-1.9c1.9 0 3.3.2 4.7.9 1.4.7 2.6 1.4 3.1 2.6v4.2h.7v-.3z"/><path d="m213.2 154.3l2.8-.2v-14.6l-2.8-.2v-1.6h4.7v16.2l2.8.2v1.4h-7.5v-1.2m4.5-22.1h-2.1v-2.8h2.1v2.8"/><path d="m228.3 133.2v4.5h3.8v1.6h-3.8v11.7c0 1.2.2 2.1.7 2.6.5.5.9.7 1.9.7.2 0 .7 0 .9 0 .2 0 .7 0 1.2-.2l.2 1.6c-.2.2-.7.2-1.2.2-.5 0-.9.2-1.4.2-1.4 0-2.3-.5-3.1-1.2-.7-.9-1.2-2.1-1.2-3.8v-11.7h-3.1v-1.6h3.1v-4.5h1.9v-.1z"/><path d="m244 155.7c-2.3 0-4-.9-5.6-2.6-1.6-1.6-2.3-3.8-2.3-6.3v-.9c0-2.6.7-4.7 2.3-6.3 1.6-1.6 3.1-2.6 5.4-2.6s3.8.7 5.2 2.1c1.4 1.4 1.9 3.1 1.9 5.6v1.6h-12.7v.5c0 2.1.5 3.5 1.6 4.9 1.2 1.4 2.6 2.1 4.2 2.1 1.2 0 2.3-.2 3.1-.5.9-.2 1.6-.9 2.3-1.6l.9 1.4c-.7.7-1.6 1.4-2.6 1.6-1.4 1-2.5 1-3.7 1m-.2-16.9c-1.4 0-2.8.5-3.5 1.6-.9 1.2-1.6 2.6-1.9 4.2h10.3v-.5c0-1.6-.5-3.1-1.4-3.8-1-.8-2.4-1.5-3.5-1.5"/><path d="m276.4 144h-9.9v9.9h11.3l.2-3.5h1.9v5.2h-17.8v-1.4l2.8-.2v-21l-2.8-.2v-1.6h2.8 15.3v5.2h-1.9l-.2-3.5h-11.3v9.2h9.9l-.3 1.9"/><path d="m283.2 154.3l2.1-.2 5.6-7.5-5.4-7.3-2.1-.2v-1.4h6.1v1.6h-1.9l4.2 5.6 4.2-5.6h-1.9v-1.6h6.1v1.6l-2.1.2-5.4 7.3 5.6 7.5 2.1.2v1.4h-6.1v-1.4h1.9l-4.5-6.1-4.5 6.1h1.9v1.4h-6.1v-1.6z"/><path d="m302.9 139.1v-1.6h4.2l.2 2.8c.7-.9 1.4-1.9 2.3-2.3.9-.5 2.1-.9 3.3-.9 2.3 0 3.8.9 4.9 2.6 1.2 1.9 1.9 4 1.9 6.8v.5c0 2.8-.7 4.7-1.9 6.3-1.2 1.6-3.1 2.6-4.9 2.6-1.4 0-2.3-.2-3.3-.7-.9-.5-1.9-1.2-2.3-2.1v7.7l2.8.2v1.4h-7.5v-1.6l2.8-.2v-21.4c.1-.1-2.5-.1-2.5-.1m15.3 7.7c0-2.3-.5-4-1.4-5.6-.9-1.6-2.3-2.3-4-2.3-1.4 0-2.6.2-3.1.9-.9.7-1.4 1.4-1.9 2.6v9.2c.5.9 1.2 1.9 2.1 2.3.9.5 2.1.9 3.1.9 1.9 0 3.1-.7 3.8-2.1.9-1.4 1.4-3.1 1.4-5.2v-.7"/><path d="m322.9 131.1v-1.6h4.7v24.2l2.8.2v1.4h-7.5v-1.4l2.8-.2v-22.3l-2.8-.3"/><path d="m333 146.6c0-2.8.7-4.7 2.3-6.6 1.4-1.6 3.3-2.6 5.6-2.6 2.6 0 4.2.9 5.6 2.6 1.4 1.6 2.3 3.8 2.3 6.6v.5c0 2.8-.7 4.7-2.3 6.6-1.4 1.6-3.3 2.6-5.6 2.6-2.6 0-4.2-.9-5.9-2.6-1.4-1.6-2.3-3.8-2.3-6.6l.3-.5m1.9.2c0 2.1.5 3.8 1.6 5.2 1.2 1.4 2.6 2.1 4.2 2.1 1.9 0 3.3-.7 4.2-2.1.9-1.4 1.6-3.1 1.6-5.2v-.5c0-2.1-.5-3.8-1.6-5.2-1.2-1.4-2.6-2.1-4.2-2.1-1.9 0-3.3.7-4.2 2.1-1.2 1.4-1.6 3.1-1.6 5.2v.5"/><path d="m356.3 137.6l.2 3.1v.2c.5-1.2 1.2-2.1 2.1-2.6.9-.7 1.9-.9 3.1-.9.2 0 .5 0 .7 0 .2 0 .5 0 .7.2l-.2 1.9h-1.6c-1.4 0-2.3.5-3.1 1.2-.9.7-1.4 1.6-1.9 3.1v10.6l2.8.2v1.4h-7.3v-1.4l2.8-.2v-14.6l-2.8-.2v-1.9h2.8c0-.1 1.7-.1 1.7-.1"/><path d="m373.4 155.7c-2.3 0-4-.9-5.6-2.6s-2.3-3.8-2.3-6.3v-.9c0-2.6.7-4.7 2.3-6.3 1.6-1.6 3.1-2.6 5.4-2.6s3.8.7 5.2 2.1c1.4 1.4 1.9 3.1 1.9 5.6v1.6h-12.7v.5c0 2.1.5 3.5 1.6 4.9 1.2 1.4 2.6 2.1 4.2 2.1 1.2 0 2.3-.2 3.1-.5.9-.2 1.6-.9 2.3-1.6l.9 1.4c-.7.7-1.6 1.4-2.6 1.6-1.1 1-2.5 1-3.7 1m-.2-16.9c-1.4 0-2.8.5-3.5 1.6s-1.6 2.6-1.9 4.2h10.3v-.5c0-1.6-.5-3.1-1.4-3.8-1-.8-2.1-1.5-3.5-1.5"/><path d="m388 137.6l.2 3.1v.2c.5-1.2 1.2-2.1 2.1-2.6.9-.7 1.9-.9 3.1-.9.2 0 .5 0 .7 0 .2 0 .5 0 .7.2l-.2 1.9h-1.6c-1.4 0-2.3.5-3.1 1.2-.9.7-1.4 1.6-1.9 3.1v10.6l2.8.2v1.4h-7.3v-1.4l2.8-.2v-14.6l-2.8-.2v-1.9h2.8c0-.1 1.7-.1 1.7-.1"/></g><g fill="#707a7c"><path d="m148.4 348.8c0 .7-.1 1.4-.4 2.1-.2.6-.6 1.2-1 1.6-.5.5-1 .8-1.6 1-.6.2-1.3.4-2.1.4h-3.9v-10.2h3.9c.8 0 1.5.1 2.1.4.6.3 1.2.6 1.6 1.1.5.4.8 1 1 1.6.3.6.4 1.3.4 2m-1.9 0c0-.6-.1-1.1-.2-1.5-.2-.4-.4-.8-.6-1.1-.3-.3-.6-.5-1-.7-.4-.2-.8-.2-1.3-.2h-2v7.2h2c.5 0 .9-.1 1.3-.2.4-.2.7-.4 1-.7.3-.3.5-.7.6-1.1.1-.6.2-1.1.2-1.7"/><path d="m159.7 348.8c0 .7-.1 1.4-.4 2.1-.2.6-.6 1.2-1 1.7-.5.5-1 .8-1.6 1.1-.6.3-1.3.4-2.1.4-.8 0-1.5-.1-2.1-.4-.6-.3-1.2-.6-1.6-1.1-.5-.5-.8-1-1.1-1.7-.2-.6-.4-1.3-.4-2.1 0-.7.1-1.4.4-2.1.2-.6.6-1.2 1.1-1.7.5-.5 1-.8 1.6-1.1.6-.3 1.3-.4 2.1-.4.8 0 1.5.1 2.1.4.6.3 1.2.6 1.6 1.1.5.5.8 1 1 1.6.2.8.4 1.5.4 2.2m-2 0c0-.6-.1-1.1-.2-1.5-.1-.4-.4-.8-.6-1.1-.3-.3-.6-.5-1-.7-.4-.2-.8-.2-1.3-.2-.5 0-.9.1-1.3.2-.4.2-.7.4-1 .7-.3.3-.5.7-.6 1.1-.2.4-.2.9-.2 1.5 0 .6.1 1.1.2 1.5.2.4.4.8.6 1.1.3.3.6.5 1 .7.4.2.8.2 1.3.2.5 0 .9-.1 1.3-.2.4-.2.7-.4 1-.7.3-.3.5-.7.6-1.1.1-.4.2-.9.2-1.5"/><path d="m166.5 350.2c.1.2.1.3.2.5.1-.2.1-.3.2-.5.1-.2.1-.3.2-.5l3-5.6c0-.1.1-.1.1-.2 0 0 .1-.1.1-.1 0 0 .1 0 .2 0s.1 0 .2 0h1.4v10.2h-1.7v-6.6c0-.1 0-.3 0-.4s0-.3 0-.4l-3.1 5.8c-.1.1-.2.2-.3.3-.1.1-.2.1-.4.1h-.3c-.2 0-.3 0-.4-.1-.1-.1-.2-.2-.3-.3l-3.1-5.8c0 .2 0 .3 0 .5s0 .3 0 .4v6.6h-1.7v-10.2h1.4c.1 0 .2 0 .2 0 .1 0 .1 0 .2 0 0 0 .1 0 .1.1 0 0 .1.1.1.2l3 5.7c.5 0 .6.1.7.3"/><path d="m183.2 353.9h-1.5c-.2 0-.3 0-.4-.1-.1-.1-.2-.2-.2-.3l-.8-2.1h-4.2l-.8 2.1c0 .1-.1.2-.2.3-.1.1-.2.1-.4.1h-1.5l4-10.2h1.9l4.1 10.2m-6.6-3.8h3.2l-1.2-3.4c-.1-.2-.1-.3-.2-.5-.1-.2-.1-.4-.2-.7-.1.2-.1.5-.2.7-.1.2-.1.4-.2.5l-1.2 3.4"/><path d="m186.4 353.9h-1.9v-10.2h1.9v10.2"/><path d="m189.9 343.8c.1 0 .1 0 .2 0 0 0 .1.1.1.1 0 0 .1.1.1.2l5.3 6.8c0-.2 0-.3 0-.5 0-.2 0-.3 0-.4v-6.2h1.7v10.2h-1c-.2 0-.3 0-.4-.1-.1 0-.2-.1-.3-.3l-5.3-6.8c0 .2 0 .3 0 .4s0 .3 0 .4v6.3h-1.7v-10.2h1c.2.1.2.1.3.1"/><path d="m211 353.9h-1.5c-.2 0-.3 0-.4-.1-.1-.1-.2-.2-.2-.3l-.8-2.1h-4.2l-.8 2.1c0 .1-.1.2-.2.3-.1.1-.2.1-.4.1h-1.5l4-10.2h1.9l4.1 10.2m-6.6-3.8h3.2l-1.2-3.4c-.1-.2-.1-.3-.2-.5-.1-.2-.1-.4-.2-.7-.1.2-.1.5-.2.7-.1.2-.1.4-.2.5l-1.2 3.4"/><path d="m215.8 352.4c.4 0 .7-.1 1-.2.3-.1.5-.3.7-.5.2-.2.4-.5.5-.8.1-.3.2-.7.2-1.1v-6.1h1.9v6.1c0 .6-.1 1.2-.3 1.7-.2.5-.5 1-.8 1.3-.4.4-.8.7-1.3.9-.5.2-1.1.3-1.8.3-.7 0-1.2-.1-1.8-.3-.5-.2-1-.5-1.3-.9-.4-.4-.6-.8-.8-1.3-.2-.5-.3-1.1-.3-1.7v-6.1h1.9v6.1c0 .4.1.7.2 1.1.1.3.3.6.5.8.2.2.4.4.7.5.1.1.4.2.8.2"/><path d="m229.1 343.8v1.6h-3.1v8.6h-1.9v-8.6h-3.1v-1.6h8.1"/><path d="m238.9 353.9h-1.9v-4.5h-4.8v4.5h-1.9v-10.2h1.9v4.4h4.8v-4.4h1.9v10.2"/><path d="m250.8 348.8c0 .7-.1 1.4-.4 2.1-.2.6-.6 1.2-1 1.7-.5.5-1 .8-1.6 1.1-.6.3-1.3.4-2.1.4-.8 0-1.5-.1-2.1-.4-.6-.3-1.2-.6-1.6-1.1-.5-.5-.8-1-1.1-1.7-.2-.6-.4-1.3-.4-2.1 0-.7.1-1.4.4-2.1.2-.6.6-1.2 1.1-1.7.5-.5 1-.8 1.6-1.1.6-.3 1.3-.4 2.1-.4.8 0 1.5.1 2.1.4.6.3 1.2.6 1.6 1.1.5.5.8 1 1 1.6.2.8.4 1.5.4 2.2m-2 0c0-.6-.1-1.1-.2-1.5-.1-.4-.4-.8-.6-1.1-.3-.3-.6-.5-1-.7-.4-.2-.8-.2-1.3-.2s-.9.1-1.3.2c-.4.2-.7.4-1 .7-.3.3-.5.7-.6 1.1-.2.4-.2.9-.2 1.5 0 .6.1 1.1.2 1.5.2.4.4.8.6 1.1.3.3.6.5 1 .7.4.2.8.2 1.3.2s.9-.1 1.3-.2c.4-.2.7-.4 1-.7.3-.3.5-.7.6-1.1.1-.4.2-.9.2-1.5"/><path d="m254.2 350v4h-1.9v-10.2h3.1c.7 0 1.3.1 1.8.2.5.1.9.3 1.2.6.3.3.5.6.7.9.1.4.2.8.2 1.2 0 .3-.1.7-.2 1-.1.3-.2.6-.4.8-.2.2-.4.5-.7.7-.3.2-.6.3-1 .5.2.1.4.3.6.6l2.6 3.8h-1.7c-.2 0-.3 0-.4-.1-.1-.1-.2-.2-.3-.3l-2.1-3.3c-.1-.1-.2-.2-.3-.3-.1-.1-.2-.1-.4-.1h-.8m0-1.4h1.2c.4 0 .7 0 .9-.1.3-.1.5-.2.7-.4.2-.2.3-.3.4-.6.1-.2.1-.5.1-.7 0-.5-.2-.9-.5-1.2-.3-.3-.9-.4-1.6-.4h-1.2v3.4"/><path d="m263.6 353.9h-1.9v-10.2h1.9v10.2"/><path d="m273.1 343.8v1.6h-3.1v8.6h-1.9v-8.6h-3.1v-1.6h8.1"/><path d="m278.8 350v4h-1.9v-4l-3.7-6.2h1.7c.2 0 .3 0 .4.1.1.1.2.2.2.3l1.9 3.4c.1.2.2.4.3.6.1.2.2.4.2.5.1-.2.1-.4.2-.5.1-.2.2-.4.3-.6l1.9-3.4c.1-.1.1-.2.2-.3.1-.1.2-.1.4-.1h1.7l-3.8 6.2"/><path d="m143.7 457.4c0 .1-.1.1-.2.2-.1 0-.1.1-.2.1-.1 0-.2 0-.3-.1-.1-.1-.2-.1-.3-.2-.1-.1-.3-.1-.5-.2-.2-.1-.4-.1-.6-.1-.2 0-.4 0-.6.1-.2.1-.3.1-.4.2-.1.1-.2.2-.2.3-.1.1-.1.3-.1.4 0 .2.1.4.2.5.1.1.3.2.4.3.2.1.4.2.6.3.2.1.5.2.7.2.2.1.5.2.7.3.2.1.4.3.6.4s.3.4.4.6c.1.2.2.5.2.9 0 .4-.1.7-.2 1.1s-.3.6-.6.9c-.3.2-.6.4-.9.6-.4.1-.8.2-1.3.2-.3 0-.5 0-.8-.1-.3-.1-.5-.1-.8-.2-.2-.1-.5-.2-.7-.4-.2-.1-.4-.3-.6-.5l.5-.8c0-.1.1-.1.2-.1.1 0 .1-.1.2-.1.1 0 .2 0 .3.1.1.1.2.2.4.3.2.1.3.2.5.3.2.1.5.1.8.1.5 0 .8-.1 1-.3.2-.2.4-.5.4-.9 0-.2-.1-.4-.2-.5-.1-.1-.3-.3-.4-.4-.2-.1-.4-.2-.6-.2-.2-.1-.5-.1-.7-.2-.2-.1-.5-.2-.7-.3-.2-.1-.4-.3-.6-.4-.2-.2-.3-.4-.4-.7-.1-.3-.2-.6-.2-1 0-.3.1-.6.2-.9.1-.3.3-.6.5-.8.2-.2.5-.4.9-.5.3-.1.7-.2 1.2-.2.5 0 1 .1 1.4.2.4.2.8.4 1.1.7l-.3.8"/><path d="m147.1 461.3v3h-1.6v-8.5h2.8c.6 0 1.1.1 1.5.2s.8.3 1 .6c.3.2.5.5.6.9.1.3.2.7.2 1.1 0 .4-.1.8-.2 1.1-.1.3-.3.6-.6.9-.3.2-.6.4-1 .6-.4.1-.9.2-1.4.2h-1.3zm0-1.2h1.2c.3 0 .5 0 .8-.1.2-.1.4-.2.5-.3.1-.1.2-.3.3-.5s.1-.4.1-.6c0-.2 0-.4-.1-.6-.1-.2-.2-.3-.3-.5-.1-.1-.3-.2-.5-.3-.2-.1-.5-.1-.8-.1h-1.2v3"/><path d="m159.4 464.3h-1.2c-.1 0-.2 0-.3-.1-.1-.1-.2-.2-.2-.3l-.6-1.7h-3.5l-.6 1.7c0 .1-.1.2-.2.2-.1.1-.2.1-.3.1h-1.2l3.3-8.5h1.6l3.2 8.6m-5.5-3.2h2.7l-1-2.8c0-.1-.1-.3-.2-.4-.1-.2-.1-.4-.2-.6-.1.2-.1.4-.2.6-.1.2-.1.3-.2.5l-.9 2.7"/><path d="m164.7 461.2c.1.1.1.3.2.4.1-.1.1-.3.2-.4.1-.1.1-.3.2-.4l2.5-4.7c0-.1.1-.1.1-.1 0 0 .1-.1.1-.1 0 0 .1 0 .1 0 .1 0 .1 0 .2 0h1.2v8.5h-1.4v-5.5c0-.1 0-.2 0-.3 0-.1 0-.2 0-.4l-2.6 4.8c-.1.1-.1.2-.2.3-.1.1-.2.1-.3.1h-.2c-.1 0-.2 0-.3-.1-.1-.1-.2-.1-.2-.3l-2.6-4.8c0 .1 0 .3 0 .4 0 .1 0 .2 0 .3v5.5h-1.4v-8.5h1.2c.1 0 .1 0 .2 0 .1 0 .1 0 .1 0s.1 0 .1.1c0 0 .1.1.1.1l2.5 4.7c.1.1.1.2.2.4"/><path d="m178 457.4c0 .1-.1.1-.2.2-.1 0-.1.1-.2.1-.1 0-.2 0-.3-.1-.1-.1-.2-.1-.3-.2-.1-.1-.3-.1-.5-.2-.2-.1-.4-.1-.6-.1-.2 0-.4 0-.6.1-.2.1-.3.1-.4.2-.1.1-.2.2-.2.3-.1.1-.1.3-.1.4 0 .2.1.4.2.5.1.1.3.2.4.3.2.1.4.2.6.3.2.1.5.2.7.2.2.1.5.2.7.3.2.1.4.3.6.4s.3.4.4.6c.1.2.2.5.2.9 0 .4-.1.7-.2 1.1s-.3.6-.6.9c-.3.2-.6.4-.9.6-.4.1-.8.2-1.3.2-.3 0-.5 0-.8-.1-.3-.1-.5-.1-.8-.2-.2-.1-.5-.2-.7-.4-.2-.1-.4-.3-.6-.5l.5-.8c0-.1.1-.1.2-.1.1 0 .1-.1.2-.1.1 0 .2 0 .3.1s.2.2.4.3c.2.1.3.2.5.3.2.1.5.1.8.1.5 0 .8-.1 1-.3.2-.2.4-.5.4-.9 0-.2-.1-.4-.2-.5-.1-.1-.3-.3-.4-.4-.2-.1-.4-.2-.6-.2-.2-.1-.5-.1-.7-.2-.2-.1-.5-.2-.7-.3-.2-.1-.4-.3-.6-.4-.2-.2-.3-.4-.4-.7-.1-.3-.2-.6-.2-1 0-.3.1-.6.2-.9.1-.3.3-.6.5-.8.2-.2.5-.4.9-.5.3-.1.7-.2 1.2-.2.5 0 1 .1 1.4.2.4.2.8.4 1.1.7l-.3.8"/><path d="m185.6 462.3c.1 0 .2 0 .2.1l.6.7c-.3.4-.8.8-1.3 1-.5.2-1.1.3-1.8.3-.6 0-1.2-.1-1.7-.3-.5-.2-.9-.5-1.3-.9-.4-.4-.6-.8-.8-1.4-.2-.5-.3-1.1-.3-1.7 0-.6.1-1.2.3-1.8.2-.5.5-1 .9-1.4.4-.4.8-.7 1.4-.9.5-.2 1.1-.3 1.8-.3.6 0 1.2.1 1.7.3.5.2.9.5 1.2.8l-.5.7c0 0-.1.1-.1.1 0 0-.1.1-.2.1-.1 0-.2 0-.3-.1-.1-.1-.2-.1-.4-.2-.1-.1-.3-.2-.5-.2-.2-.1-.5-.1-.8-.1-.4 0-.8.1-1.1.2-.3.1-.6.3-.9.6-.2.3-.4.6-.6.9-.1.4-.2.8-.2 1.2 0 .5.1.9.2 1.3s.3.7.5.9c.2.3.5.4.8.6.3.1.7.2 1 .2.2 0 .4 0 .6 0 .2 0 .3-.1.5-.1.1-.1.3-.1.4-.2s.3-.2.4-.3c0 0 .1-.1.1-.1.1 0 .1 0 .2 0"/><path d="m195.7 460.1c0 .6-.1 1.2-.3 1.7-.2.5-.5 1-.9 1.4-.4.4-.8.7-1.4.9-.5.2-1.1.3-1.8.3-.6 0-1.2-.1-1.8-.3-.5-.2-1-.5-1.4-.9-.4-.4-.7-.8-.9-1.4-.2-.5-.3-1.1-.3-1.7 0-.6.1-1.2.3-1.7.2-.5.5-1 .9-1.4.4-.4.8-.7 1.4-.9.5-.2 1.1-.3 1.8-.3.6 0 1.2.1 1.8.3.5.2 1 .5 1.4.9.4.4.7.8.9 1.4.2.5.3 1 .3 1.7m-1.6 0c0-.5-.1-.9-.2-1.3-.1-.4-.3-.7-.5-.9-.2-.3-.5-.5-.8-.6-.3-.1-.7-.2-1.1-.2-.4 0-.8.1-1.1.2-.3.1-.6.3-.8.6-.2.3-.4.6-.5.9-.1.4-.2.8-.2 1.3 0 .5.1.9.2 1.3.1.4.3.7.5.9.2.3.5.5.8.6.3.1.7.2 1.1.2.4 0 .8-.1 1.1-.2.3-.1.6-.3.8-.6.2-.3.4-.6.5-.9.2-.4.2-.9.2-1.3"/><path d="m198.6 461v3.3h-1.6v-8.5h2.6c.6 0 1.1.1 1.5.2.4.1.8.3 1 .5.3.2.5.5.6.8.1.3.2.6.2 1 0 .3 0 .6-.1.8-.1.3-.2.5-.4.7-.2.2-.4.4-.6.5-.2.2-.5.3-.8.4.2.1.4.3.5.5l2.1 3.1h-1.4c-.1 0-.3 0-.3-.1-.1-.1-.2-.1-.2-.2l-1.8-2.7c-.1-.1-.1-.2-.2-.2-.1 0-.2-.1-.4-.1h-.7m0-1.1h1c.3 0 .6 0 .8-.1.2-.1.4-.2.5-.3.1-.1.2-.3.3-.5.1-.2.1-.4.1-.6 0-.4-.1-.8-.4-1-.3-.2-.7-.3-1.3-.3h-1v2.8"/><path d="m210 455.8v1.3h-3.8v2.4h3v1.2h-3v2.4h3.8v1.3h-5.4v-8.5h5.4z"/><path d="m310.5 350.4v3.6h-1.9v-10.2h3.3c.7 0 1.3.1 1.8.2.5.2.9.4 1.2.7.3.3.6.6.7 1 .2.4.2.8.2 1.3 0 .5-.1.9-.2 1.4-.2.4-.4.8-.7 1.1-.3.3-.7.5-1.2.7-.5.2-1.1.2-1.7.2h-1.5m0-1.5h1.4c.3 0 .7 0 .9-.1.3-.1.5-.2.6-.4.2-.2.3-.4.4-.6.1-.2.1-.5.1-.8 0-.3 0-.5-.1-.7-.1-.2-.2-.4-.4-.6-.2-.2-.4-.3-.6-.4-.3-.1-.6-.1-.9-.1h-1.4v3.7"/><path d="m325.2 353.9h-1.5c-.2 0-.3 0-.4-.1-.1-.1-.2-.2-.2-.3l-.8-2.1h-4.2l-.8 2.1c0 .1-.1.2-.2.3-.1.1-.2.1-.4.1h-1.5l4-10.2h1.9l4.1 10.2m-6.6-3.8h3.2l-1.2-3.4c-.1-.2-.1-.3-.2-.5-.1-.2-.1-.4-.2-.7-.1.2-.1.5-.2.7-.1.2-.1.4-.2.5l-1.2 3.4"/><path d="m330.6 352.5c.4 0 .8 0 1.1-.1.3-.1.6-.2.9-.3v-1.9h-1.3c-.1 0-.2 0-.3-.1-.1-.1-.1-.2-.1-.3v-1.1h3.4v4.1c-.3.2-.5.4-.8.5-.3.1-.6.3-.9.3-.3.1-.7.2-1 .2-.4 0-.8.1-1.2.1-.7 0-1.4-.1-2.1-.4-.6-.3-1.2-.6-1.6-1.1-.5-.5-.8-1-1.1-1.6-.3-.6-.4-1.3-.4-2.1 0-.8.1-1.5.4-2.1.2-.6.6-1.2 1.1-1.6.5-.5 1-.8 1.7-1.1.7-.3 1.4-.4 2.2-.4.8 0 1.6.1 2.2.4.6.2 1.1.6 1.5 1l-.5.9c-.1.2-.3.3-.4.3-.1 0-.2 0-.3-.1-.2-.1-.3-.2-.5-.3-.2-.1-.3-.2-.5-.2-.2-.1-.4-.1-.6-.2-.2 0-.5-.1-.8-.1-.5 0-1 .1-1.4.3-.4.2-.8.4-1 .7-.3.3-.5.7-.7 1.1-.2.4-.2.9-.2 1.5 0 .6.1 1.1.2 1.6.2.5.4.8.7 1.2.3.3.6.6 1.1.7.3.2.7.2 1.2.2"/><path d="m342.5 343.8v1.5h-4.5v2.8h3.6v1.5h-3.6v2.9h4.5v1.5h-6.4v-10.2h6.4"/><path d="m355.8 353.9h-1.5c-.2 0-.3 0-.4-.1-.1-.1-.2-.2-.2-.3l-.8-2.1h-4.2l-.8 2.1c0 .1-.1.2-.2.3-.1.1-.2.1-.4.1h-1.5l4-10.2h1.9l4.1 10.2m-6.6-3.8h3.2l-1.2-3.4c-.1-.2-.1-.3-.2-.5-.1-.2-.1-.4-.2-.7-.1.2-.1.5-.2.7-.1.2-.1.4-.2.5l-1.2 3.4"/><path d="m360.6 352.4c.4 0 .7-.1 1-.2.3-.1.5-.3.7-.5.2-.2.4-.5.5-.8.1-.3.2-.7.2-1.1v-6.1h1.9v6.1c0 .6-.1 1.2-.3 1.7-.2.5-.5 1-.8 1.3-.4.4-.8.7-1.3.9-.5.2-1.1.3-1.8.3-.7 0-1.2-.1-1.8-.3-.5-.2-1-.5-1.3-.9-.4-.4-.6-.8-.8-1.3-.2-.5-.3-1.1-.3-1.7v-6.1h1.9v6.1c0 .4.1.7.2 1.1.1.3.3.6.5.8.2.2.4.4.7.5.1.1.5.2.8.2"/><path d="m374 343.8v1.6h-3.1v8.6h-1.9v-8.6h-3.1v-1.6h8.1"/><path d="m383.8 353.9h-1.9v-4.5h-4.8v4.5h-1.9v-10.2h1.9v4.4h4.8v-4.4h1.9v10.2"/><path d="m395.6 348.8c0 .7-.1 1.4-.4 2.1s-.6 1.2-1 1.7c-.5.5-1 .8-1.6 1.1-.6.3-1.3.4-2.1.4-.8 0-1.5-.1-2.1-.4-.6-.3-1.2-.6-1.6-1.1-.5-.5-.8-1-1.1-1.7s-.4-1.3-.4-2.1c0-.7.1-1.4.4-2.1.2-.6.6-1.2 1.1-1.7.5-.5 1-.8 1.6-1.1.6-.3 1.3-.4 2.1-.4.8 0 1.5.1 2.1.4.6.3 1.2.6 1.6 1.1.5.5.8 1 1 1.6.3.8.4 1.5.4 2.2m-2 0c0-.6-.1-1.1-.2-1.5-.1-.4-.4-.8-.6-1.1-.3-.3-.6-.5-1-.7-.4-.2-.8-.2-1.3-.2-.5 0-.9.1-1.3.2-.4.2-.7.4-1 .7-.3.3-.5.7-.6 1.1-.2.4-.2.9-.2 1.5 0 .6.1 1.1.2 1.5.2.4.4.8.6 1.1.3.3.6.5 1 .7.4.2.8.2 1.3.2.5 0 .9-.1 1.3-.2.4-.2.7-.4 1-.7.3-.3.5-.7.6-1.1.2-.4.2-.9.2-1.5"/><path d="m399 350v4h-1.9v-10.2h3.1c.7 0 1.3.1 1.8.2s.9.3 1.2.6c.3.3.5.6.7.9.1.4.2.8.2 1.2 0 .3-.1.7-.2 1-.1.3-.2.6-.4.8-.2.2-.4.5-.7.7-.3.2-.6.3-1 .5.2.1.4.3.6.6l2.6 3.8h-1.7c-.2 0-.3 0-.4-.1-.1-.1-.2-.2-.3-.3l-2.1-3.3c-.1-.1-.2-.2-.3-.3s-.2-.1-.4-.1h-.8m0-1.4h1.2c.4 0 .7 0 .9-.1.3-.1.5-.2.7-.4.2-.2.3-.3.4-.6.1-.2.1-.5.1-.7 0-.5-.2-.9-.5-1.2-.3-.3-.9-.4-1.6-.4h-1.2v3.4"/><path d="m408.4 353.9h-1.9v-10.2h1.9v10.2"/><path d="m417.9 343.8v1.6h-3.1v8.6h-1.8v-8.6h-3.1v-1.6h8"/><path d="m423.6 350v4h-1.9v-4l-3.7-6.2h1.7c.2 0 .3 0 .4.1.1.1.2.2.2.3l1.9 3.4c.1.2.2.4.3.6.1.2.2.4.2.5.1-.2.1-.4.2-.5.1-.2.2-.4.3-.6l1.9-3.4c.1-.1.1-.2.2-.3.1-.1.2-.1.4-.1h1.7l-3.8 6.2"/><path d="m485.8 350.3c0 .6-.1 1.1-.2 1.6-.1.5-.4.9-.6 1.2-.3.3-.6.6-1 .7-.4.2-.9.3-1.5.3-.3 0-.5 0-.7 0-.2 0-.5-.1-.8-.1l.1-1.1c0-.1 0-.2.1-.2.1-.1.2-.1.3-.1.1 0 .2 0 .3 0 .1 0 .3 0 .5 0 .3 0 .5 0 .7-.1.2-.1.4-.2.5-.4.1-.2.2-.4.3-.7.1-.3.1-.6.1-1v-6.6h1.9v6.5"/><path d="m492 352.4c.4 0 .7-.1 1-.2.3-.1.5-.3.7-.5.2-.2.4-.5.5-.8.1-.3.2-.7.2-1.1v-6.1h1.9v6.1c0 .6-.1 1.2-.3 1.7-.2.5-.5 1-.8 1.3-.4.4-.8.7-1.3.9-.5.2-1.1.3-1.8.3-.7 0-1.2-.1-1.8-.3-.5-.2-1-.5-1.3-.9-.4-.4-.6-.8-.8-1.3-.2-.5-.3-1.1-.3-1.7v-6.1h1.9v6.1c0 .4.1.7.2 1.1.1.3.3.6.5.8.2.2.4.4.7.5.1.1.4.2.8.2"/><path d="m503.6 345.6c-.1.1-.1.2-.2.2-.1 0-.1.1-.2.1-.1 0-.2 0-.3-.1-.1-.1-.3-.2-.4-.2-.2-.1-.3-.2-.6-.2-.2-.1-.5-.1-.8-.1-.3 0-.5 0-.7.1-.2.1-.4.2-.5.3-.1.1-.2.2-.3.4-.1.2-.1.3-.1.5 0 .2.1.4.2.6.1.2.3.3.5.4.2.1.5.2.8.3.3.1.6.2.9.3.3.1.6.2.9.4.3.1.5.3.8.5.2.2.4.5.5.8.1.3.2.7.2 1.1 0 .5-.1.9-.2 1.3s-.4.8-.7 1.1c-.3.3-.7.5-1.1.7-.4.2-.9.3-1.5.3-.3 0-.6 0-1-.1-.3-.1-.6-.2-.9-.3-.3-.1-.6-.3-.8-.4-.3-.2-.5-.3-.7-.5l.5-.9c.1-.1.1-.1.2-.2.1 0 .2-.1.2-.1.1 0 .2 0 .4.1.1.1.3.2.5.3.2.1.4.2.7.3s.6.1.9.1c.5 0 1-.1 1.3-.4s.4-.6.4-1.1c0-.3-.1-.5-.2-.7-.1-.2-.3-.3-.5-.4-.2-.1-.5-.2-.8-.3-.3-.1-.6-.2-.9-.3s-.6-.2-.9-.3c-.3-.1-.5-.3-.8-.5-.2-.2-.4-.5-.5-.8-.1-.3-.2-.7-.2-1.2 0-.4.1-.7.2-1.1.1-.4.4-.7.6-.9.3-.3.6-.5 1-.7.4-.2.9-.2 1.4-.2.6 0 1.2.1 1.7.3.5.2.9.5 1.3.8l-.3.7"/><path d="m512.9 343.8v1.6h-3.1v8.6h-1.9v-8.6h-3.1v-1.6h8.1"/><path d="m512.5 349h3.6v1.5h-3.6v-1.5"/><path d="m526.9 348.8c0 .7-.1 1.4-.4 2.1-.2.6-.6 1.2-1 1.6-.5.5-1 .8-1.6 1-.6.2-1.3.4-2.1.4h-3.9v-10.2h3.9c.8 0 1.5.1 2.1.4.6.3 1.2.6 1.6 1.1.5.4.8 1 1 1.6.3.6.4 1.3.4 2m-1.9 0c0-.6-.1-1.1-.2-1.5-.2-.4-.4-.8-.6-1.1-.3-.3-.6-.5-1-.7-.4-.2-.8-.2-1.3-.2h-2v7.2h2c.5 0 .9-.1 1.3-.2.4-.2.7-.4 1-.7.3-.3.5-.7.6-1.1.1-.6.2-1.1.2-1.7"/><path d="m530.6 353.9h-1.9v-10.2h1.9v10.2"/><path d="m538.3 345.6c-.1.1-.1.2-.2.2-.1 0-.1.1-.2.1-.1 0-.2 0-.3-.1-.1-.1-.3-.2-.4-.2-.2-.1-.3-.2-.6-.2-.2-.1-.5-.1-.8-.1-.3 0-.5 0-.7.1-.2.1-.4.2-.5.3-.1.1-.2.2-.3.4-.1.2-.1.3-.1.5 0 .2.1.4.2.6.1.2.3.3.5.4.2.1.5.2.8.3.3.1.6.2.9.3.3.1.6.2.9.4.3.1.5.3.8.5.2.2.4.5.5.8s.2.7.2 1.1c0 .5-.1.9-.2 1.3s-.4.8-.7 1.1c-.3.3-.7.5-1.1.7-.4.2-.9.3-1.5.3-.3 0-.6 0-1-.1-.3-.1-.6-.2-.9-.3-.3-.1-.6-.3-.8-.4-.3-.2-.5-.3-.7-.5l.5-.9c.1-.1.1-.1.2-.2.1 0 .2-.1.2-.1.1 0 .2 0 .4.1s.3.2.5.3c.2.1.4.2.7.3.3.1.6.1.9.1.5 0 1-.1 1.3-.4s.4-.6.4-1.1c0-.3-.1-.5-.2-.7-.1-.2-.3-.3-.5-.4-.2-.1-.5-.2-.8-.3-.3-.1-.6-.2-.9-.3s-.6-.2-.9-.3c-.3-.1-.5-.3-.8-.5-.2-.2-.4-.5-.5-.8-.1-.3-.2-.7-.2-1.2 0-.4.1-.7.2-1.1.1-.4.4-.7.6-.9s.6-.5 1-.7c.4-.2.9-.2 1.4-.2.6 0 1.2.1 1.7.3.5.2.9.5 1.3.8l-.3.7"/><path d="m547.4 351.5c.1 0 .2 0 .3.1l.7.8c-.4.5-.9.9-1.5 1.2-.6.3-1.3.4-2.2.4-.8 0-1.4-.1-2-.4-.6-.3-1.1-.6-1.5-1.1-.4-.5-.8-1-1-1.6-.2-.6-.3-1.3-.3-2.1 0-.8.1-1.5.4-2.1s.6-1.2 1.1-1.6c.5-.5 1-.8 1.7-1.1.6-.3 1.3-.4 2.1-.4.8 0 1.4.1 2 .4.6.2 1.1.6 1.5 1l-.6.9c0 .1-.1.1-.1.1-.1 0-.1.1-.2.1-.1 0-.2 0-.3-.1-.1-.1-.3-.2-.4-.3-.2-.1-.4-.2-.7-.3-.3-.1-.6-.1-1-.1-.5 0-.9.1-1.3.3-.4.2-.7.4-1 .7-.3.3-.5.7-.7 1.1-.2.4-.2.9-.2 1.5 0 .6.1 1.1.2 1.5.2.4.4.8.7 1.1.3.3.6.5 1 .7.4.2.8.2 1.2.2.3 0 .5 0 .7 0 .2 0 .4-.1.6-.1.2-.1.3-.1.5-.2.2-.1.3-.2.5-.4 0 0 .1-.1.1-.1-.4-.1-.3-.1-.3-.1"/><path d="m559.6 348.8c0 .7-.1 1.4-.4 2.1-.2.6-.6 1.2-1 1.7-.5.5-1 .8-1.6 1.1-.6.3-1.3.4-2.1.4-.8 0-1.5-.1-2.1-.4-.6-.3-1.2-.6-1.6-1.1-.5-.5-.8-1-1.1-1.7s-.4-1.3-.4-2.1c0-.7.1-1.4.4-2.1.2-.6.6-1.2 1.1-1.7.5-.5 1-.8 1.6-1.1.6-.3 1.3-.4 2.1-.4.8 0 1.5.1 2.1.4.6.3 1.2.6 1.6 1.1.5.5.8 1 1 1.6.3.8.4 1.5.4 2.2m-1.9 0c0-.6-.1-1.1-.2-1.5-.1-.4-.4-.8-.6-1.1-.3-.3-.6-.5-1-.7-.4-.2-.8-.2-1.3-.2-.5 0-.9.1-1.3.2-.4.2-.7.4-1 .7s-.5.7-.6 1.1c-.2.4-.2.9-.2 1.5 0 .6.1 1.1.2 1.5.2.4.4.8.6 1.1.3.3.6.5 1 .7.4.2.8.2 1.3.2.5 0 .9-.1 1.3-.2.4-.2.7-.4 1-.7.3-.3.5-.7.6-1.1.1-.4.2-.9.2-1.5"/><path d="m559.7 343.8h1.5c.2 0 .3 0 .4.1.1.1.2.2.2.3l2.4 6.2c.1.2.2.4.2.7.1.2.1.5.2.8.1-.5.2-1 .4-1.4l2.4-6.2c0-.1.1-.2.2-.3.1-.1.2-.1.4-.1h1.5l-4.1 10.2h-1.7l-4-10.3"/><path d="m577.2 343.8v1.5h-4.5v2.8h3.6v1.5h-3.6v2.9h4.5v1.5h-6.4v-10.2h6.4"/><path d="m580.8 350v4h-1.9v-10.2h3.1c.7 0 1.3.1 1.8.2s.9.3 1.2.6c.3.3.5.6.7.9.1.4.2.8.2 1.2 0 .3-.1.7-.2 1-.1.3-.2.6-.4.8-.2.2-.4.5-.7.7-.3.2-.6.3-1 .5.2.1.4.3.6.6l2.6 3.8h-1.7c-.2 0-.3 0-.4-.1-.1-.1-.2-.2-.3-.3l-2.1-3.3c-.1-.1-.2-.2-.3-.3-.1-.1-.2-.1-.4-.1h-.8m0-1.4h1.2c.4 0 .7 0 .9-.1.3-.1.5-.2.7-.4.2-.2.3-.3.4-.6.1-.2.1-.5.1-.7 0-.5-.2-.9-.5-1.2-.3-.3-.9-.4-1.6-.4h-1.2v3.4"/><path d="m594.5 343.8v1.5h-4.5v2.8h3.6v1.5h-3.6v2.9h4.5v1.5h-6.5v-10.2h6.5"/><path d="m605.1 348.8c0 .7-.1 1.4-.4 2.1-.2.6-.6 1.2-1 1.6-.5.5-1 .8-1.6 1-.6.2-1.3.4-2.1.4h-3.9v-10.2h3.9c.8 0 1.5.1 2.1.4.6.3 1.2.6 1.6 1.1.5.4.8 1 1 1.6.3.6.4 1.3.4 2m-1.9 0c0-.6-.1-1.1-.2-1.5-.2-.4-.4-.8-.6-1.1-.3-.3-.6-.5-1-.7-.4-.2-.8-.2-1.3-.2h-2v7.2h2c.5 0 .9-.1 1.3-.2.4-.2.7-.4 1-.7.3-.3.5-.7.6-1.1.1-.6.2-1.1.2-1.7"/><path d="m669.5 343.8v1.5h-4.5v2.8h3.6v1.5h-3.6v2.9h4.5v1.5h-6.5v-10.2h6.5"/><path d="m676.6 345.6c-.1.1-.1.2-.2.2-.1 0-.1.1-.2.1-.1 0-.2 0-.3-.1-.1-.1-.3-.2-.4-.2-.2-.1-.3-.2-.6-.2-.2-.1-.5-.1-.8-.1-.3 0-.5 0-.7.1-.2.1-.4.2-.5.3-.1.1-.2.2-.3.4-.1.2-.1.3-.1.5 0 .2.1.4.2.6.1.2.3.3.5.4.2.1.5.2.8.3.3.1.6.2.9.3.3.1.6.2.9.4.3.1.5.3.8.5.2.2.4.5.5.8.1.3.2.7.2 1.1 0 .5-.1.9-.2 1.3-.2.4-.4.8-.7 1.1-.3.3-.7.5-1.1.7-.4.2-.9.3-1.5.3-.3 0-.6 0-1-.1-.3-.1-.6-.2-.9-.3-.3-.1-.6-.3-.8-.4-.2-.2-.5-.3-.7-.5l.5-.9c.1-.1.1-.1.2-.2.1 0 .2-.1.2-.1.1 0 .2 0 .4.1.1.1.3.2.5.3.2.1.4.2.7.3.2.1.6.1.9.1.5 0 1-.1 1.3-.4.3-.3.4-.6.4-1.1 0-.3-.1-.5-.2-.7-.1-.2-.3-.3-.5-.4-.2-.1-.5-.2-.8-.3-.3-.1-.6-.2-.9-.3s-.6-.2-.9-.3c-.3-.1-.5-.3-.8-.5-.2-.2-.4-.5-.5-.8-.1-.3-.2-.7-.2-1.2 0-.4.1-.7.2-1.1.1-.4.4-.7.6-.9s.6-.5 1-.7c.4-.2.9-.2 1.4-.2.6 0 1.2.1 1.7.3s.9.5 1.3.8l-.3.7"/><path d="m685.9 343.8v1.6h-3.1v8.6h-1.9v-8.6h-3.1v-1.6h8.1"/><path d="m695 353.9h-1.5c-.2 0-.3 0-.4-.1-.1-.1-.2-.2-.2-.3l-.8-2.1h-4.2l-.8 2.1c0 .1-.1.2-.2.3-.1.1-.2.1-.4.1h-1.5l4-10.2h1.9l4.1 10.2m-6.6-3.8h3.2l-1.2-3.4c-.1-.2-.1-.3-.2-.5-.1-.2-.1-.4-.2-.7-.1.2-.1.5-.2.7-.1.2-.1.4-.2.5l-1.2 3.4"/><path d="m696 353.9v-10.2h3.5c.7 0 1.2.1 1.7.2.5.1.9.3 1.2.5s.5.5.7.9c.1.3.2.7.2 1.1 0 .2 0 .5-.1.7-.1.2-.2.4-.3.6-.1.2-.3.4-.6.5-.2.2-.5.3-.8.4 1.4.3 2.1 1.1 2.1 2.3 0 .4-.1.8-.2 1.2-.2.4-.4.7-.7.9-.3.3-.7.5-1.2.6-.5.2-1 .2-1.6.2h-3.9zm1.9-5.7h1.5c.6 0 1.1-.1 1.5-.4.3-.2.5-.6.5-1.1 0-.5-.1-.9-.4-1.1-.3-.2-.8-.3-1.4-.3h-1.6v2.9zm0 1.3v3h1.9c.4 0 .6 0 .9-.1.2-.1.4-.2.6-.3.1-.1.2-.3.3-.5.1-.2.1-.4.1-.6 0-.2 0-.4-.1-.6-.1-.2-.2-.3-.3-.5-.2-.1-.3-.2-.6-.3-.2-.1-.5-.1-.9-.1h-1.9"/><path d="m707.1 352.4h4.1v1.6h-6v-10.2h1.9v8.6"/><path d="m714.6 353.9h-1.9v-10.2h1.9v10.2"/><path d="m722.4 345.6c-.1.1-.1.2-.2.2-.1 0-.1.1-.2.1-.1 0-.2 0-.3-.1-.1-.1-.3-.2-.4-.2-.2-.1-.3-.2-.6-.2-.2-.1-.5-.1-.8-.1-.3 0-.5 0-.7.1-.2.1-.4.2-.5.3-.1.1-.2.2-.3.4-.1.2-.1.3-.1.5 0 .2.1.4.2.6.1.2.3.3.5.4.2.1.5.2.8.3.3.1.6.2.9.3.3.1.6.2.9.4.3.1.5.3.8.5.2.2.4.5.5.8.1.3.2.7.2 1.1 0 .5-.1.9-.2 1.3-.2.4-.4.8-.7 1.1-.3.3-.7.5-1.1.7-.4.2-.9.3-1.5.3-.3 0-.6 0-1-.1-.3-.1-.6-.2-.9-.3-.3-.1-.6-.3-.8-.4-.2-.2-.5-.3-.7-.5l.5-.9c.1-.1.1-.1.2-.2.1 0 .2-.1.2-.1.1 0 .2 0 .4.1.1.1.3.2.5.3.2.1.4.2.7.3.2.1.6.1.9.1.5 0 1-.1 1.3-.4.3-.3.4-.6.4-1.1 0-.3-.1-.5-.2-.7-.1-.2-.3-.3-.5-.4-.2-.1-.5-.2-.8-.3-.3-.1-.6-.2-.9-.3s-.6-.2-.9-.3c-.3-.1-.5-.3-.8-.5-.2-.2-.4-.5-.5-.8-.1-.3-.2-.7-.2-1.2 0-.4.1-.7.2-1.1.1-.4.4-.7.6-.9.3-.3.6-.5 1-.7.4-.2.9-.2 1.4-.2.6 0 1.2.1 1.7.3s.9.5 1.3.8l-.3.7"/><path d="m733.1 353.9h-1.9v-4.5h-4.8v4.5h-1.9v-10.2h1.9v4.4h4.8v-4.4h1.9v10.2"/><path d="m741.6 343.8v1.5h-4.6v2.8h3.6v1.5h-3.6v2.9h4.5v1.5h-6.4v-10.2h6.5"/><path d="m752.2 348.8c0 .7-.1 1.4-.4 2.1-.2.6-.6 1.2-1.1 1.6-.4.5-1 .8-1.6 1-.6.2-1.3.4-2.1.4h-3.9v-10.2h3.9c.8 0 1.5.1 2.1.4.6.3 1.2.6 1.6 1.1.5.4.8 1 1.1 1.6.3.6.4 1.3.4 2m-1.9 0c0-.6-.1-1.1-.2-1.5-.2-.4-.4-.8-.6-1.1-.3-.3-.6-.5-1-.7-.4-.2-.8-.2-1.3-.2h-2v7.2h2c.5 0 .9-.1 1.3-.2.4-.2.7-.4 1-.7.3-.3.5-.7.6-1.1.1-.6.2-1.1.2-1.7"/><path d="m758.3 352.4h4.1v1.6h-6v-10.2h1.9v8.6"/><path d="m765.9 353.9h-1.9v-10.2h1.9v10.2"/><path d="m769.4 343.8c.1 0 .1 0 .2 0 0 0 .1.1.1.1 0 0 .1.1.1.2l5.3 6.8c0-.2 0-.3 0-.5 0-.2 0-.3 0-.4v-6.2h1.7v10.2h-1c-.1 0-.3 0-.4-.1-.1 0-.2-.1-.3-.3l-5.3-6.8c0 .2 0 .3 0 .4 0 .1 0 .3 0 .4v6.3h-1.7v-10.2h1c.1.1.2.1.3.1"/><path d="m780.8 348h.4c.2 0 .3 0 .4-.1.1 0 .2-.1.3-.2l2.8-3.6c.1-.2.2-.3.4-.3.1-.1.3-.1.5-.1h1.6l-3.4 4.2c-.1.1-.2.2-.3.3-.1.1-.2.2-.3.2.2.1.3.1.4.2.1.1.2.2.4.4l3.5 4.8h-1.7c-.2 0-.4 0-.5-.1-.1-.1-.2-.2-.3-.3l-2.9-3.8c-.1-.1-.2-.2-.3-.3-.1-.1-.3-.1-.5-.1h-.6v4.5h-1.9v-10.2h1.9v4.5z"/><path d="m794.1 345.6c-.1.1-.1.2-.2.2-.1 0-.1.1-.2.1-.1 0-.2 0-.3-.1-.1-.1-.3-.2-.4-.2-.2-.1-.3-.2-.6-.2-.2-.1-.5-.1-.8-.1-.3 0-.5 0-.7.1-.2.1-.4.2-.5.3-.1.1-.2.2-.3.4-.1.2-.1.3-.1.5 0 .2.1.4.2.6.1.2.3.3.5.4s.5.2.8.3.6.2.9.3c.3.1.6.2.9.4.3.1.5.3.8.5.2.2.4.5.5.8.1.3.2.7.2 1.1 0 .5-.1.9-.2 1.3-.2.4-.4.8-.7 1.1-.3.3-.7.5-1.1.7-.4.2-.9.3-1.5.3-.3 0-.6 0-1-.1-.3-.1-.6-.2-.9-.3-.3-.1-.6-.3-.8-.4-.3-.2-.5-.3-.7-.5l.6-.9c.1-.1.1-.1.2-.2.1 0 .2-.1.2-.1.1 0 .2 0 .4.1.1.1.3.2.5.3.2.1.4.2.7.3.3.1.6.1.9.1.5 0 1-.1 1.3-.4s.4-.6.4-1.1c0-.3-.1-.5-.2-.7-.1-.2-.3-.3-.5-.4-.2-.1-.5-.2-.8-.3-.3-.1-.6-.2-.9-.3s-.6-.2-.9-.3c-.3-.1-.5-.3-.8-.5-.2-.2-.4-.5-.5-.8-.1-.3-.2-.7-.2-1.2 0-.4.1-.7.2-1.1.1-.4.4-.7.6-.9.3-.3.6-.5 1-.7.4-.2.9-.2 1.4-.2.6 0 1.2.1 1.7.3.5.2.9.5 1.3.8l-.4.7"/><path d="m138.7 315l1-.1 4.1-11.6h2.7l4 11.6 1 .1v1.6h-4.6v-1.6l.9-.2-.6-1.8h-4.3l-.6 1.8.9.2v1.6h-4.6v-1.6zm4.8-4h3.1l-1.5-4.7h-.1l-1.5 4.7"/><path d="m158.3 315.3c-.3.5-.7.8-1.2 1.1-.5.3-1 .4-1.6.4-1 0-1.9-.3-2.5-1-.6-.7-.9-1.7-.9-3.1v-4.1l-1.1-.3v-1.6h1.1 2.7v6c0 .7.1 1.2.4 1.6.2.3.6.5 1.1.5.4 0 .8-.1 1.1-.2s.6-.3.8-.6v-5.3l-1.2-.3v-1.6h1.2 2.7v8l1.2.3v1.6h-3.6l-.2-1.4"/><path d="m167.1 304.2v2.4h1.7v1.9h-1.7v5.1c0 .4.1.7.2.8s.4.2.6.2c.2 0 .3 0 .5 0 .1 0 .3 0 .5-.1l.2 1.9c-.3.1-.6.2-.9.2s-.6.1-1 .1c-.9 0-1.6-.3-2.1-.8-.5-.5-.7-1.3-.7-2.4v-5.1h-1.5v-1.9h1.5v-2.4h2.7z"/><path d="m170 315l1.3-.3v-10.5l-1.4-.3v-1.6h4.1v5.7c.3-.5.7-.8 1.1-1.1s1-.4 1.5-.4c1 0 1.9.3 2.4 1 .6.7.9 1.8.9 3.2v4l1.3.3v1.6h-5.1v-1.6l1.2-.3v-4c0-.8-.1-1.3-.4-1.6-.3-.3-.7-.5-1.2-.5-.4 0-.7.1-1 .2-.3.1-.5.3-.7.6v5.4l1.2.3v1.6h-5.2v-1.7"/><path d="m182 311.5c0-1.5.4-2.7 1.2-3.6.8-.9 2-1.4 3.4-1.4 1.5 0 2.6.5 3.4 1.4.8.9 1.2 2.2 1.2 3.6v.2c0 1.5-.4 2.7-1.2 3.6-.8.9-2 1.4-3.4 1.4-1.5 0-2.6-.5-3.5-1.4s-1.2-2.2-1.2-3.6v-.2zm2.6.2c0 .9.2 1.6.5 2.2.3.5.8.8 1.5.8.7 0 1.2-.3 1.5-.8s.5-1.3.5-2.2v-.2c0-.9-.2-1.6-.5-2.2s-.8-.8-1.5-.8-1.2.3-1.5.8c-.3.6-.5 1.3-.5 2.2v.2"/><path d="m192.7 315l1.3-.3v-6.2l-1.4-.3v-1.6h3.9l.1 1.4c.2-.5.5-.9.9-1.2.4-.3.8-.4 1.3-.4.1 0 .3 0 .4 0s.3 0 .4.1l-.3 2.4h-1.1c-.4 0-.7.1-1 .2-.3.2-.5.4-.6.7v4.8l1.3.3v1.6h-5.2v-1.5"/><path d="m200.3 315l1.3-.3v-6.2l-1.4-.3v-1.6h4.1v8l1.3.3v1.6h-5.3v-1.5m4-10.7h-2.7v-2h2.7v2"/><path d="m210.4 304.2v2.4h1.7v1.9h-1.7v5.1c0 .4.1.7.2.8s.4.2.6.2c.2 0 .3 0 .5 0 .1 0 .3 0 .5-.1l.2 1.9c-.3.1-.6.2-.9.2s-.6.1-1 .1c-.9 0-1.6-.3-2.1-.8-.5-.5-.7-1.3-.7-2.4v-5.1h-1.5v-1.9h1.5v-2.4h2.7z"/><path d="m223.7 308.3l-.9.1-3.7 9.7c-.3.7-.7 1.3-1.2 1.8-.5.5-1.2.7-2.2.7-.2 0-.4 0-.6-.1-.2 0-.4-.1-.7-.2l.3-2c.1 0 .2 0 .3 0s.2 0 .2 0c.4 0 .8-.1 1-.3s.4-.5.6-.8l.3-.8-3.1-8.2-.9-.1v-1.6h4.9v1.6l-1.1.2 1.4 4 .1.7h.1l1.6-4.7-1.1-.2v-1.6h4.9v1.8z"/><path d="m138.8 520.9v-1.6h5.5v1.6l-1.4.3v9.6l1.4.3v1.6h-5.5v-1.7l1.4-.3v-9.6l-1.4-.2"/><path d="m145.3 531l1.3-.3v-6.2l-1.4-.3v-1.6h3.9l.1 1.4c.3-.5.7-.9 1.2-1.2.5-.3 1-.4 1.6-.4 1 0 1.8.3 2.3.9.6.6.8 1.6.8 3v4.3l1.3.3v1.6h-5.1v-1.5l1.1-.3v-4.3c0-.7-.1-1.1-.4-1.4-.3-.3-.7-.4-1.2-.4-.4 0-.7.1-1 .2-.3.1-.5.3-.7.6v5.3l1.1.3v1.6h-5v-1.6z"/><path d="m167 528c0 1.5-.3 2.7-1 3.6-.7.9-1.6 1.3-2.9 1.3-.6 0-1.1-.1-1.5-.4-.4-.2-.8-.6-1.1-1.1l-.2 1.2h-2.3v-12.4l-1.4-.3v-1.6h4.1v5.4c.3-.4.6-.7 1-.9.4-.2.9-.3 1.4-.3 1.3 0 2.2.5 2.9 1.4.7.9 1 2.2 1 3.8v.3m-2.7-.2c0-1-.1-1.7-.4-2.3-.3-.6-.8-.8-1.5-.8-.4 0-.8.1-1.1.3-.3.2-.5.4-.7.7v4.2c.2.3.4.5.7.7.3.2.6.2 1.1.2.7 0 1.2-.2 1.4-.7s.4-1.2.4-2.1v-.2z"/><path d="m168.2 527.6c0-1.5.4-2.7 1.2-3.6s2-1.4 3.4-1.4c1.5 0 2.6.5 3.4 1.4.8.9 1.2 2.2 1.2 3.6v.2c0 1.5-.4 2.7-1.2 3.6-.8.9-2 1.4-3.4 1.4-1.5 0-2.6-.5-3.5-1.4-.8-.9-1.2-2.2-1.2-3.6v-.2zm2.7.2c0 .9.2 1.6.5 2.2.3.5.8.8 1.5.8.7 0 1.2-.3 1.5-.8s.5-1.3.5-2.2v-.2c0-.9-.2-1.6-.5-2.2-.3-.6-.8-.8-1.5-.8s-1.2.3-1.5.8c-.3.6-.5 1.3-.5 2.2v.2"/><path d="m185.7 531.4c-.3.5-.7.8-1.2 1.1-.5.2-1 .4-1.6.4-1 0-1.9-.3-2.5-1-.6-.7-.9-1.7-.9-3.1v-4.1l-1.1-.3v-1.6h1.1 2.7v6c0 .7.1 1.2.4 1.6.2.3.6.5 1.1.5.4 0 .8-.1 1.1-.2.3-.1.6-.3.8-.6v-5.3l-1.2-.3v-1.6h1.2 2.7v8l1.2.3v1.6h-3.6l-.2-1.4"/><path d="m190.3 531l1.3-.3v-6.2l-1.4-.3v-1.6h3.9l.1 1.4c.3-.5.7-.9 1.2-1.2.5-.3 1-.4 1.6-.4 1 0 1.8.3 2.3.9.6.6.8 1.6.8 3v4.3l1.3.3v1.6h-5.1v-1.5l1.1-.3v-4.3c0-.7-.1-1.1-.4-1.4-.3-.3-.7-.4-1.2-.4-.4 0-.7.1-1 .2-.3.1-.5.3-.7.6v5.3l1.1.3v1.6h-5v-1.6z"/><path d="m208.7 531.4c-.3.5-.7.8-1.1 1-.4.2-.9.4-1.5.4-1.2 0-2.2-.4-2.8-1.3-.7-.9-1-2.1-1-3.5v-.2c0-1.6.3-2.8 1-3.8.7-1 1.6-1.4 2.9-1.4.5 0 .9.1 1.3.3.4.2.7.5 1 .9v-3.6l-1.4-.3v-1.6h1.4 2.7v12.4l1.3.3v1.6h-3.6l-.2-1.2m-3.7-3.4c0 .9.1 1.6.4 2.1.3.5.8.7 1.4.7.4 0 .7-.1 1-.2.3-.2.5-.4.7-.7v-4.2c-.2-.3-.4-.6-.7-.7-.3-.2-.6-.3-1-.3-.7 0-1.1.3-1.4.9-.3.6-.4 1.3-.4 2.3v.1"/><path d="m217.9 532.7v-1.7l1.4-.3v-9.6l-1.4-.3v-1.6h1.4 2.7 1.4v1.6l-1.4.3v9.4h3.8l.1-1.7h2v3.7h-10z"/><path d="m228.9 531l1.3-.3v-6.2l-1.4-.3v-1.6h4.1v8l1.3.3v1.6h-5.3v-1.5m4-10.6h-2.7v-2h2.7v2"/><path d="m234.9 531l1.3-.3v-6.2l-1.4-.3v-1.6h3.9l.1 1.4c.3-.5.7-.9 1.2-1.2.5-.3 1-.4 1.6-.4 1 0 1.8.3 2.3.9.6.6.8 1.6.8 3v4.3l1.3.3v1.6h-5v-1.5l1.1-.3v-4.3c0-.7-.1-1.1-.4-1.4-.3-.3-.7-.4-1.2-.4-.4 0-.7.1-1 .2-.3.1-.5.3-.7.6v5.3l1.1.3v1.6h-5v-1.6"/><path d="m246.7 520v-1.6h4.1v8.3h.6l1.5-2.2-.9-.1v-1.6h4.9v1.6l-1.2.3-1.8 2.5 2.5 3.8 1 .2v1.6h-4.6v-1.8l.6-.1-1.5-2.5h-1.1v2.3l1.2.3v1.6h-5.1v-1.6l1.3-.3v-10.5l-1.5-.2"/><path d="m266.6 526.1h-1.8l-.3-1.2c-.2-.1-.4-.3-.7-.4-.3-.1-.6-.1-.9-.1-.5 0-.8.1-1.1.3-.3.2-.4.5-.4.8 0 .3.1.5.4.7.3.2.8.4 1.6.5 1.2.2 2.1.6 2.7 1.1.6.5.9 1.1.9 2 0 .9-.4 1.6-1.2 2.2-.8.6-1.8.8-3 .8-.8 0-1.5-.1-2.1-.3-.6-.2-1.2-.5-1.7-1v-2.2h1.9l.4 1.3c.2.1.4.2.7.3s.6.1.9.1c.5 0 1-.1 1.2-.3.3-.2.4-.5.4-.8 0-.3-.1-.5-.4-.8-.3-.2-.8-.4-1.6-.6-1.2-.2-2.1-.6-2.6-1.1-.6-.5-.9-1.1-.9-1.9 0-.8.3-1.6 1-2.2.7-.6 1.7-.9 2.9-.9.8 0 1.5.1 2.2.3.7.2 1.2.5 1.6.8l-.1 2.6"/><path d="m487.6 303.2c1.5 0 2.7.4 3.6 1.2.9.8 1.3 1.8 1.3 3.1 0 1.3-.4 2.3-1.3 3.1-.9.8-2.1 1.2-3.6 1.2h-2.3v3l1.4.3v1.6h-5.5v-1.7l1.4-.3v-9.6l-1.4-.3v-1.6h1.4 5m-2.3 6.5h2.3c.7 0 1.3-.2 1.7-.6.4-.4.6-.9.6-1.6 0-.6-.2-1.2-.6-1.6-.4-.4-.9-.6-1.7-.6h-2.3v4.4"/><path d="m499.7 316.6c-.1-.2-.1-.3-.2-.5-.1-.2-.1-.3-.1-.5-.3.4-.7.7-1.2.9s-1 .3-1.6.3c-1 0-1.7-.3-2.3-.8s-.9-1.2-.9-2.2c0-.9.4-1.6 1.1-2.2.7-.5 1.8-.8 3.3-.8h1.4v-1c0-.5-.1-.8-.4-1.1-.3-.3-.7-.4-1.2-.4-.3 0-.6 0-.8.1-.2.1-.4.2-.6.3l-.2 1.1h-2v-2.2c.5-.3 1.1-.6 1.7-.8.6-.2 1.3-.3 2.1-.3 1.2 0 2.2.3 3 .9.8.6 1.2 1.5 1.2 2.6v4.1c0 .2 0 .3 0 .4 0 .1 0 .3 0 .4l.8.1v1.6h-3.1m-2.3-1.8c.4 0 .8-.1 1.1-.3.3-.2.6-.4.8-.7v-1.5h-1.4c-.6 0-1 .1-1.3.4-.3.3-.4.6-.4 1 0 .3.1.6.3.8.2.2.5.3.9.3"/><path d="m503.8 311.7c0-1.6.3-2.8 1-3.8s1.6-1.4 2.9-1.4c.6 0 1 .1 1.5.4.4.2.8.6 1.1 1.1l.2-1.2h2.3v9.6c0 1.3-.4 2.4-1.2 3.1-.8.8-2 1.2-3.4 1.2-.5 0-1-.1-1.6-.2-.6-.1-1.1-.3-1.6-.6l.5-1.9c.4.2.9.3 1.3.4.4.1.9.2 1.4.2.7 0 1.1-.2 1.5-.6.3-.4.5-1 .5-1.7v-.7c-.3.4-.6.7-1 .9s-.9.3-1.4.3c-1.2 0-2.2-.4-2.8-1.3s-1-2.1-1-3.5v-.3zm2.7.2c0 .9.1 1.6.4 2.1s.8.7 1.4.7c.4 0 .8-.1 1-.2.3-.2.5-.4.7-.7v-4.3c-.2-.3-.4-.5-.7-.7-.3-.2-.6-.2-1-.2-.7 0-1.1.3-1.4.9-.3.6-.5 1.3-.5 2.3v.1z"/><path d="m519.2 316.8c-1.4 0-2.6-.5-3.4-1.4-.9-.9-1.3-2.1-1.3-3.5v-.4c0-1.5.4-2.7 1.2-3.6s1.9-1.4 3.3-1.4c1.3 0 2.4.4 3.1 1.2.7.8 1.1 1.9 1.1 3.3v1.5h-5.9v.1c0 .7.3 1.2.7 1.6.4.4.9.6 1.6.6.6 0 1.1-.1 1.5-.2.4-.1.8-.3 1.3-.6l.7 1.7c-.4.3-.9.6-1.6.8-.8.2-1.5.3-2.3.3m-.3-8.2c-.5 0-.9.2-1.2.6-.3.4-.5.9-.5 1.5h3.3v-.2c0-.6-.1-1-.4-1.4-.2-.4-.6-.5-1.2-.5"/><path d="m529 316.6v-1.6l1.4-.3v-9.6l-1.4-.3v-1.6h1.4 2.7 1.4v1.6l-1.4.3v9.4h3.8l.1-1.7h2v3.7h-10z"/><path d="m539.9 315l1.3-.3v-6.2l-1.4-.3v-1.6h4.1v8l1.3.3v1.6h-5.3v-1.5m4-10.7h-2.7v-2h2.7v2"/><path d="m545.9 315l1.3-.3v-6.2l-1.4-.3v-1.6h3.9l.1 1.4c.3-.5.7-.9 1.2-1.2.5-.3 1-.4 1.6-.4 1 0 1.8.3 2.3.9.6.6.8 1.6.8 3v4.3l1.3.3v1.6h-5v-1.5l1.1-.3v-4.3c0-.7-.1-1.1-.4-1.4-.3-.3-.7-.4-1.2-.4-.4 0-.7.1-1 .2-.3.1-.5.3-.7.6v5.3l1.1.3v1.6h-5v-1.6"/><path d="m557.7 303.9v-1.6h4.1v8.3h.6l1.5-2.2-.9-.1v-1.6h4.9v1.6l-1.2.3-1.7 2.4 2.5 3.8 1 .2v1.6h-4.6v-1.6l.6-.1-1.5-2.5h-1.1v2.3l1.2.3v1.6h-5.1v-1.6l1.3-.3v-10.5l-1.6-.3"/><path d="m586.9 306.7l-3.6 9.9h-1.8l-3.6-9.9h-.1l.3 5.9v2.1l1.4.3v1.6h-5.5v-1.6l1.4-.3v-9.6l-1.4-.3v-1.6h1.4 3.5l3.4 9.8h.1l3.4-9.8h4.9v1.6l-1.4.3v9.6l1.4.3v1.6h-5.5v-1.6l1.4-.3v-2.1l.3-5.9"/><path d="m596.5 316.8c-1.4 0-2.6-.5-3.4-1.4-.9-.9-1.3-2.1-1.3-3.5v-.4c0-1.5.4-2.7 1.2-3.6.8-1 1.9-1.4 3.3-1.4 1.3 0 2.4.4 3.1 1.2.7.8 1.1 1.9 1.1 3.3v1.5h-5.9v.1c0 .7.3 1.2.7 1.6.4.4.9.6 1.6.6.6 0 1.1-.1 1.5-.2.4-.1.8-.3 1.3-.6l.7 1.7c-.4.3-.9.6-1.6.8-.8.2-1.5.3-2.3.3m-.2-8.2c-.5 0-.9.2-1.2.6-.3.4-.5.9-.5 1.5h3.3v-.2c0-.6-.1-1-.4-1.4s-.7-.5-1.2-.5"/><path d="m605.7 304.2v2.4h1.7v1.9h-1.7v5.1c0 .4.1.7.2.8.2.2.4.2.6.2.2 0 .3 0 .5 0 .1 0 .3 0 .5-.1l.2 1.9c-.3.1-.6.2-.9.2-.3 0-.6.1-1 .1-.9 0-1.6-.3-2.1-.8-.5-.5-.7-1.3-.7-2.4v-5.1h-1.5v-1.9h1.5v-2.4h2.7z"/><path d="m609 315l1.3-.3v-6.2l-1.4-.3v-1.6h3.9l.1 1.4c.2-.5.5-.9.9-1.2.4-.3.8-.4 1.3-.4.1 0 .3 0 .4 0 .2 0 .3 0 .4.1l-.3 2.4h-1.1c-.4 0-.7.1-1 .2-.3.2-.5.4-.6.7v4.8l1.3.3v1.6h-5.2v-1.5"/><path d="m616.6 315l1.3-.3v-6.2l-1.4-.3v-1.6h4.1v8l1.3.3v1.6h-5.3v-1.5m4-10.7h-2.7v-2h2.7v2"/><path d="m627.4 314.7c.5 0 .9-.1 1.1-.4.3-.3.4-.7.4-1.1h2.4v.1c0 1-.4 1.8-1.1 2.5-.8.7-1.7 1-2.9 1-1.5 0-2.6-.5-3.4-1.4-.8-.9-1.2-2.1-1.2-3.6v-.3c0-1.5.4-2.7 1.2-3.6.8-.9 2-1.4 3.5-1.4.8 0 1.5.1 2.2.4.6.2 1.2.6 1.6 1v2.7h-2.2l-.4-1.6c-.1-.1-.3-.2-.5-.3-.2-.1-.4-.1-.7-.1-.8 0-1.3.3-1.6.8-.3.6-.5 1.3-.5 2.1v.3c0 .9.1 1.6.4 2.1.5.6 1 .8 1.7.8"/><path d="m640.7 310.1h-1.8l-.3-1.2c-.2-.1-.4-.3-.7-.4-.3-.1-.6-.1-.9-.1-.5 0-.8.1-1.1.3s-.4.5-.4.8c0 .3.1.5.4.7.3.2.8.4 1.6.5 1.2.2 2.1.6 2.7 1.1.6.5.9 1.1.9 2 0 .9-.4 1.6-1.2 2.2-.8.6-1.8.8-3 .8-.8 0-1.5-.1-2.1-.3-.6-.2-1.2-.5-1.7-1v-2.2h1.9l.4 1.3c.2.1.4.2.7.3s.6.1.9.1c.5 0 1-.1 1.2-.3s.4-.5.4-.8c0-.3-.1-.5-.4-.8-.3-.2-.8-.4-1.6-.6-1.2-.2-2.1-.6-2.6-1.1-.6-.5-.9-1.1-.9-1.9 0-.8.3-1.5 1-2.2.7-.6 1.7-.9 2.9-.9.8 0 1.5.1 2.2.3.7.2 1.2.5 1.6.8l-.1 2.6"/><path d="m883.1 303.2c1.5 0 2.7.4 3.6 1.2.9.8 1.3 1.8 1.3 3.1 0 1.3-.4 2.3-1.3 3.1-.9.8-2.1 1.2-3.6 1.2h-2.3v3l1.4.3v1.6h-5.5v-1.7l1.4-.3v-9.6l-1.4-.3v-1.6h1.4 5m-2.3 6.5h2.3c.7 0 1.3-.2 1.7-.6.4-.4.6-.9.6-1.6 0-.6-.2-1.2-.6-1.6-.4-.4-.9-.6-1.7-.6h-2.3v4.4"/><path d="m895.1 316.6c-.1-.2-.1-.3-.2-.5-.1-.2-.1-.3-.1-.5-.3.4-.7.7-1.2.9-.5.2-1 .3-1.6.3-1 0-1.7-.3-2.3-.8-.6-.5-.9-1.2-.9-2.2 0-.9.4-1.6 1.1-2.2.7-.5 1.8-.8 3.3-.8h1.4v-1c0-.5-.1-.8-.4-1.1-.3-.3-.7-.4-1.2-.4-.3 0-.6 0-.8.1-.2.1-.4.2-.6.3l-.2 1.1h-2v-2.2c.5-.3 1.1-.6 1.7-.8.6-.2 1.3-.3 2.1-.3 1.2 0 2.2.3 3 .9.8.6 1.2 1.5 1.2 2.6v4.1c0 .2 0 .3 0 .4 0 .1 0 .3 0 .4l.8.1v1.6h-3.1m-2.3-1.8c.4 0 .8-.1 1.1-.3.3-.2.6-.4.8-.7v-1.5h-1.4c-.6 0-1 .1-1.3.4-.3.3-.4.6-.4 1 0 .3.1.6.3.8.2.2.5.3.9.3"/><path d="m899.3 311.7c0-1.6.3-2.8 1-3.8.7-1 1.6-1.4 2.9-1.4.6 0 1 .1 1.5.4.4.2.8.6 1.1 1.1l.2-1.2h2.3v9.6c0 1.3-.4 2.4-1.2 3.1-.8.8-2 1.2-3.4 1.2-.5 0-1-.1-1.6-.2-.6-.1-1.1-.3-1.6-.6l.5-1.9c.4.2.9.3 1.3.4.4.1.9.2 1.4.2.7 0 1.1-.2 1.5-.6.3-.4.5-1 .5-1.7v-.7c-.3.4-.6.7-1 .9-.4.2-.9.3-1.4.3-1.2 0-2.2-.4-2.8-1.3-.7-.9-1-2.1-1-3.5v-.3zm2.7.2c0 .9.1 1.6.4 2.1.3.5.8.7 1.4.7.4 0 .8-.1 1-.2.3-.2.5-.4.7-.7v-4.3c-.2-.3-.4-.5-.7-.7-.3-.2-.6-.2-1-.2-.7 0-1.1.3-1.4.9-.3.6-.5 1.3-.5 2.3v.1z"/><path d="m914.6 316.8c-1.4 0-2.6-.5-3.4-1.4-.9-.9-1.3-2.1-1.3-3.5v-.4c0-1.5.4-2.7 1.2-3.6.8-1 1.9-1.4 3.3-1.4 1.3 0 2.4.4 3.1 1.2.7.8 1.1 1.9 1.1 3.3v1.5h-5.9v.1c.1.7.3 1.2.7 1.6.4.4.9.6 1.6.6.6 0 1.1-.1 1.5-.2.4-.1.8-.3 1.3-.6l.7 1.7c-.4.3-.9.6-1.6.8-.7.2-1.5.3-2.3.3m-.2-8.2c-.5 0-.9.2-1.2.6-.3.4-.5.9-.5 1.5h3.3v-.2c0-.6-.1-1-.4-1.4s-.7-.5-1.2-.5"/><path d="m934.6 307.5h-2l-.3-1.8c-.2-.1-.6-.3-1-.4-.4-.1-.9-.2-1.4-.2-.7 0-1.3.2-1.7.5-.4.3-.6.7-.6 1.2 0 .5.2.8.6 1.1.4.3 1.1.6 2.2.9 1.5.4 2.6 1 3.4 1.6s1.1 1.6 1.1 2.7c0 1.1-.5 2-1.4 2.7-.9.7-2.1 1-3.6 1-1.1 0-2-.2-2.9-.5s-1.6-.8-2.1-1.4v-2.8h2.1l.3 1.9c.3.2.6.4 1.1.5.5.1 1 .2 1.5.2.7 0 1.3-.2 1.7-.4.4-.3.6-.7.6-1.2 0-.5-.2-.9-.5-1.2-.4-.3-1-.6-1.9-.9-1.6-.5-2.8-1-3.6-1.6-.8-.6-1.2-1.5-1.2-2.6 0-1.1.5-2 1.4-2.7.9-.7 2.1-1 3.5-1.1 1 0 2 .2 2.8.5.8.3 1.6.7 2.1 1.2v2.8z"/><path d="m935.9 311.5c0-1.5.4-2.7 1.2-3.6.8-.9 2-1.4 3.4-1.4 1.5 0 2.6.5 3.4 1.4.8.9 1.2 2.2 1.2 3.6v.2c0 1.5-.4 2.7-1.2 3.6-.8.9-2 1.4-3.4 1.4-1.5 0-2.6-.5-3.5-1.4-.8-.9-1.2-2.2-1.2-3.6v-.2zm2.7.2c0 .9.2 1.6.5 2.2.3.5.8.8 1.5.8.7 0 1.2-.3 1.5-.8.3-.6.5-1.3.5-2.2v-.2c0-.9-.2-1.6-.5-2.2-.3-.6-.8-.8-1.5-.8s-1.2.3-1.5.8c-.3.6-.5 1.3-.5 2.2v.2"/><path d="m951.1 314.7c.5 0 .9-.1 1.1-.4.3-.3.4-.7.4-1.1h2.4v.1c0 1-.4 1.8-1.1 2.5-.8.7-1.7 1-2.9 1-1.5 0-2.6-.5-3.4-1.4-.8-.9-1.2-2.1-1.2-3.6v-.3c0-1.5.4-2.7 1.2-3.6.8-.9 2-1.4 3.5-1.4.8 0 1.5.1 2.2.4.6.2 1.2.6 1.6 1v2.7h-2.2l-.4-1.6c-.1-.1-.3-.2-.5-.3-.2-.1-.4-.1-.7-.1-.8 0-1.3.3-1.6.8s-.5 1.3-.5 2.1v.3c0 .9.1 1.6.4 2.1.5.6 1 .8 1.7.8"/><path d="m956.2 315l1.3-.3v-6.2l-1.4-.3v-1.6h4.1v8l1.3.3v1.6h-5.3v-1.5m4-10.7h-2.7v-2h2.7v2"/><path d="m968.7 316.6c-.1-.2-.1-.3-.2-.5-.1-.2-.1-.3-.1-.5-.3.4-.7.7-1.2.9-.5.2-1 .3-1.6.3-1 0-1.7-.3-2.3-.8-.6-.5-.9-1.2-.9-2.2 0-.9.4-1.6 1.1-2.2.7-.5 1.8-.8 3.3-.8h1.4v-1c0-.5-.1-.8-.4-1.1-.3-.3-.7-.4-1.2-.4-.3 0-.6 0-.8.1-.2.1-.4.2-.6.3l-.2 1.1h-2v-2.2c.5-.3 1.1-.6 1.7-.8.6-.2 1.3-.3 2.1-.3 1.2 0 2.2.3 3 .9.8.6 1.2 1.5 1.2 2.6v4.1c0 .2 0 .3 0 .4 0 .1 0 .3 0 .4l.8.1v1.6h-3.1m-2.3-1.8c.4 0 .8-.1 1.1-.3.3-.2.6-.4.8-.7v-1.5h-1.4c-.6 0-1 .1-1.3.4-.3.3-.4.6-.4 1 0 .3.1.6.3.8.2.2.5.3.9.3"/><path d="m972.4 303.9v-1.6h4.1v12.4l1.3.3v1.6h-5.3v-1.6l1.3-.3v-10.5l-1.4-.3"/><path d="m996.1 306.7l-3.6 9.9h-1.8l-3.6-9.9h-.1l.3 5.9v2.1l1.4.3v1.6h-5.5v-1.6l1.4-.3v-9.6l-1.4-.3v-1.6h1.4 3.5l3.4 9.8h.1l3.4-9.8h4.9v1.6l-1.4.3v9.6l1.4.3v1.6h-5.5v-1.6l1.4-.3v-2.1l.3-5.9"/><path d="m1005.7 316.8c-1.4 0-2.6-.5-3.4-1.4-.9-.9-1.3-2.1-1.3-3.5v-.4c0-1.5.4-2.7 1.2-3.6.8-1 1.9-1.4 3.3-1.4 1.3 0 2.4.4 3.1 1.2.7.8 1.1 1.9 1.1 3.3v1.5h-5.9v.1c.1.7.3 1.2.7 1.6.4.4.9.6 1.6.6.6 0 1.1-.1 1.5-.2.4-.1.8-.3 1.3-.6l.7 1.7c-.4.3-.9.6-1.6.8-.7.2-1.5.3-2.3.3m-.2-8.2c-.5 0-.9.2-1.2.6-.3.4-.5.9-.5 1.5h3.3v-.2c0-.6-.1-1-.4-1.4-.3-.4-.7-.5-1.2-.5"/><path d="m1014.9 304.2v2.4h1.7v1.9h-1.7v5.1c0 .4.1.7.2.8.2.2.4.2.6.2.2 0 .3 0 .5 0 .1 0 .3 0 .5-.1l.2 1.9c-.3.1-.6.2-.9.2-.3 0-.6.1-1 .1-.9 0-1.6-.3-2.1-.8-.5-.5-.7-1.3-.7-2.4v-5.1h-1.5v-1.9h1.5v-2.4h2.7z"/><path d="m1018.2 315l1.3-.3v-6.2l-1.4-.3v-1.6h3.9l.1 1.4c.2-.5.5-.9.9-1.2.4-.3.8-.4 1.3-.4.1 0 .3 0 .4 0 .2 0 .3 0 .4.1l-.3 2.4h-1.1c-.4 0-.7.1-1 .2-.3.2-.5.4-.6.7v4.8l1.3.3v1.6h-5.2v-1.5"/><path d="m1025.8 315l1.3-.3v-6.2l-1.4-.3v-1.6h4.1v8l1.3.3v1.6h-5.3v-1.5m4-10.7h-2.7v-2h2.7v2"/><path d="m1036.6 314.7c.5 0 .9-.1 1.1-.4.3-.3.4-.7.4-1.1h2.4v.1c0 1-.4 1.8-1.1 2.5-.8.7-1.7 1-2.9 1-1.5 0-2.6-.5-3.4-1.4-.8-.9-1.2-2.1-1.2-3.6v-.3c0-1.5.4-2.7 1.2-3.6.8-.9 2-1.4 3.5-1.4.8 0 1.5.1 2.2.4.6.2 1.2.6 1.6 1v2.7h-2.2l-.4-1.6c-.1-.1-.3-.2-.5-.3-.2-.1-.4-.1-.7-.1-.8 0-1.3.3-1.6.8s-.5 1.3-.5 2.1v.3c0 .9.1 1.6.4 2.1.5.6 1 .8 1.7.8"/><path d="m1050 310.1h-1.8l-.3-1.2c-.2-.1-.4-.3-.7-.4-.3-.1-.6-.1-.9-.1-.5 0-.8.1-1.1.3-.3.2-.4.5-.4.8 0 .3.1.5.4.7.3.2.8.4 1.6.5 1.2.2 2.1.6 2.7 1.1.6.5.9 1.1.9 2 0 .9-.4 1.6-1.2 2.2-.8.6-1.8.8-3 .8-.8 0-1.5-.1-2.1-.3-.6-.2-1.2-.5-1.7-1v-2.2h1.9l.4 1.3c.2.1.4.2.7.3.3.1.6.1.9.1.5 0 1-.1 1.2-.3.3-.2.4-.5.4-.8 0-.3-.1-.5-.4-.8-.3-.2-.8-.4-1.6-.6-1.2-.2-2.1-.6-2.6-1.1-.6-.5-.9-1.1-.9-1.9 0-.8.3-1.5 1-2.2.7-.6 1.7-.9 2.9-.9.8 0 1.5.1 2.2.3s1.2.5 1.6.8l-.1 2.6"/><path d="m147.4 413.2c-1.1 0-2.1-.2-3.1-.5-1-.4-1.8-.9-2.5-1.6-.7-.7-1.3-1.6-1.7-2.6-.4-1-.6-2.2-.6-3.5 0-1.2.2-2.4.7-3.5.5-1.1 1.1-2 2-2.9.8-.8 1.8-1.5 3-1.9s2.4-.7 3.8-.7c1.4 0 2.6.2 3.7.7 1.1.5 2.1 1.1 2.9 1.9.8.8 1.4 1.8 1.8 2.9.4 1.1.6 2.4.6 3.8 0 .8-.1 1.6-.2 2.3-.2.7-.4 1.5-.7 2.2-.3.7-.6 1.4-1 2.1-.4.7-.9 1.4-1.4 2.2l-7 10.1c-.2.3-.4.5-.7.6-.3.2-.7.2-1.1.2h-3.3l8.7-11.4c.3-.4.6-.8.8-1.1.3-.3.5-.7.7-1-.7.6-1.6 1-2.5 1.3-.9.3-1.9.4-2.9.4m7.1-8.3c0-.9-.1-1.7-.4-2.4-.3-.7-.7-1.3-1.2-1.8-.5-.5-1.1-.9-1.8-1.2-.7-.3-1.5-.4-2.3-.4-.9 0-1.7.1-2.4.4-.7.3-1.3.7-1.9 1.2-.5.5-.9 1.1-1.2 1.8-.3.7-.4 1.5-.4 2.3 0 .9.1 1.7.4 2.4.3.7.6 1.3 1.1 1.8.5.5 1.1.9 1.8 1.1.7.3 1.5.4 2.3.4 1 0 1.8-.2 2.5-.5.7-.3 1.4-.7 1.9-1.2.5-.5.9-1.1 1.2-1.8.3-.7.4-1.4.4-2.1"/><path d="m172 396.1c1.2 0 2.3.2 3.4.5 1 .3 1.9.8 2.6 1.5.7.6 1.3 1.4 1.7 2.3.4.9.6 1.9.6 3 0 .9-.1 1.7-.3 2.4-.2.7-.6 1.3-1 1.9-.4.5-1 1-1.6 1.4-.6.4-1.3.7-2.1.9 1.9.5 3.3 1.3 4.2 2.5.9 1.2 1.4 2.6 1.4 4.4 0 1.3-.2 2.5-.7 3.6-.5 1.1-1.2 1.9-2 2.7-.9.7-1.9 1.3-3 1.7-1.2.4-2.4.6-3.7.6-1.5 0-2.8-.2-3.9-.6-1.1-.4-2-.9-2.7-1.6-.7-.7-1.4-1.5-1.8-2.4-.5-.9-.9-1.9-1.2-3l1.5-.6c.3-.1.6-.2.8-.2.3 0 .5.1.7.2.2.1.4.3.5.5 0 .1.1.1.1.2 0 .1.1.1.1.2.2.4.4.8.7 1.3.3.5.6.9 1.1 1.4.5.4 1 .8 1.7 1.1.7.3 1.5.4 2.5.4 1 0 1.9-.2 2.6-.5s1.4-.7 1.9-1.3c.5-.5.9-1.1 1.1-1.7.3-.6.4-1.3.4-1.9 0-.8-.1-1.5-.3-2.1-.2-.6-.6-1.2-1.1-1.7-.5-.5-1.3-.8-2.2-1.1-1-.3-2.2-.4-3.7-.4v-2.7c1.2 0 2.2-.1 3.1-.4.9-.3 1.6-.6 2.1-1 .5-.4.9-1 1.2-1.6.2-.6.4-1.3.4-2 0-.8-.1-1.5-.4-2.2-.3-.6-.6-1.1-1.1-1.5-.5-.4-1-.7-1.6-.9-.6-.2-1.3-.3-2-.3s-1.4.1-2 .3c-.6.2-1.2.5-1.6.9-.5.4-.9.8-1.2 1.4-.3.5-.6 1.1-.7 1.7-.1.4-.3.7-.5.8-.2.2-.5.3-.8.3-.1 0-.1 0-.2 0-.1 0-.2 0-.2 0l-1.9-.3c.2-1.3.5-2.5 1.1-3.5.5-1 1.2-1.8 2-2.5.8-.7 1.8-1.2 2.8-1.5.8-.5 1.9-.6 3.2-.6"/><path d="m184.3 425.2c-.1.2-.2.4-.4.5-.2.1-.3.2-.5.2h-.7l5.6-14.1c.1-.2.2-.4.3-.5.2-.1.3-.2.5-.2h.7l-5.5 14.1"/><path d="m192.5 423.7h2.9v-9.2c0-.3 0-.6 0-.8l-2.4 2.1c-.1.1-.1.1-.2.1-.1 0-.1 0-.2 0-.1 0-.2 0-.3-.1-.1 0-.1-.1-.2-.1l-.5-.7 4-3.5h1.4v12.2h2.7v1.3h-7.2v-1.3"/><path d="m211 418.3c0 1.2-.1 2.2-.4 3.1-.3.9-.6 1.6-1 2.1-.4.6-1 1-1.6 1.3-.6.3-1.2.4-1.9.4-.7 0-1.3-.1-1.9-.4s-1.1-.7-1.5-1.3c-.4-.6-.8-1.3-1-2.1-.2-.9-.4-1.9-.4-3.1 0-1.2.1-2.2.4-3.1.3-.9.6-1.6 1-2.1.4-.6 1-1 1.5-1.3.6-.3 1.2-.4 1.9-.4.7 0 1.3.1 1.9.4.6.3 1.1.7 1.6 1.3s.8 1.3 1 2.1c.3.9.4 1.9.4 3.1m-1.7 0c0-1-.1-1.9-.3-2.6-.2-.7-.4-1.3-.7-1.7s-.6-.7-1-.9c-.4-.2-.8-.3-1.2-.3-.4 0-.8.1-1.2.3-.4.2-.7.5-1 .9-.3.4-.5 1-.7 1.7-.2.7-.3 1.6-.3 2.6s.1 1.9.3 2.6c.2.7.4 1.3.7 1.7.3.4.6.7 1 .9.4.2.8.3 1.2.3.4 0 .8-.1 1.2-.3.4-.2.7-.5 1-.9.3-.4.5-1 .7-1.7.2-.8.3-1.6.3-2.6"/><path d="m221.9 418.3c0 1.2-.1 2.2-.4 3.1-.3.9-.6 1.6-1 2.1-.4.6-1 1-1.6 1.3-.6.3-1.2.4-1.9.4-.7 0-1.3-.1-1.9-.4-.6-.3-1.1-.7-1.5-1.3-.4-.6-.8-1.3-1-2.1-.2-.9-.4-1.9-.4-3.1 0-1.2.1-2.2.4-3.1.3-.9.6-1.6 1-2.1.4-.6 1-1 1.5-1.3.6-.3 1.2-.4 1.9-.4.7 0 1.3.1 1.9.4.6.3 1.1.7 1.6 1.3s.8 1.3 1 2.1c.3.9.4 1.9.4 3.1m-1.8 0c0-1-.1-1.9-.3-2.6-.2-.7-.4-1.3-.7-1.7s-.6-.7-1-.9c-.4-.2-.8-.3-1.2-.3-.4 0-.8.1-1.2.3-.4.2-.7.5-1 .9-.3.4-.5 1-.7 1.7-.2.7-.3 1.6-.3 2.6s.1 1.9.3 2.6c.2.7.4 1.3.7 1.7.3.4.6.7 1 .9.4.2.8.3 1.2.3.4 0 .8-.1 1.2-.3.4-.2.7-.5 1-.9.3-.4.5-1 .7-1.7.3-.8.3-1.6.3-2.6"/><path d="m316 413.2c-1.1 0-2.1-.2-3.1-.5-1-.4-1.8-.9-2.5-1.6-.7-.7-1.3-1.6-1.7-2.6-.4-1-.6-2.2-.6-3.5 0-1.2.2-2.4.7-3.5.5-1.1 1.1-2 2-2.9.8-.8 1.8-1.5 3-1.9 1.2-.5 2.4-.7 3.8-.7 1.4 0 2.6.2 3.7.7 1.1.5 2.1 1.1 2.9 1.9.8.8 1.4 1.8 1.8 2.9.4 1.1.6 2.4.6 3.8 0 .8-.1 1.6-.2 2.3-.2.7-.4 1.5-.7 2.2-.3.7-.6 1.4-1 2.1-.4.7-.9 1.4-1.4 2.2l-7 10.1c-.2.3-.4.5-.7.6-.3.2-.7.2-1.1.2h-3.3l8.7-11.4c.3-.4.6-.8.8-1.1.3-.3.5-.7.7-1-.7.6-1.6 1-2.5 1.3-.9.3-1.9.4-2.9.4m7.2-8.3c0-.9-.1-1.7-.4-2.4-.3-.7-.7-1.3-1.2-1.8-.5-.5-1.1-.9-1.8-1.2-.7-.3-1.5-.4-2.3-.4-.9 0-1.7.1-2.4.4-.7.3-1.3.7-1.9 1.2-.5.5-.9 1.1-1.2 1.8-.3.7-.4 1.5-.4 2.3 0 .9.1 1.7.4 2.4.3.7.6 1.3 1.1 1.8.5.5 1.1.9 1.8 1.1.7.3 1.5.4 2.3.4 1 0 1.8-.2 2.5-.5.7-.3 1.4-.7 1.9-1.2.5-.5.9-1.1 1.2-1.8.2-.7.4-1.4.4-2.1"/><path d="m333.9 422.3h6.1v-19.5c0-.6 0-1.2.1-1.8l-5.1 4.4c-.1.1-.3.2-.4.2-.1 0-.3.1-.4.1-.2 0-.4 0-.5-.1-.2-.1-.3-.2-.4-.3l-1.1-1.5 8.5-7.4h2.9v25.9h5.6v2.7h-15.3v-2.7"/><path d="m352.9 425.2c-.1.2-.2.4-.4.5-.2.1-.3.2-.5.2h-.7l5.6-14.1c.1-.2.2-.4.3-.5.2-.1.3-.2.5-.2h.7l-5.5 14.1"/><path d="m361.1 423.7h2.9v-9.2c0-.3 0-.6 0-.8l-2.4 2.1c-.1.1-.1.1-.2.1-.1 0-.1 0-.2 0-.1 0-.2 0-.3-.1-.1 0-.1-.1-.2-.1l-.5-.7 4-3.5h1.4v12.2h2.6v1.3h-7.2v-1.3z"/><path d="m379.6 418.3c0 1.2-.1 2.2-.4 3.1-.3.9-.6 1.6-1 2.1-.4.6-1 1-1.6 1.3-.6.3-1.2.4-1.9.4-.7 0-1.3-.1-1.9-.4-.6-.3-1.1-.7-1.5-1.3-.4-.6-.8-1.3-1-2.1-.2-.9-.4-1.9-.4-3.1 0-1.2.1-2.2.4-3.1.3-.9.6-1.6 1-2.1.4-.6 1-1 1.5-1.3.6-.3 1.2-.4 1.9-.4.7 0 1.3.1 1.9.4.6.3 1.1.7 1.6 1.3s.8 1.3 1 2.1c.3.9.4 1.9.4 3.1m-1.7 0c0-1-.1-1.9-.3-2.6-.2-.7-.4-1.3-.7-1.7s-.6-.7-1-.9c-.4-.2-.8-.3-1.2-.3-.4 0-.8.1-1.2.3-.4.2-.7.5-1 .9s-.5 1-.7 1.7c-.2.7-.3 1.6-.3 2.6s.1 1.9.3 2.6.4 1.3.7 1.7c.3.4.6.7 1 .9.4.2.8.3 1.2.3.4 0 .8-.1 1.2-.3.4-.2.7-.5 1-.9.3-.4.5-1 .7-1.7.2-.8.3-1.6.3-2.6"/><path d="m390.5 418.3c0 1.2-.1 2.2-.4 3.1-.3.9-.6 1.6-1 2.1-.4.6-1 1-1.6 1.3-.6.3-1.2.4-1.9.4-.7 0-1.3-.1-1.9-.4-.6-.3-1.1-.7-1.5-1.3-.4-.6-.8-1.3-1-2.1-.2-.9-.4-1.9-.4-3.1 0-1.2.1-2.2.4-3.1.3-.9.6-1.6 1-2.1.4-.6 1-1 1.5-1.3.6-.3 1.2-.4 1.9-.4.7 0 1.3.1 1.9.4.6.3 1.1.7 1.6 1.3.4.6.8 1.3 1 2.1.3.9.4 1.9.4 3.1m-1.7 0c0-1-.1-1.9-.3-2.6-.2-.7-.4-1.3-.7-1.7s-.6-.7-1-.9c-.4-.2-.8-.3-1.2-.3-.4 0-.8.1-1.2.3-.4.2-.7.5-1 .9s-.5 1-.7 1.7c-.2.7-.3 1.6-.3 2.6s.1 1.9.3 2.6.4 1.3.7 1.7c.3.4.6.7 1 .9.4.2.8.3 1.2.3.4 0 .8-.1 1.2-.3.4-.2.7-.5 1-.9.3-.4.5-1 .7-1.7.2-.8.3-1.6.3-2.6"/><path d="m167.3 640.4v1.7h-3.3v9.4h-2.1v-9.4h-3.3v-1.7h8.7"/><path d="m170.8 641.4c0 .2 0 .3-.1.5-.1.1-.2.3-.3.4-.1.1-.2.2-.4.3-.1.1-.3.1-.5.1-.2 0-.3 0-.5-.1-.1-.1-.3-.1-.4-.3-.1-.1-.2-.2-.3-.4-.1-.1-.1-.3-.1-.5 0-.2 0-.3.1-.5.1-.1.1-.3.3-.4.1-.1.2-.2.4-.3.1-.1.3-.1.5-.1.2 0 .3 0 .5.1.1.1.3.1.4.3.1.1.2.2.3.4 0 .1.1.3.1.5m-.3 2.3v7.8h-1.9v-7.8h1.9"/><path d="m175.2 651.6c-.7 0-1.2-.2-1.6-.6-.4-.4-.5-.9-.5-1.6v-4.4h-.8c-.1 0-.2 0-.3-.1s-.1-.2-.1-.3v-.7l1.3-.2.4-2.1c0-.1.1-.2.1-.2.1-.1.2-.1.3-.1h1v2.5h2.1v1.3h-2.1v4.2c0 .2.1.4.2.6.1.1.3.2.5.2.1 0 .2 0 .3 0 .1 0 .1-.1.2-.1.1 0 .1-.1.2-.1s.1 0 .1 0c.1 0 .1 0 .1 0l.1.1.6.9c-.3.2-.6.4-.9.5-.5.1-.8.2-1.2.2"/><path d="m180.5 640.1v11.3h-1.9v-11.3h1.9"/><path d="m185.9 643.5c.5 0 .9.1 1.4.2.4.2.8.4 1.1.7.3.3.5.7.7 1.1.2.4.3.9.3 1.5 0 .1 0 .3 0 .4 0 .1 0 .2-.1.2 0 .1-.1.1-.1.1s-.1 0-.2 0h-5c.1.8.3 1.4.6 1.8.4.4.9.6 1.5.6.3 0 .6 0 .8-.1.2-.1.4-.2.6-.2.2-.1.3-.2.4-.2.1-.1.2-.1.4-.1.1 0 .1 0 .2 0 .1 0 .1.1.1.1l.5.7c-.2.2-.4.4-.7.6-.3.2-.5.3-.8.4-.3.1-.6.2-.9.2-.3 0-.6.1-.9.1-.5 0-1.1-.1-1.5-.3-.5-.2-.9-.4-1.2-.8-.3-.4-.6-.8-.8-1.3-.2-.5-.3-1.1-.3-1.8 0-.5.1-1 .3-1.5.2-.5.4-.9.7-1.2.3-.3.7-.6 1.2-.8.6-.3 1.1-.4 1.7-.4m0 1.4c-.5 0-1 .2-1.3.5-.3.3-.5.8-.6 1.3h3.5c0-.2 0-.5-.1-.7-.1-.2-.2-.4-.3-.6-.1-.2-.3-.3-.5-.4-.1-.1-.4-.1-.7-.1"/><path d="m199.9 651.5h-.8c-.2 0-.3 0-.4-.1-.1-.1-.2-.2-.2-.3l-.2-.6c-.2.2-.4.3-.6.5-.2.1-.4.2-.6.3-.2.1-.4.2-.6.2-.2 0-.5.1-.8.1-.3 0-.6 0-.9-.1-.3-.1-.5-.2-.7-.4-.2-.2-.4-.4-.5-.7-.1-.3-.2-.6-.2-.9 0-.3.1-.6.2-.9.2-.3.4-.6.8-.8s.8-.4 1.4-.6c.6-.2 1.3-.2 2.2-.2v-.5c0-.5-.1-.9-.3-1.2-.2-.3-.5-.4-1-.4-.3 0-.6 0-.8.1-.2.1-.4.2-.5.2-.2.1-.3.2-.4.2-.1.1-.3.1-.4.1-.1 0-.2 0-.3-.1s-.2-.1-.2-.2l-.3-.6c.9-.8 2-1.2 3.3-1.2.5 0 .9.1 1.2.2.4.2.7.4.9.6.2.3.4.6.6 1s.2.8.2 1.2v5.1zm-3.7-1.2c.2 0 .4 0 .5-.1.2 0 .3-.1.5-.2.1-.1.3-.2.4-.3.1-.1.3-.2.4-.4v-1.3c-.5 0-1 0-1.4.1-.4.1-.7.2-.9.3s-.4.2-.5.4c-.1.1-.1.3-.1.5 0 .3.1.6.3.7.3.2.5.3.8.3"/><path d="m201.8 651.5v-7.8h1.2c.2 0 .4.1.5.3l.1.6c.2-.2.3-.3.5-.4.2-.1.4-.2.6-.3.2-.1.4-.2.6-.2.2-.1.5-.1.7-.1.4 0 .8.1 1.1.2.3.1.6.3.8.6.2.3.4.6.5.9.1.4.2.8.2 1.2v5h-1.9v-5c0-.5-.1-.8-.3-1.1-.2-.3-.6-.4-1-.4-.3 0-.6.1-.9.2-.3.1-.6.3-.8.6v5.7h-1.9"/><path d="m216 651.5c-.2 0-.4-.1-.5-.3l-.2-.8c-.2.2-.3.3-.5.5-.2.1-.4.3-.6.4-.2.1-.4.2-.7.2-.2.1-.5.1-.8.1-.4 0-.8-.1-1.2-.3-.4-.2-.7-.4-.9-.8-.3-.3-.5-.8-.6-1.3-.1-.5-.2-1.1-.2-1.7 0-.6.1-1.1.2-1.6.2-.5.4-.9.7-1.3.3-.4.6-.7 1.1-.9.4-.2.9-.3 1.4-.3.4 0 .8.1 1.1.2.3.1.6.3.8.6v-4.1h1.9v11.3h-1zm-2.6-1.4c.4 0 .7-.1 1-.2.3-.2.5-.4.8-.7v-3.5c-.2-.3-.4-.4-.7-.5-.3-.1-.5-.2-.8-.2-.3 0-.5.1-.8.2-.2.1-.4.3-.6.5s-.3.5-.4.8c-.1.3-.1.7-.1 1.2 0 .5 0 .8.1 1.2.1.3.2.6.3.8.1.2.3.3.5.4.3 0 .5 0 .7 0"/><path d="m226.6 649.8c.4 0 .8-.1 1.1-.2.3-.1.6-.3.8-.6.2-.2.4-.5.5-.9.1-.3.2-.7.2-1.1v-6.6h2.1v6.6c0 .7-.1 1.3-.3 1.8-.2.6-.5 1-.9 1.4-.4.4-.9.7-1.4.9-.6.2-1.2.3-1.9.3-.7 0-1.3-.1-1.9-.3-.6-.2-1-.5-1.4-.9-.4-.4-.7-.9-.9-1.4-.2-.6-.3-1.2-.3-1.8v-6.6h2.1v6.6c0 .4.1.8.2 1.1.1.3.3.6.5.9.2.2.5.4.8.6 0 .2.3.2.7.2"/><path d="m235.4 647.2v4.3h-2.1v-11h3.4c.8 0 1.4.1 1.9.2.5.2 1 .4 1.3.7.3.3.6.6.8 1 .2.4.2.8.2 1.3 0 .4-.1.7-.2 1.1-.1.3-.3.6-.5.9-.2.3-.5.5-.8.7-.3.2-.6.4-1 .5.3.1.5.4.7.6l2.8 4.1h-1.8c-.2 0-.3 0-.5-.1-.1-.1-.2-.2-.3-.3l-2.3-3.5c-.1-.1-.2-.2-.3-.3-.1-.1-.3-.1-.5-.1h-.8zm0-1.5h1.3c.4 0 .7 0 1-.1.3-.1.5-.2.7-.4.2-.2.3-.4.4-.6s.1-.5.1-.8c0-.6-.2-1-.6-1.3-.4-.3-.9-.4-1.7-.4h-1.3v3.6z"/><path d="m245.4 649.8h4.4v1.7h-6.5v-11h2.1v9.3"/><path d="m257.4 643.5c.6 0 1.1.1 1.6.3.5.2.9.5 1.2.8s.6.8.8 1.3c.2.5.3 1.1.3 1.7 0 .6-.1 1.2-.3 1.7-.2.5-.4.9-.8 1.3s-.7.6-1.2.8c-.5.2-1 .3-1.6.3s-1.1-.1-1.6-.3-.9-.5-1.2-.8c-.3-.4-.6-.8-.8-1.3-.2-.5-.3-1.1-.3-1.7 0-.6.1-1.2.3-1.7.2-.5.4-.9.8-1.3.3-.3.7-.6 1.2-.8s1-.3 1.6-.3m0 6.6c.7 0 1.1-.2 1.4-.7.3-.4.5-1.1.5-1.9 0-.8-.2-1.5-.5-1.9-.3-.4-.8-.7-1.4-.7-.7 0-1.2.2-1.5.7-.3.4-.5 1.1-.5 1.9 0 .8.2 1.5.5 1.9.3.5.8.7 1.5.7"/><path d="m263.1 651.5v-6.4l-.7-.1c-.1 0-.3-.1-.4-.2-.1-.1-.1-.2-.1-.3v-.8h1.2v-.6c0-.4.1-.8.2-1.2.1-.4.3-.7.6-.9.3-.2.6-.4.9-.6.4-.1.8-.2 1.2-.2.4 0 .7 0 1 .1v.9c0 .1-.1.2-.2.3-.1 0-.3.1-.4.1-.2 0-.4 0-.6.1s-.3.1-.4.3c-.1.1-.2.3-.3.5-.1.2-.1.4-.1.7v.5h2v1.3h-2v6.4h-1.9z"/><path d="m273.2 649.8h4.4v1.7h-6.5v-11h2.1v9.3"/><path d="m281.2 641.4c0 .2 0 .3-.1.5-.1.1-.2.3-.3.4-.1.1-.2.2-.4.3-.1.1-.3.1-.5.1-.2 0-.3 0-.5-.1-.1-.1-.3-.1-.4-.3-.1-.1-.2-.2-.3-.4-.1-.1-.1-.3-.1-.5 0-.2 0-.3.1-.5.1-.1.1-.3.3-.4.1-.1.2-.2.4-.3.1-.1.3-.1.5-.1.2 0 .3 0 .5.1s.3.1.4.3c.1.1.2.2.3.4.1.1.1.3.1.5m-.3 2.3v7.8h-1.9v-7.8h1.9"/><path d="m283 651.5v-7.8h1.2c.2 0 .4.1.5.3l.1.6c.2-.2.3-.3.5-.4.2-.1.4-.2.6-.3.2-.1.4-.2.6-.2.2-.1.5-.1.7-.1.4 0 .8.1 1.1.2.3.1.6.3.8.6.2.3.4.6.5.9.1.4.2.8.2 1.2v5h-1.8v-5c0-.5-.1-.8-.3-1.1-.2-.3-.6-.4-1-.4-.3 0-.6.1-.9.2-.3.1-.6.3-.8.6v5.7h-2"/><path d="m293.6 640.1v6.5h.4c.1 0 .2 0 .3-.1.1 0 .1-.1.2-.2l1.9-2.4c.1-.1.2-.2.3-.2.1-.1.2-.1.4-.1h1.7l-2.4 2.9c-.1.1-.2.2-.3.3-.1.1-.2.2-.3.2.1.1.2.2.3.3.1.1.2.2.2.3l2.6 3.8h-1.7c-.1 0-.3 0-.4-.1-.1-.1-.2-.1-.3-.3l-2-3c-.1-.1-.2-.2-.2-.2-.1 0-.2-.1-.3-.1h-.4v3.6h-1.9v-11.3h1.9z"/><path d="m302.4 641.4c0 .2 0 .3-.1.5-.1.1-.2.3-.3.4-.1.1-.2.2-.4.3-.1.1-.3.1-.5.1-.2 0-.3 0-.5-.1-.1-.1-.3-.1-.4-.3-.1-.1-.2-.2-.3-.4-.1-.1-.1-.3-.1-.5 0-.2 0-.3.1-.5.1-.1.1-.3.3-.4.1-.1.2-.2.4-.3.1-.1.3-.1.5-.1.2 0 .3 0 .5.1s.3.1.4.3c.1.1.2.2.3.4.1.1.1.3.1.5m-.3 2.3v7.8h-1.9v-7.8h1.9"/><path d="m304.3 651.5v-7.8h1.2c.2 0 .4.1.5.3l.1.6c.2-.2.3-.3.5-.4.2-.1.4-.2.6-.3.2-.1.4-.2.6-.2.2-.1.5-.1.7-.1.4 0 .8.1 1.1.2.3.1.6.3.8.6.2.3.4.6.5.9.1.4.2.8.2 1.2v5h-1.9v-5c0-.5-.1-.8-.3-1.1-.2-.3-.6-.4-1-.4-.3 0-.6.1-.9.2-.3.1-.6.3-.8.6v5.7h-1.9"/><path d="m315.7 643.5c.3 0 .7 0 .9.1.3.1.6.2.8.3h2.3v.7c0 .1 0 .2-.1.3-.1.1-.2.1-.3.1l-.7.1c.1.1.1.3.1.4 0 .1 0 .3 0 .5 0 .4-.1.7-.2 1.1-.2.3-.4.6-.6.8-.3.2-.6.4-1 .5s-.8.2-1.2.2c-.3 0-.6 0-.9-.1-.2.1-.4.3-.4.5 0 .2.1.3.2.3.1.1.3.1.6.2.2 0 .5 0 .8 0 .3 0 .6 0 .9 0 .3 0 .6.1.9.1.3.1.6.2.8.3.2.1.4.3.6.6.1.2.2.5.2.9 0 .3-.1.7-.3 1-.2.3-.4.6-.7.9-.3.3-.7.5-1.2.6-.5.2-1 .2-1.6.2-.6 0-1.1-.1-1.5-.2-.4-.1-.8-.3-1.1-.5-.3-.2-.5-.4-.6-.7-.1-.2-.2-.5-.2-.8 0-.4.1-.7.3-.9.2-.2.5-.4.9-.6-.2-.1-.3-.2-.5-.4s-.2-.4-.2-.7c0-.1 0-.2.1-.4 0-.1.1-.2.2-.4.1-.1.2-.2.3-.3.1-.1.3-.2.5-.3-.4-.2-.7-.5-.9-.9-.2-.4-.3-.8-.3-1.3 0-.4.1-.7.2-1 .2-.3.4-.6.6-.8.3-.2.6-.4 1-.5.4.2.8.1 1.3.1m2 8.3c0-.2 0-.3-.1-.4-.1-.1-.2-.2-.4-.2-.2-.1-.3-.1-.6-.1-.2 0-.4 0-.7 0-.2 0-.5 0-.7 0s-.5 0-.7-.1c-.2.1-.4.3-.5.4s-.2.3-.2.6c0 .1 0 .3.1.4.1.1.2.2.3.3.2.1.3.2.6.2.2 0 .5.1.9.1.4 0 .7 0 .9-.1.3-.1.5-.1.6-.2.2-.1.3-.2.4-.3.1-.3.1-.4.1-.6m-2-4.4c.2 0 .4 0 .6-.1s.3-.2.4-.3c.1-.1.2-.2.3-.4.1-.2.1-.3.1-.5 0-.4-.1-.7-.3-.9-.2-.2-.6-.3-1-.3-.5 0-.8.1-1 .3-.2.2-.3.5-.3.9 0 .2 0 .4.1.5.1.2.1.3.3.4.1.1.3.2.4.3-.1 0 .1.1.4.1"/><path d="m326 647.6v3.9h-2v-11h3.6c.7 0 1.4.1 1.9.3.5.2 1 .4 1.3.7.4.3.6.7.8 1.1.2.4.3.9.3 1.4 0 .5-.1 1-.3 1.5-.2.4-.4.8-.8 1.1-.4.3-.8.6-1.3.7-.5.2-1.2.3-1.9.3h-1.6m0-1.6h1.5c.4 0 .7 0 1-.1.3-.1.5-.2.7-.4.2-.2.3-.4.4-.6.1-.3.1-.5.1-.8 0-.3 0-.6-.1-.8-.1-.2-.2-.4-.4-.6-.2-.2-.4-.3-.7-.4-.3-.1-.6-.1-1-.1h-1.5v3.8"/><path d="m339.1 651.5h-.8c-.2 0-.3 0-.4-.1-.1-.1-.2-.2-.2-.3l-.2-.6c-.2.2-.4.3-.6.5-.2.1-.4.2-.6.3-.2.1-.4.2-.6.2-.2 0-.5.1-.8.1-.3 0-.6 0-.9-.1-.3-.1-.5-.2-.7-.4-.2-.2-.4-.4-.5-.7-.1-.3-.2-.6-.2-.9 0-.3.1-.6.2-.9.2-.3.4-.6.8-.8s.8-.4 1.4-.6c.6-.2 1.3-.2 2.2-.2v-.5c0-.5-.1-.9-.3-1.2-.2-.3-.5-.4-1-.4-.3 0-.6 0-.8.1-.2.1-.4.2-.5.2-.2.1-.3.2-.4.2-.1.1-.3.1-.4.1-.1 0-.2 0-.3-.1s-.2-.1-.2-.2l-.3-.6c.9-.8 2-1.2 3.3-1.2.5 0 .9.1 1.2.2.4.2.7.4.9.6.2.3.4.6.6 1s.2.8.2 1.2v5.1zm-3.7-1.2c.2 0 .4 0 .5-.1.2 0 .3-.1.5-.2.1-.1.3-.2.4-.3.1-.1.3-.2.4-.4v-1.3c-.5 0-1 0-1.4.1-.4.1-.7.2-.9.3s-.4.2-.5.4c-.1.1-.1.3-.1.5 0 .3.1.6.3.7.3.2.5.3.8.3"/><path d="m343.7 643.5c.3 0 .7 0 .9.1.3.1.6.2.8.3h2.3v.7c0 .1 0 .2-.1.3-.1.1-.2.1-.3.1l-.7.1c.1.1.1.3.1.4 0 .1 0 .3 0 .5 0 .4-.1.7-.2 1.1-.2.3-.4.6-.6.8-.3.2-.6.4-1 .5-.4.1-.8.2-1.2.2-.3 0-.6 0-.9-.1-.2.1-.4.3-.4.5 0 .2.1.3.2.3.1.1.3.1.6.2.2 0 .5 0 .8 0s.6 0 .9 0c.3 0 .6.1.9.1.3.1.6.2.8.3.2.1.4.3.6.6.1.2.2.5.2.9 0 .3-.1.7-.3 1-.2.3-.4.6-.7.9-.3.3-.7.5-1.2.6-.5.2-1 .2-1.6.2-.6 0-1.1-.1-1.5-.2-.4-.1-.8-.3-1.1-.5-.3-.2-.5-.4-.6-.7-.1-.2-.2-.5-.2-.8 0-.4.1-.7.3-.9.2-.2.5-.4.9-.6-.2-.1-.3-.2-.5-.4-.1-.2-.2-.4-.2-.7 0-.1 0-.2.1-.4 0-.1.1-.2.2-.4.1-.1.2-.2.3-.3.1-.1.3-.2.5-.3-.4-.2-.7-.5-.9-.9-.2-.4-.3-.8-.3-1.3 0-.4.1-.7.2-1 .2-.3.4-.6.6-.8.3-.2.6-.4 1-.5.4.2.8.1 1.3.1m2 8.3c0-.2 0-.3-.1-.4-.1-.1-.2-.2-.4-.2-.2-.1-.3-.1-.6-.1-.2 0-.4 0-.7 0-.2 0-.5 0-.7 0-.3 0-.5 0-.7-.1-.2.1-.4.3-.5.4s-.2.3-.2.6c0 .1 0 .3.1.4.1.1.2.2.3.3.2.1.3.2.6.2.2 0 .5.1.9.1.4 0 .7 0 .9-.1.3-.1.5-.1.6-.2.2-.1.3-.2.4-.3.1-.3.1-.4.1-.6m-2-4.4c.2 0 .4 0 .6-.1.2-.1.3-.2.4-.3.1-.1.2-.2.3-.4.1-.2.1-.3.1-.5 0-.4-.1-.7-.3-.9-.2-.2-.6-.3-1-.3-.5 0-.8.1-1 .3-.2.2-.3.5-.3.9 0 .2 0 .4.1.5.1.2.1.3.3.4.1.1.3.2.4.3s.1.1.4.1"/><path d="m352.1 643.5c.5 0 .9.1 1.4.2.4.2.8.4 1.1.7.3.3.5.7.7 1.1.2.4.3.9.3 1.5 0 .1 0 .3 0 .4 0 .1 0 .2-.1.2 0 .1-.1.1-.1.1-.1 0-.1 0-.2 0h-4.8c.1.8.3 1.4.6 1.8.4.4.9.6 1.5.6.3 0 .6 0 .8-.1.2-.1.4-.2.6-.2.2-.1.3-.2.4-.2.1-.1.2-.1.4-.1.1 0 .1 0 .2 0 .1 0 .1.1.1.1l.5.7c-.2.2-.4.4-.7.6-.3.2-.5.3-.8.4-.3.1-.6.2-.9.2-.3 0-.6.1-.9.1-.5 0-1.1-.1-1.5-.3-.5-.2-.9-.4-1.2-.8-.3-.4-.6-.8-.8-1.3-.2-.5-.3-1.1-.3-1.8 0-.5.1-1 .3-1.5.2-.5.4-.9.7-1.2.3-.3.7-.6 1.2-.8.4-.3.9-.4 1.5-.4m0 1.4c-.5 0-1 .2-1.3.5-.3.3-.5.8-.6 1.3h3.5c0-.2 0-.5-.1-.7-.1-.2-.2-.4-.3-.6-.1-.2-.3-.3-.5-.4-.2-.1-.4-.1-.7-.1"/><path d="m442.2 649.8h4.4v1.7h-6.5v-11h2.1v9.3"/><path d="m450.2 641.4c0 .2 0 .3-.1.5-.1.1-.2.3-.3.4-.1.1-.2.2-.4.3-.1.1-.3.1-.5.1-.2 0-.3 0-.5-.1-.1-.1-.3-.1-.4-.3-.1-.1-.2-.2-.3-.4-.1-.1-.1-.3-.1-.5 0-.2 0-.3.1-.5.1-.1.1-.3.3-.4.1-.1.2-.2.4-.3.1-.1.3-.1.5-.1.2 0 .3 0 .5.1s.3.1.4.3c.1.1.2.2.3.4.1.1.1.3.1.5m-.3 2.3v7.8h-1.9v-7.8h1.9"/><path d="m452.1 651.5v-7.8h1.2c.2 0 .4.1.5.3l.1.6c.2-.2.3-.3.5-.4.2-.1.4-.2.6-.3.2-.1.4-.2.6-.2.2-.1.5-.1.7-.1.4 0 .8.1 1.1.2.3.1.6.3.8.6.2.3.4.6.5.9.1.4.2.8.2 1.2v5h-1.9v-5c0-.5-.1-.8-.3-1.1-.2-.3-.6-.4-1-.4-.3 0-.6.1-.9.2-.3.1-.6.3-.8.6v5.7h-1.9"/><path d="m462.7 640.1v6.5h.4c.1 0 .2 0 .3-.1.1 0 .1-.1.2-.2l1.9-2.4c.1-.1.2-.2.3-.2.1-.1.2-.1.4-.1h1.7l-2.4 2.9c-.1.1-.2.2-.3.3-.1.1-.2.2-.3.2.1.1.2.2.3.3.1.1.2.2.2.3l2.6 3.8h-1.7c-.1 0-.3 0-.4-.1-.1-.1-.2-.1-.3-.3l-2-3c-.1-.1-.2-.2-.2-.2-.1 0-.2-.1-.3-.1h-.4v3.6h-1.9v-11.3h1.9z"/><path d="m481.9 651.5h-1.6c-.2 0-.3 0-.4-.1-.1-.1-.2-.2-.2-.3l-.8-2.3h-4.6l-.8 2.3c0 .1-.1.2-.2.3-.1.1-.3.1-.4.1h-1.6l4.3-11h2.1l4.2 11m-7.1-4.2h3.5l-1.3-3.7c-.1-.2-.1-.4-.2-.6-.1-.2-.1-.5-.2-.7-.1.3-.1.5-.2.7-.1.2-.1.4-.2.6l-1.4 3.7"/><path d="m483 651.5v-7.8h1.2c.2 0 .4.1.5.3l.1.6c.2-.2.3-.3.5-.4.2-.1.4-.2.6-.3s.4-.2.6-.2c.2-.1.5-.1.7-.1.4 0 .8.1 1.1.2.3.1.6.3.8.6.2.3.4.6.5.9.1.4.2.8.2 1.2v5h-1.9v-5c0-.5-.1-.8-.3-1.1-.2-.3-.6-.4-1-.4-.3 0-.6.1-.9.2-.3.1-.6.3-.8.6v5.7h-1.9"/><path d="m497.1 645.3c-.1.1-.1.1-.2.2-.1 0-.1.1-.2.1-.1 0-.2 0-.3-.1-.1-.1-.2-.1-.3-.2s-.3-.1-.5-.2c-.2-.1-.4-.1-.7-.1-.3 0-.6.1-.9.2s-.5.3-.6.5c-.2.2-.3.5-.4.8-.1.3-.1.7-.1 1.1 0 .4 0 .8.1 1.1.1.3.2.6.4.8.2.2.4.4.6.5.2.1.5.2.8.2.3 0 .5 0 .7-.1.2-.1.3-.2.5-.2.1-.1.2-.2.3-.2.1-.1.2-.1.3-.1.2 0 .3.1.3.2l.5.7c-.2.2-.4.4-.7.6-.2.2-.5.3-.8.4-.3.1-.5.2-.8.2-.3 0-.6.1-.8.1-.5 0-.9-.1-1.4-.3-.4-.2-.8-.4-1.1-.8s-.6-.8-.8-1.3c-.2-.5-.3-1.1-.3-1.7 0-.6.1-1.1.2-1.6.2-.5.4-.9.7-1.3.3-.4.7-.6 1.2-.8.5-.2 1-.3 1.6-.3.6 0 1.1.1 1.5.3.4.2.8.5 1.2.8v.5"/><path d="m498.9 651.5v-11.3h1.9v4.4c.3-.3.6-.5 1-.7.4-.2.8-.3 1.3-.3.4 0 .8.1 1.1.2.3.1.6.3.8.6.2.3.4.6.5.9.1.4.2.8.2 1.2v5h-1.9v-5c0-.5-.1-.8-.3-1.1-.2-.3-.6-.4-1-.4-.3 0-.6.1-.9.2-.3.1-.6.3-.8.6v5.7h-1.9"/><path d="m510.9 643.5c.6 0 1.1.1 1.6.3.5.2.9.5 1.2.8s.6.8.8 1.3c.2.5.3 1.1.3 1.7 0 .6-.1 1.2-.3 1.7-.2.5-.4.9-.8 1.3s-.7.6-1.2.8c-.5.2-1 .3-1.6.3s-1.1-.1-1.6-.3c-.5-.2-.9-.5-1.2-.8-.3-.4-.6-.8-.8-1.3-.2-.5-.3-1.1-.3-1.7 0-.6.1-1.2.3-1.7.2-.5.4-.9.8-1.3.3-.3.7-.6 1.2-.8.5-.2 1-.3 1.6-.3m0 6.6c.7 0 1.1-.2 1.4-.7.3-.4.5-1.1.5-1.9 0-.8-.2-1.5-.5-1.9-.3-.4-.8-.7-1.4-.7-.7 0-1.2.2-1.5.7-.3.4-.5 1.1-.5 1.9 0 .8.2 1.5.5 1.9.4.5.9.7 1.5.7"/><path d="m516.3 651.5v-7.8h1.1c.2 0 .3 0 .4.1.1.1.1.2.2.4l.1.9c.3-.5.6-.9 1-1.1s.8-.4 1.3-.4c.4 0 .7.1 1 .3l-.2 1.4c0 .1 0 .2-.1.2-.1 0-.1.1-.2.1-.1 0-.2 0-.3-.1-.1 0-.3-.1-.5-.1-.4 0-.7.1-1 .3s-.5.5-.7.9v4.9h-2.1"/><path d="m533.3 640.4v1.7h-3.3v9.4h-2v-9.4h-3.3v-1.7h8.6"/><path d="m536.2 643.5c.5 0 .9.1 1.4.2.4.2.8.4 1.1.7.3.3.5.7.7 1.1.2.4.3.9.3 1.5 0 .1 0 .3 0 .4 0 .1 0 .2-.1.2 0 .1-.1.1-.1.1-.1 0-.1 0-.2 0h-4.8c.1.8.3 1.4.6 1.8.4.4.9.6 1.5.6.3 0 .6 0 .8-.1.2-.1.4-.2.6-.2.2-.1.3-.2.4-.2.1-.1.2-.1.4-.1.1 0 .1 0 .2 0 .1 0 .1.1.1.1l.5.7c-.2.2-.4.4-.7.6-.3.2-.5.3-.8.4-.3.1-.6.2-.9.2-.3 0-.6.1-.9.1-.5 0-1.1-.1-1.5-.3-.5-.2-.9-.4-1.2-.8-.3-.4-.6-.8-.8-1.3-.2-.5-.3-1.1-.3-1.8 0-.5.1-1 .3-1.5.2-.5.4-.9.7-1.2.3-.3.7-.6 1.2-.8.4-.3.9-.4 1.5-.4m0 1.4c-.5 0-1 .2-1.3.5-.3.3-.5.8-.6 1.3h3.5c0-.2 0-.5-.1-.7-.1-.2-.2-.4-.3-.6-.1-.2-.3-.3-.5-.4-.1-.1-.4-.1-.7-.1"/><path d="m542.5 647.4l-2.6-3.8h1.8c.1 0 .2 0 .3.1.1 0 .1.1.2.2l1.6 2.6c0-.1.1-.2.1-.3 0-.1.1-.2.1-.3l1.3-2.1c.1-.1.1-.2.2-.2.1 0 .1-.1.2-.1h1.7l-2.6 3.7 2.7 4.1h-1.8c-.1 0-.2 0-.3-.1-.1-.1-.2-.2-.2-.2l-1.7-2.7c0 .2-.1.3-.2.5l-1.5 2.3c-.1.1-.1.2-.2.2s-.2.1-.3.1h-1.7l2.9-4"/><path d="m551.5 651.6c-.7 0-1.2-.2-1.6-.6-.4-.4-.5-.9-.5-1.6v-4.4h-.8c-.1 0-.2 0-.3-.1-.1-.1-.1-.2-.1-.3v-.7l1.3-.2.4-2.1c0-.1.1-.2.1-.2.1-.1.2-.1.3-.1h1v2.5h2.1v1.3h-2.1v4.2c0 .2.1.4.2.6.1.1.3.2.5.2.1 0 .2 0 .3 0s.1-.1.2-.1c.1 0 .1-.1.2-.1 0 0 .1 0 .1 0 .1 0 .1 0 .1 0l.1.1.6.9c-.3.2-.6.4-.9.5-.5.1-.8.2-1.2.2"/><path d="m725.5 642.5c-.1.1-.1.2-.2.2-.1 0-.2.1-.3.1-.1 0-.2 0-.3-.1-.1-.1-.3-.2-.4-.3s-.4-.2-.6-.3c-.2-.1-.5-.1-.8-.1-.3 0-.5 0-.7.1-.2.1-.4.2-.5.3-.1.1-.3.3-.3.4-.1.2-.1.4-.1.6 0 .3.1.5.2.6.1.2.3.3.6.4.2.1.5.2.8.3.3.1.6.2.9.3.3.1.6.2.9.4.3.1.6.3.8.6.2.2.4.5.6.8.1.3.2.7.2 1.2 0 .5-.1 1-.3 1.4-.2.4-.4.8-.7 1.1s-.7.6-1.2.8c-.5.2-1 .3-1.6.3-.4 0-.7 0-1-.1-.3-.1-.7-.2-1-.3-.3-.1-.6-.3-.9-.5-.3-.2-.5-.4-.7-.6l.6-1c.1-.1.1-.1.2-.2.1 0 .2-.1.3-.1.1 0 .3.1.4.2.1.1.3.2.5.3.2.1.4.2.7.3.3.1.6.2 1 .2.6 0 1-.1 1.4-.4.3-.3.5-.7.5-1.2 0-.3-.1-.5-.2-.7-.1-.2-.3-.3-.6-.5s-.5-.2-.8-.3c-.3-.1-.6-.2-.9-.3-.3-.1-.6-.2-.9-.4-.3-.1-.6-.3-.8-.6-.2-.2-.4-.5-.6-.9-.1-.3-.2-.8-.2-1.3 0-.4.1-.8.2-1.2.2-.4.4-.7.7-1 .3-.3.7-.5 1.1-.7.4-.2 1-.3 1.5-.3.7 0 1.3.1 1.8.3.6.2 1 .5 1.4.9l-.7 1.3"/><path d="m727.7 654v-10.4h1.2c.1 0 .2 0 .3.1.1.1.1.1.2.3l.2.7c.3-.4.7-.7 1.1-.9.4-.2.9-.3 1.4-.3.4 0 .8.1 1.2.3.4.2.7.4.9.8.3.3.5.8.6 1.2.1.5.2 1.1.2 1.7 0 .6-.1 1.1-.2 1.6-.2.5-.4.9-.7 1.3-.3.4-.6.7-1.1.9-.4.2-.9.3-1.4.3-.4 0-.8-.1-1.1-.2-.3-.1-.6-.3-.8-.6v3.2h-2m3.7-9c-.4 0-.7.1-1 .2-.3.2-.5.4-.8.7v3.5c.2.3.4.4.7.6.2.1.5.2.8.2.3 0 .5-.1.8-.2.2-.1.4-.3.6-.5.2-.2.3-.5.4-.8.1-.3.1-.7.1-1.2 0-.5 0-.8-.1-1.2-.1-.3-.2-.6-.3-.8-.1-.2-.3-.3-.5-.4-.3-.1-.5-.1-.7-.1"/><path d="m742.5 651.5h-.8c-.2 0-.3 0-.4-.1-.1-.1-.2-.2-.2-.3l-.2-.6c-.2.2-.4.3-.6.5-.2.1-.4.2-.6.3-.2.1-.4.2-.6.2-.2 0-.5.1-.8.1-.3 0-.6 0-.9-.1-.3-.1-.5-.2-.7-.4-.2-.2-.4-.4-.5-.7-.1-.3-.2-.6-.2-.9 0-.3.1-.6.2-.9.2-.3.4-.6.8-.8.4-.2.8-.4 1.4-.6.6-.2 1.3-.2 2.2-.2v-.5c0-.5-.1-.9-.3-1.2-.2-.3-.5-.4-1-.4-.3 0-.6 0-.8.1-.2.1-.4.2-.5.2-.2.1-.3.2-.4.2-.1.1-.3.1-.4.1-.1 0-.2 0-.3-.1s-.2-.1-.2-.2l-.3-.6c.9-.8 2-1.2 3.3-1.2.5 0 .9.1 1.2.2.4.2.7.4.9.6.2.3.4.6.6 1 .1.4.2.8.2 1.2v5.1zm-3.7-1.2c.2 0 .4 0 .5-.1.2 0 .3-.1.5-.2.1-.1.3-.2.4-.3.1-.1.3-.2.4-.4v-1.3c-.6 0-1 0-1.4.1-.4.1-.7.2-.9.3-.2.1-.4.2-.5.4-.1.1-.1.3-.1.5 0 .3.1.6.3.7.2.2.5.3.8.3"/><path d="m744.3 651.5v-7.8h1.2c.2 0 .4.1.5.3l.1.6c.1-.2.3-.3.4-.4.1-.1.3-.2.5-.3.2-.1.4-.2.6-.2.2-.1.4-.1.6-.1.5 0 .9.1 1.2.4.3.3.6.6.7 1.1.1-.3.3-.5.5-.7.2-.2.4-.3.6-.5.2-.1.4-.2.7-.3.2-.1.5-.1.7-.1.4 0 .8.1 1.2.2.3.1.6.3.8.6.2.3.4.6.5.9.1.4.2.8.2 1.3v5h-1.9v-5c0-.5-.1-.9-.3-1.1-.2-.3-.5-.4-1-.4-.2 0-.4 0-.5.1-.2.1-.3.2-.4.3-.1.1-.2.3-.3.5-.1.2-.1.4-.1.6v5h-1.9v-5c0-.5-.1-.9-.3-1.1-.2-.2-.5-.4-.9-.4-.3 0-.5.1-.8.2-.2.1-.5.3-.7.6v5.7h-1.9"/><path d="m766.1 642.5c-.1.1-.1.2-.2.2-.1 0-.2.1-.3.1-.1 0-.2 0-.3-.1-.1-.1-.3-.2-.4-.3s-.4-.2-.6-.3c-.2-.1-.5-.1-.8-.1-.3 0-.5 0-.7.1-.2.1-.4.2-.5.3-.1.1-.3.3-.3.4-.1.2-.1.4-.1.6 0 .3.1.5.2.6.1.2.3.3.6.4.2.1.5.2.8.3.3.1.6.2.9.3.3.1.6.2.9.4.3.1.6.3.8.6.2.2.4.5.6.8.1.3.2.7.2 1.2 0 .5-.1 1-.3 1.4-.2.4-.4.8-.7 1.1-.3.3-.7.6-1.2.8-.5.2-1 .3-1.6.3-.4 0-.7 0-1-.1-.3-.1-.7-.2-1-.3-.3-.1-.6-.3-.9-.5-.3-.2-.5-.4-.7-.6l.6-1c.1-.1.1-.1.2-.2.1 0 .2-.1.3-.1.1 0 .3.1.4.2.1.1.3.2.5.3.2.1.4.2.7.3.3.1.6.2 1 .2.6 0 1-.1 1.4-.4.3-.3.5-.7.5-1.2 0-.3-.1-.5-.2-.7-.1-.2-.3-.3-.6-.5s-.5-.2-.8-.3c-.3-.1-.6-.2-.9-.3-.3-.1-.6-.2-.9-.4-.3-.1-.6-.3-.8-.6-.2-.2-.4-.5-.6-.9-.1-.3-.2-.8-.2-1.3 0-.4.1-.8.2-1.2.2-.4.4-.7.7-1 .3-.3.7-.5 1.1-.7s1-.3 1.5-.3c.7 0 1.3.1 1.8.3.6.2 1 .5 1.4.9l-.7 1.3"/><path d="m773.8 645.3c-.1.1-.1.1-.2.2-.1 0-.1.1-.2.1-.1 0-.2 0-.3-.1-.1-.1-.2-.1-.3-.2-.1-.1-.3-.1-.5-.2-.2-.1-.4-.1-.7-.1-.3 0-.6.1-.9.2-.2.1-.5.3-.6.5-.2.2-.3.5-.4.8-.1.3-.1.7-.1 1.1 0 .4 0 .8.1 1.1.1.3.2.6.4.8.2.2.4.4.6.5.2.1.5.2.8.2.3 0 .5 0 .7-.1.2-.1.3-.2.5-.2.1-.1.2-.2.3-.2.1-.1.2-.1.3-.1.2 0 .3.1.3.2l.5.7c-.2.2-.4.4-.7.6-.2.2-.5.3-.8.4-.3.1-.5.2-.8.2-.3 0-.6.1-.8.1-.5 0-.9-.1-1.4-.3-.4-.2-.8-.4-1.1-.8-.3-.3-.6-.8-.8-1.3-.2-.5-.3-1.1-.3-1.7 0-.6.1-1.1.2-1.6.2-.5.4-.9.7-1.3.3-.4.7-.6 1.2-.8.5-.2 1-.3 1.6-.3.6 0 1.1.1 1.5.3.4.2.8.5 1.2.8v.5"/><path d="m778.9 643.5c.6 0 1.1.1 1.6.3.5.2.9.5 1.2.8.3.3.6.8.8 1.3.2.5.3 1.1.3 1.7 0 .6-.1 1.2-.3 1.7-.2.5-.4.9-.8 1.3-.3.4-.7.6-1.2.8-.5.2-1 .3-1.6.3-.6 0-1.1-.1-1.6-.3-.5-.2-.9-.5-1.2-.8s-.6-.8-.8-1.3c-.2-.5-.3-1.1-.3-1.7 0-.6.1-1.2.3-1.7.2-.5.4-.9.8-1.3s.7-.6 1.2-.8c.5-.2 1-.3 1.6-.3m0 6.6c.7 0 1.1-.2 1.4-.7.3-.4.5-1.1.5-1.9 0-.8-.2-1.5-.5-1.9-.3-.4-.8-.7-1.4-.7-.7 0-1.2.2-1.5.7-.3.4-.5 1.1-.5 1.9 0 .8.2 1.5.5 1.9.4.5.9.7 1.5.7"/><path d="m784.3 651.5v-7.8h1.1c.2 0 .3 0 .4.1s.1.2.2.4l.1.9c.3-.5.6-.9 1-1.1s.8-.4 1.3-.4c.4 0 .7.1 1 .3l-.2 1.4c0 .1 0 .2-.1.2-.1 0-.1.1-.2.1-.1 0-.2 0-.3-.1-.1 0-.3-.1-.5-.1-.4 0-.7.1-1 .3s-.5.5-.7.9v4.9h-2.1"/><path d="m793.7 643.5c.5 0 .9.1 1.4.2.4.2.8.4 1.1.7s.5.7.7 1.1c.2.4.3.9.3 1.5 0 .1 0 .3 0 .4 0 .1 0 .2-.1.2 0 .1-.1.1-.1.1-.1 0-.1 0-.2 0h-4.8c.1.8.3 1.4.6 1.8.4.4.9.6 1.5.6.3 0 .6 0 .8-.1.2-.1.4-.2.6-.2.2-.1.3-.2.4-.2.1-.1.2-.1.4-.1.1 0 .1 0 .2 0 .1 0 .1.1.1.1l.5.7c-.2.2-.4.4-.7.6-.3.2-.5.3-.8.4-.3.1-.6.2-.9.2-.3 0-.6.1-.9.1-.5 0-1.1-.1-1.5-.3-.5-.2-.9-.4-1.2-.8-.3-.4-.6-.8-.8-1.3-.2-.5-.3-1.1-.3-1.8 0-.5.1-1 .3-1.5.2-.5.4-.9.7-1.2.3-.3.7-.6 1.2-.8.4-.3.9-.4 1.5-.4m.1 1.4c-.5 0-1 .2-1.3.5-.3.3-.5.8-.6 1.3h3.5c0-.2 0-.5-.1-.7-.1-.2-.2-.4-.3-.6-.1-.2-.3-.3-.5-.4-.2-.1-.4-.1-.7-.1"/><path d="m925 647.6v3.9h-2.1v-11h3.6c.7 0 1.4.1 1.9.3.5.2 1 .4 1.3.7.4.3.6.7.8 1.1.2.4.3.9.3 1.4 0 .5-.1 1-.3 1.5-.2.4-.4.8-.8 1.1-.4.3-.8.6-1.3.7-.5.2-1.2.3-1.9.3h-1.5m0-1.6h1.5c.4 0 .7 0 1-.1.3-.1.5-.2.7-.4.2-.2.3-.4.4-.6.1-.3.1-.5.1-.8 0-.3 0-.6-.1-.8-.1-.2-.2-.4-.4-.6-.2-.2-.4-.3-.7-.4-.3-.1-.6-.1-1-.1h-1.5v3.8"/><path d="m940.9 651.5h-1.6c-.2 0-.3 0-.4-.1-.1-.1-.2-.2-.2-.3l-.8-2.3h-4.6l-.8 2.3c0 .1-.1.2-.2.3-.1.1-.3.1-.4.1h-1.6l4.3-11h2.1l4.2 11m-7.1-4.2h3.5l-1.3-3.7c-.1-.2-.1-.4-.2-.6-.1-.2-.1-.5-.2-.7-.1.3-.1.5-.2.7-.1.2-.1.4-.2.6l-1.4 3.7"/><path d="m1051.9 646c0 .8-.1 1.6-.4 2.2-.3.7-.6 1.3-1.1 1.7-.5.5-1.1.9-1.8 1.1-.7.3-1.4.4-2.3.4h-4.2v-11h4.2c.8 0 1.6.1 2.3.4.7.3 1.3.7 1.8 1.1s.9 1.1 1.1 1.7c.2.8.4 1.6.4 2.4m-2.1 0c0-.6-.1-1.1-.2-1.6-.2-.5-.4-.9-.7-1.2-.3-.3-.7-.6-1.1-.8-.4-.2-.9-.3-1.5-.3h-2.1v7.8h2.1c.5 0 1-.1 1.5-.3.4-.2.8-.4 1.1-.8.3-.3.5-.7.7-1.2.1-.5.2-1 .2-1.6"/><path d="m1062.8 651.5h-1.6c-.2 0-.3 0-.4-.1-.1-.1-.2-.2-.2-.3l-.8-2.3h-4.6l-.8 2.3c0 .1-.1.2-.2.3-.1.1-.3.1-.4.1h-1.6l4.3-11h2.1l4.2 11m-7.2-4.2h3.5l-1.3-3.7c-.1-.2-.1-.4-.2-.6-.1-.2-.1-.5-.2-.7-.1.3-.1.5-.2.7-.1.2-.1.4-.2.6l-1.4 3.7"/></g></svg>
