<?xml version="1.0" encoding="utf-8"?>
<!-- Generator: Adobe Illustrator 15.0.2, SVG Export Plug-In . SVG Version: 6.00 Build 0)  -->
<!DOCTYPE svg PUBLIC "-//W3C//DTD SVG 1.1//EN" "http://www.w3.org/Graphics/SVG/1.1/DTD/svg11.dtd">
<svg version="1.1" id="Layer_1" xmlns="http://www.w3.org/2000/svg" xmlns:xlink="http://www.w3.org/1999/xlink" x="0px" y="0px"
	 width="150px" height="25px" viewBox="0 0 150 25" enable-background="new 0 0 150 25" xml:space="preserve">
<g>
	<g id="Owl">
		<g>
			<path fill="none" stroke="#5F6C70" stroke-width="7.6162" d="M16.248,4.241"/>
			<path fill="#FFFFFF" d="M14.329,14.527c1.145,3.102,4.595,4.689,7.698,3.547c3.101-1.15,4.692-4.597,3.543-7.7
				c-1.146-3.106-4.591-4.691-7.698-3.546C14.767,7.977,13.182,11.422,14.329,14.527z"/>
			<circle fill="#FFFFFF" cx="6.667" cy="12.428" r="5.992"/>
			<path fill="#BE3538" d="M7.688,12.364c0,0.611-0.496,1.111-1.107,1.111c-0.613,0-1.108-0.5-1.108-1.111
				c0-0.61,0.495-1.104,1.108-1.104C7.192,11.261,7.688,11.754,7.688,12.364z"/>
			<path fill="#589442" d="M21.042,12.364c0,0.611-0.494,1.111-1.105,1.111c-0.615,0-1.108-0.5-1.108-1.111
				c0-0.61,0.493-1.104,1.108-1.104C20.548,11.261,21.042,11.754,21.042,12.364z"/>
			<g>
				<path d="M3.289,12.364c0,1.817,1.478,3.292,3.294,3.292c1.812,0,3.289-1.475,3.289-3.292c0-1.812-1.478-3.288-3.289-3.288
					C4.767,9.078,3.289,10.553,3.289,12.364z M4.424,12.364c0-1.188,0.971-2.155,2.161-2.155c1.188,0,2.154,0.969,2.154,2.155
					c0,1.192-0.966,2.16-2.154,2.16C5.395,14.525,4.424,13.558,4.424,12.364z"/>
			</g>
			<g>
				<path d="M16.644,12.364c0,1.817,1.476,3.292,3.292,3.292c1.813,0,3.288-1.475,3.288-3.292c0-1.812-1.475-3.288-3.288-3.288
					C18.121,9.078,16.644,10.553,16.644,12.364z M17.779,12.364c0-1.188,0.968-2.155,2.159-2.155c1.188,0,2.153,0.969,2.153,2.155
					c0,1.192-0.965,2.16-2.153,2.16C18.746,14.525,17.779,13.558,17.779,12.364z"/>
			</g>
			<g>
				<path fill="none" d="M15.517,15.369c0.54,0.824,1.29,1.489,2.206,1.912c1.291,0.596,2.737,0.652,4.07,0.161
					c2.752-1.02,4.166-4.083,3.149-6.833c-1.017-2.752-4.081-4.164-6.834-3.149c-1.333,0.492-2.395,1.476-2.991,2.767
					c-0.398,0.864-0.532,1.799-0.443,2.722"/>
				<g>
					<path fill="#FFD881" d="M17.641,6.197c0.694-0.256,1.404-0.38,2.105-0.399c-1.91-0.855-4.072-1.288-6.467-1.288
						c-2.377,0-4.57,0.443-6.479,1.259c3.455,0.068,6.264,2.774,6.506,6.185c0.059-0.783,0.25-1.557,0.588-2.29
						C14.639,8.043,15.971,6.813,17.641,6.197z"/>
				</g>
			</g>
			<path d="M25.307,8.491c0.312-1.337,1.304-2.676,1.304-2.676l-4.449-0.003c-2.495-1.611-5.524-2.465-8.881-2.465
				c-3.484,0-6.63,0.875-9.111,2.497L0,5.848c0,0,0.98,1.323,1.297,2.651c-0.811,1.103-1.293,2.458-1.293,3.93
				c0,3.673,2.99,6.661,6.665,6.661c2.101,0,3.974-0.979,5.196-2.5l1.419,2.125l1.43-2.143c0.643,0.818,1.473,1.482,2.446,1.932
				c1.618,0.744,3.431,0.817,5.1,0.201c3.448-1.275,5.218-5.119,3.943-8.562C25.979,9.536,25.673,8.985,25.307,8.491z M13.28,4.511
				c2.395,0,4.557,0.433,6.467,1.289c-0.702,0.019-1.411,0.144-2.105,0.398c-1.67,0.616-3.002,1.846-3.745,3.465
				c-0.338,0.733-0.529,1.507-0.588,2.29c-0.244-3.409-3.053-6.115-6.508-6.185C8.709,4.953,10.902,4.511,13.28,4.511z
				 M11.072,15.405c-0.957,1.411-2.575,2.341-4.405,2.341c-2.934,0-5.321-2.389-5.321-5.317c0-2.936,2.388-5.32,5.321-5.32
				s5.32,2.385,5.32,5.32c0,0.179-0.035,0.348-0.053,0.521C11.845,13.85,11.556,14.692,11.072,15.405z M21.793,17.443
				c-1.333,0.49-2.779,0.436-4.07-0.16c-0.916-0.424-1.666-1.089-2.206-1.914c-0.22-0.334-0.414-0.688-0.556-1.076
				c-0.162-0.438-0.243-0.89-0.287-1.345c-0.089-0.923,0.045-1.857,0.443-2.722c0.596-1.291,1.658-2.274,2.991-2.767
				c2.753-1.015,5.817,0.397,6.834,3.149C25.958,13.36,24.545,16.424,21.793,17.443z"/>
		</g>
	</g>
	<g id="US">
		<g>
			<g>
				<path fill="#589442" d="M95.578,4.412c0,0.71,0.578,1.286,1.287,1.286c0.713,0,1.287-0.576,1.287-1.286
					c0-0.709-0.576-1.288-1.287-1.288C96.156,3.123,95.578,3.703,95.578,4.412z"/>
				<g>
					<path d="M34.471,4.321L32.52,4.995c0,0,0,2.336,0,2.545c-0.204,0-2.162,0-2.162,0v1.707c0,0,1.897,0,2.103,0
						c0,0.222,0,5.479,0,5.479c0,2.604,0.887,3.672,3.067,3.672c0.553,0,1.081-0.068,1.611-0.213l0.086-0.021l-0.024-1.77
						l-0.149,0.057c-0.429,0.148-0.764,0.221-1.023,0.221c-1.024,0-1.404-0.576-1.404-2.131c0,0,0-5.074,0-5.292
						c0.208,0,2.495,0,2.495,0V7.54c0,0-2.286,0-2.495,0c0-0.211,0-3.269,0-3.269L34.471,4.321z"/>
					<path d="M41.215,9.269c0-0.601,0-1.729,0-1.729h-1.979V18.21H41.4v-5.356c0-2.245,0.943-3.482,2.653-3.482
						c0.248,0,0.488,0.037,0.781,0.12l0.14,0.04l0.071-2.106l-0.931-0.071C42.86,7.353,41.847,8.031,41.215,9.269z"/>
					<g>
						<path d="M56.657,7.289c-1.485,0-2.733,0.703-3.566,1.982c0-0.511,0-1.733,0-1.733h-1.978v15.017h2.165c0,0,0-5.244,0-5.821
							c0.781,1.062,1.901,1.646,3.295,1.646c2.735,0,4.502-2.244,4.502-5.71C61.076,9.451,59.299,7.289,56.657,7.289z
							 M56.053,16.629c-1.712,0-2.775-1.463-2.775-3.814c0-2.269,1.122-3.735,2.858-3.735c1.673,0,2.673,1.39,2.673,3.713
							C58.809,15.158,57.752,16.629,56.053,16.629z"/>
					</g>
				</g>
				<g>
					<g>
						<path fill="#589442" d="M67.4,7.289c-1.323,0-2.482,0.25-3.545,0.761l-0.066,0.032l0.023,1.847l0.17-0.096
							c1.016-0.568,1.978-0.858,2.854-0.858c1.567,0,2.467,0.898,2.467,2.468c0,0,0,0.045,0,0.091c-0.191,0-1.238,0-1.238,0
							c-3.562,0-5.522,1.29-5.522,3.63c0,1.879,1.415,3.192,3.44,3.192c1.49,0,2.643-0.586,3.465-1.688c0,0.429,0,1.541,0,1.541
							h1.955v-6.457C71.402,8.792,70.056,7.289,67.4,7.289z M69.3,13.705c0,1.838-1.106,3.027-2.817,3.027
							c-1.048,0-1.779-0.689-1.779-1.674c0-1.295,1.238-2.006,3.485-2.006c0,0,0.926,0,1.113,0C69.3,13.219,69.3,13.705,69.3,13.705
							z"/>
					</g>
					<g>
						<path fill="#589442" d="M80.592,2.444c0,0,0,5.949,0,6.543c-0.798-1.109-1.908-1.697-3.334-1.697
							c-2.647,0-4.426,2.18-4.426,5.419c0,3.337,1.804,5.667,4.382,5.667c1.527,0,2.718-0.676,3.544-1.991c0,0.532,0,1.825,0,1.825
							h2V2.444H80.592z M77.775,16.586c-1.649,0-2.673-1.438-2.673-3.752c0-2.317,1.033-3.815,2.634-3.815
							c1.787,0,2.854,1.425,2.854,3.815C80.592,15.117,79.49,16.586,77.775,16.586z"/>
					</g>
					<path fill="#589442" d="M92.426,7.539l-3.068,6.162l-2.836-6.162h-2.438l5.229,10.671l5.371-10.671H92.426z"/>
					<path fill="#589442" d="M97.834,7.539h-2.049V18.21h2.166V7.539H97.834z"/>
					<path fill="#589442" d="M100.488,10.275c0,1.501,1.031,2.291,2.936,3.223c1.201,0.59,1.828,0.938,1.828,1.77
						c0,0.853-0.77,1.404-1.967,1.404c-0.846,0-1.785-0.238-2.715-0.695l-0.158-0.078l-0.07,1.881l0.072,0.027
						c0.889,0.354,1.824,0.527,2.789,0.527c2.646,0,4.355-1.261,4.355-3.213c0-1.627-1.082-2.453-2.957-3.328
						c-1.373-0.645-1.949-1.021-1.949-1.705c0-0.648,0.641-1.07,1.631-1.07c0.895,0,1.768,0.199,2.594,0.593l0.156,0.072
						l0.094-1.841l-0.086-0.025c-0.896-0.266-1.781-0.4-2.633-0.4C102.064,7.414,100.488,8.564,100.488,10.275z"/>
					<g>
						<path fill="#589442" d="M114.309,7.289c-3.252,0-5.271,2.141-5.271,5.585c0,3.445,2.021,5.583,5.271,5.583
							c3.267,0,5.295-2.139,5.295-5.583C119.604,9.431,117.574,7.289,114.309,7.289z M114.328,16.691
							c-1.797,0-3.004-1.542-3.004-3.838c0-2.308,1.207-3.856,3.004-3.856c1.826,0,3.006,1.515,3.006,3.856
							C117.334,15.185,116.156,16.691,114.328,16.691z"/>
					</g>
					<path fill="#589442" d="M123.596,9.269c0-0.601,0-1.729,0-1.729h-1.979V18.21h2.164v-5.356c0-2.245,0.938-3.482,2.65-3.482
						c0.246,0,0.485,0.037,0.772,0.12l0.146,0.04l0.067-2.106l-0.927-0.071C125.24,7.353,124.229,8.031,123.596,9.269z"/>
				</g>
				<path d="M48.901,7.539h-2.048V18.21h2.164V7.539H48.901z"/>
				<path d="M46.643,4.412c0,0.71,0.579,1.286,1.287,1.286c0.71,0,1.287-0.576,1.287-1.286c0-0.709-0.577-1.288-1.287-1.288
					C47.222,3.123,46.643,3.703,46.643,4.412z"/>
				<path fill="#ABC99F" d="M132.578,7.067c0.355,0.359,0.541,0.837,0.541,1.351c0,0.537-0.201,1.018-0.57,1.372
					c-0.385,0.366-0.863,0.562-1.361,0.562c-0.521,0-1-0.205-1.373-0.59c-0.356-0.369-0.557-0.841-0.557-1.345
					c0-0.514,0.205-1.012,0.588-1.39c0.359-0.352,0.822-0.544,1.342-0.544C131.721,6.483,132.207,6.685,132.578,7.067z
					 M130.086,7.279c-0.312,0.312-0.479,0.714-0.479,1.139c0,0.414,0.154,0.794,0.453,1.098c0.299,0.312,0.696,0.481,1.121,0.481
					c0.414,0,0.811-0.159,1.118-0.457c0.302-0.29,0.468-0.688,0.468-1.123c0-0.425-0.154-0.811-0.447-1.107
					c-0.307-0.312-0.697-0.477-1.131-0.477C130.76,6.833,130.385,6.986,130.086,7.279z M131.223,7.315
					c0.605,0,0.916,0.219,0.916,0.616c0,0.273-0.162,0.485-0.451,0.572l0.476,0.931h-0.644l-0.397-0.84h-0.168v0.84h-0.584v-2.12
					L131.223,7.315L131.223,7.315z M130.951,8.249h0.203c0.26,0,0.385-0.091,0.385-0.273c0-0.208-0.131-0.293-0.416-0.293h-0.172
					V8.249L130.951,8.249z"/>
			</g>
		</g>
	</g>
</g>
</svg>
