<svg id="Layer_1" data-name="Layer 1" xmlns="http://www.w3.org/2000/svg" viewBox="0 0 153.71 8.55"><defs><style>.cls-1{fill:#231f20;}.cls-2{fill:#66a251;}.cls-3{fill:#fff;}</style></defs><title>Tagline_English_Horizontal</title><path class="cls-1" d="M1.53,0.88V4.81L3.24,3H4.19L2.25,4.94,4.43,7.49h-1L1.53,5.16V7.49H0.72V0.88H1.53Z" transform="translate(-0.72 -0.88)"/><path class="cls-1" d="M8.82,7.49H8V5c0-.9-0.3-1.34-1-1.34s-1.16.56-1.16,1.57V7.49H5.07V3H5.81V3.87a1.6,1.6,0,0,1,1.52-.93c1,0,1.49.64,1.49,1.87V7.49Z" transform="translate(-0.72 -0.88)"/><path class="cls-1" d="M14.14,5.27A2.09,2.09,0,0,1,12,7.6,2.08,2.08,0,0,1,9.83,5.27,2.08,2.08,0,0,1,12,2.94,2.08,2.08,0,0,1,14.14,5.27Zm-3.45,0A1.45,1.45,0,0,0,12,6.94a1.43,1.43,0,0,0,1.3-1.68A1.44,1.44,0,0,0,12,3.57,1.45,1.45,0,0,0,10.69,5.26Z" transform="translate(-0.72 -0.88)"/><path class="cls-1" d="M15.54,3l0.92,3.37s0,0.24.09,0.58a5,5,0,0,1,.09-0.56l1-3.4h1l1,3.37a4.35,4.35,0,0,1,.1.58,3.35,3.35,0,0,1,.09-0.57l1-3.39h0.79L20.1,7.49H19.18L18.16,4a2.94,2.94,0,0,1-.08-0.53A4.85,4.85,0,0,1,18,4l-1,3.5H16L14.67,3h0.87Z" transform="translate(-0.72 -0.88)"/><path class="cls-1" d="M25.57,0.88V3.75A1.57,1.57,0,0,1,27,2.95c1,0,1.79.87,1.79,2.25S28,7.56,27,7.56a1.64,1.64,0,0,1-1.52-1v0.9H24.77V0.88h0.81Zm0,4.36c0,1,.51,1.66,1.22,1.66S28,6.29,28,5.27s-0.47-1.69-1.14-1.69S25.57,4.19,25.57,5.24Z" transform="translate(-0.72 -0.88)"/><path class="cls-1" d="M33.47,5.46H30.39A1.44,1.44,0,0,0,31.92,7a2.52,2.52,0,0,0,1.21-.33V7.35a3.43,3.43,0,0,1-1.38.25,2.09,2.09,0,0,1-2.13-2.37,2.05,2.05,0,0,1,2-2.28c1.13,0,1.83.81,1.83,2.19V5.46ZM31.6,3.53a1.29,1.29,0,0,0-1.19,1.38h2.31A1.21,1.21,0,0,0,31.6,3.53Z" transform="translate(-0.72 -0.88)"/><path class="cls-1" d="M35.55,3h1V3.67h-1V6c0,0.66.16,1,.63,1a1.37,1.37,0,0,0,.44-0.1V7.48a2.47,2.47,0,0,1-.66.09c-0.91,0-1.23-.47-1.23-1.51V3.67H33.87V3h0.9V1.95l0.78-.27V3Z" transform="translate(-0.72 -0.88)"/><path class="cls-1" d="M38.73,3h1V3.67h-1V6c0,0.66.16,1,.63,1a1.37,1.37,0,0,0,.44-0.1V7.48a2.47,2.47,0,0,1-.66.09c-0.91,0-1.23-.47-1.23-1.51V3.67H37V3h0.9V1.95l0.78-.27V3Z" transform="translate(-0.72 -0.88)"/><path class="cls-1" d="M44.27,5.46H41.2A1.44,1.44,0,0,0,42.72,7a2.52,2.52,0,0,0,1.21-.33V7.35a3.43,3.43,0,0,1-1.38.25,2.09,2.09,0,0,1-2.13-2.37,2.05,2.05,0,0,1,2-2.28c1.13,0,1.83.81,1.83,2.19V5.46ZM42.4,3.53a1.29,1.29,0,0,0-1.19,1.38h2.31A1.21,1.21,0,0,0,42.4,3.53Z" transform="translate(-0.72 -0.88)"/><path class="cls-1" d="M47.5,3.78a1.18,1.18,0,0,0-.34-0.05c-0.73,0-1.15.54-1.15,1.53V7.49H45.2V3h0.73V4a1.34,1.34,0,0,1,1.26-1l0.34,0Z" transform="translate(-0.72 -0.88)"/><path class="cls-1" d="M61.57,0.88V3.75A1.57,1.57,0,0,1,63,2.95c1,0,1.79.87,1.79,2.25S64,7.56,63,7.56a1.64,1.64,0,0,1-1.52-1v0.9H60.77V0.88h0.81Zm0,4.36c0,1,.51,1.66,1.22,1.66S64,6.29,64,5.27s-0.47-1.69-1.14-1.69S61.57,4.19,61.57,5.24Z" transform="translate(-0.72 -0.88)"/><path class="cls-1" d="M69.92,5.27a2.16,2.16,0,1,1-4.31,0A2.16,2.16,0,1,1,69.92,5.27Zm-3.45,0a1.34,1.34,0,1,0,2.6,0A1.35,1.35,0,1,0,66.47,5.26Z" transform="translate(-0.72 -0.88)"/><path class="cls-1" d="M75,5.27a2.16,2.16,0,1,1-4.31,0A2.16,2.16,0,1,1,75,5.27Zm-3.45,0a1.34,1.34,0,1,0,2.6,0A1.35,1.35,0,1,0,71.56,5.26Z" transform="translate(-0.72 -0.88)"/><path class="cls-1" d="M76.93,0.88V4.81L78.65,3h0.95L77.66,4.94l2.18,2.55h-1L76.93,5.16V7.49H76.13V0.88h0.81Z" transform="translate(-0.72 -0.88)"/><path class="cls-1" d="M83.76,0.88V3.75a1.57,1.57,0,0,1,1.45-.81c1,0,1.79.87,1.79,2.25s-0.76,2.36-1.79,2.36a1.64,1.64,0,0,1-1.52-1v0.9H83V0.88h0.81Zm0,4.36c0,1,.51,1.66,1.22,1.66s1.16-.6,1.16-1.63S85.68,3.58,85,3.58,83.76,4.19,83.76,5.24Z" transform="translate(-0.72 -0.88)"/><path class="cls-1" d="M91.66,5.46H88.59A1.44,1.44,0,0,0,90.11,7a2.53,2.53,0,0,0,1.21-.33V7.35a3.43,3.43,0,0,1-1.38.25,2.09,2.09,0,0,1-2.13-2.37,2.05,2.05,0,0,1,2-2.28c1.13,0,1.83.81,1.83,2.19V5.46ZM89.79,3.53A1.29,1.29,0,0,0,88.6,4.91h2.31A1.21,1.21,0,0,0,89.79,3.53Z" transform="translate(-0.72 -0.88)"/><path class="cls-1" d="M93.74,3h1V3.67h-1V6c0,0.66.16,1,.63,1a1.36,1.36,0,0,0,.44-0.1V7.48a2.46,2.46,0,0,1-.66.09c-0.91,0-1.23-.47-1.23-1.51V3.67H92.06V3H93V1.95l0.78-.27V3Z" transform="translate(-0.72 -0.88)"/><path class="cls-1" d="M96.92,3h1V3.67h-1V6c0,0.66.16,1,.63,1A1.36,1.36,0,0,0,98,6.83V7.48a2.46,2.46,0,0,1-.66.09c-0.91,0-1.23-.47-1.23-1.51V3.67H95.24V3h0.9V1.95l0.78-.27V3Z" transform="translate(-0.72 -0.88)"/><path class="cls-1" d="M102.47,5.46H99.39A1.44,1.44,0,0,0,100.92,7a2.53,2.53,0,0,0,1.21-.33V7.35a3.43,3.43,0,0,1-1.38.25,2.09,2.09,0,0,1-2.13-2.37,2.05,2.05,0,0,1,2-2.28c1.13,0,1.83.81,1.83,2.19V5.46ZM100.6,3.53a1.29,1.29,0,0,0-1.19,1.38h2.31A1.21,1.21,0,0,0,100.6,3.53Z" transform="translate(-0.72 -0.88)"/><path class="cls-1" d="M105.69,3.78a1.18,1.18,0,0,0-.34-0.05c-0.73,0-1.15.54-1.15,1.53V7.49H103.4V3h0.73V4a1.34,1.34,0,0,1,1.26-1l0.34,0Z" transform="translate(-0.72 -0.88)"/><path class="cls-1" d="M122,3h0.74V7c0,1.63-.73,2.44-2.17,2.44a3.89,3.89,0,0,1-1.46-.27l0.06-.74a2.83,2.83,0,0,0,1.27.36,1.44,1.44,0,0,0,1.52-1.65V6.6a1.65,1.65,0,0,1-1.46.89c-1.07,0-1.81-.88-1.81-2.24s0.74-2.31,1.82-2.31a1.59,1.59,0,0,1,1.48.9V3Zm-2.45,2.16c0,1,.49,1.62,1.16,1.62a1.37,1.37,0,0,0,1.21-1.59c0-1.05-.48-1.65-1.22-1.65S119.52,4.18,119.52,5.21Z" transform="translate(-0.72 -0.88)"/><path class="cls-1" d="M128.08,5.27a2.16,2.16,0,1,1-4.31,0A2.16,2.16,0,1,1,128.08,5.27Zm-3.45,0a1.34,1.34,0,1,0,2.6,0A1.35,1.35,0,1,0,124.63,5.26Z" transform="translate(-0.72 -0.88)"/><path class="cls-1" d="M132.48,0.88V3.75a1.57,1.57,0,0,1,1.45-.81c1,0,1.79.87,1.79,2.25s-0.76,2.36-1.79,2.36a1.64,1.64,0,0,1-1.52-1v0.9h-0.74V0.88h0.81Zm0,4.36c0,1,.51,1.66,1.22,1.66s1.16-.6,1.16-1.63-0.47-1.69-1.14-1.69S132.48,4.19,132.48,5.24Z" transform="translate(-0.72 -0.88)"/><path class="cls-1" d="M140.38,5.46H137.3A1.44,1.44,0,0,0,138.82,7,2.53,2.53,0,0,0,140,6.64V7.35a3.43,3.43,0,0,1-1.38.25,2.09,2.09,0,0,1-2.13-2.37,2.05,2.05,0,0,1,2-2.28c1.13,0,1.83.81,1.83,2.19V5.46ZM138.5,3.53a1.29,1.29,0,0,0-1.19,1.38h2.31A1.21,1.21,0,0,0,138.5,3.53Z" transform="translate(-0.72 -0.88)"/><path class="cls-1" d="M142.46,3h1V3.67h-1V6c0,0.66.16,1,.63,1a1.36,1.36,0,0,0,.44-0.1V7.48a2.46,2.46,0,0,1-.66.09c-0.91,0-1.23-.47-1.23-1.51V3.67h-0.88V3h0.9V1.95l0.78-.27V3Z" transform="translate(-0.72 -0.88)"/><path class="cls-1" d="M145.63,3h1V3.67h-1V6c0,0.66.16,1,.63,1a1.36,1.36,0,0,0,.44-0.1V7.48a2.46,2.46,0,0,1-.66.09c-0.91,0-1.23-.47-1.23-1.51V3.67h-0.88V3h0.9V1.95l0.78-.27V3Z" transform="translate(-0.72 -0.88)"/><path class="cls-1" d="M151.18,5.46H148.1A1.44,1.44,0,0,0,149.63,7a2.53,2.53,0,0,0,1.21-.33V7.35a3.43,3.43,0,0,1-1.38.25,2.09,2.09,0,0,1-2.13-2.37,2.05,2.05,0,0,1,2-2.28c1.13,0,1.83.81,1.83,2.19V5.46Zm-1.87-1.93a1.29,1.29,0,0,0-1.19,1.38h2.31A1.21,1.21,0,0,0,149.31,3.53Z" transform="translate(-0.72 -0.88)"/><path class="cls-1" d="M154.41,3.78a1.18,1.18,0,0,0-.34-0.05c-0.73,0-1.15.54-1.15,1.53V7.49h-0.81V3h0.73V4a1.34,1.34,0,0,1,1.26-1l0.34,0Z" transform="translate(-0.72 -0.88)"/><path class="cls-2" d="M51.09,4.5a3,3,0,1,0,6,0,3,3,0,1,0-6,0" transform="translate(-0.72 -0.88)"/><path class="cls-3" d="M51.69,4.5a2.4,2.4,0,1,1,2.39,2.44A2.42,2.42,0,0,1,51.69,4.5" transform="translate(-0.72 -0.88)"/><path class="cls-2" d="M52.6,4.48A1.48,1.48,0,1,0,54.09,3,1.5,1.5,0,0,0,52.6,4.48" transform="translate(-0.72 -0.88)"/><path class="cls-2" d="M109.22,4.5a3,3,0,1,0,6,0,3,3,0,1,0-6,0" transform="translate(-0.72 -0.88)"/><path class="cls-3" d="M109.82,4.5a2.4,2.4,0,1,1,2.39,2.44,2.42,2.42,0,0,1-2.39-2.44" transform="translate(-0.72 -0.88)"/><path class="cls-2" d="M110.74,4.48A1.48,1.48,0,1,0,112.22,3a1.5,1.5,0,0,0-1.48,1.51" transform="translate(-0.72 -0.88)"/></svg>