<svg xmlns="http://www.w3.org/2000/svg" viewBox="0 0 70.4 68.5" enable-background="new 0 0 70.4 68.5"><circle cx="31.2" cy="41.3" r="24.7" fill="#fff"/><path d="m31.1 67.2c-14.3 0-25.9-11.6-25.9-25.9s11.6-25.9 25.9-25.9 25.9 11.7 25.9 26-11.6 25.8-25.9 25.8m0-49.7c-13.2 0-23.9 10.7-23.9 23.9 0 13.2 10.7 23.9 23.9 23.9s23.9-10.8 23.9-24c0-13.1-10.7-23.8-23.9-23.8" fill="#00bde6"/><g fill="#fff"><path d="m35.8 49.4c-.2 0-.5-.1-.6-.2l-10.6-9c-.4-.4-.5-1-.1-1.4.4-.4 1-.5 1.4-.1l10.6 9c.4.4.5 1 .1 1.4-.3.1-.5.3-.8.3"/><path d="m25.2 49.4c-.3 0-.6-.1-.8-.4-.4-.4-.3-1.1.1-1.4l10.6-9c.4-.4 1.1-.3 1.4.1.4.4.3 1.1-.1 1.4l-10.6 9c-.2.2-.4.3-.6.3"/></g><g fill="#00e7ca"><path d="m14.9 41.4h8.2v11.2h-8.2z"/><path d="m26.5 35.9h8.2v16.7h-8.2z"/><path d="m37.8 28h8.2v24.6h-8.2z"/></g></svg>