<svg xmlns="http://www.w3.org/2000/svg" xmlns:xlink="http://www.w3.org/1999/xlink" version="1.1" x="0px" y="0px" width="100px" height="54.772px" viewBox="0 0 100 54.772" enable-background="new 0 0 100 54.772" xml:space="preserve"><style>.style0{fill:	#FFDA7D;}.style1{stroke:	#A7F6E4;stroke-width:	2;stroke-miterlimit:	10;fill:	none;}.style2{fill:	#FAFBFF;}.style3{fill:	#C4EFFB;}.style4{stroke-width:	2;stroke:	#FFFFFF;stroke-linecap:	round;stroke-miterlimit:	10;fill:	none;}.style5{fill:	#A6E2F7;}.style6{fill:	#B6EDA2;}.style7{fill:	#8CF1DC;}.style8{fill:	#FFE198;}.style9{fill:	#E6DFF7;}</style><path d="M60.361 23.341H39.527c-1.148 0-2.083 0.935-2.083 2.083v16.667c0 1.1 0.9 2.1 2.1 2.083h20.833 c1.148 0 2.083-0.935 2.083-2.083V25.425C62.444 24.3 61.5 23.3 60.4 23.341z M43.904 33.636l4.919 4.5 c0.309 0.3 0.7 0.4 1.1 0.421s0.812-0.14 1.121-0.421l4.919-4.472l4.304 8.455H39.6L43.904 33.636z M39.527 39.939V29.657 l3.578 3.253L39.527 39.939z M56.782 32.91l3.578-3.252l-0.002 10.277L56.782 32.91z M60.361 25.425L60.36 28.25l-9.995 9.1 c-0.226 0.203-0.616 0.203-0.842 0l-9.996-9.087v-2.825H60.361z" class="style0"/><g><path d="M81.054 16.485c-3.241-0.992-5.777-4.8-6.682-8.078 c-0.905 3.278-3.441 7.086-6.682 8.078c3.241 1 5.8 5.2 6.7 8.481C75.278 21.7 77.8 17.5 81.1 16.485z" class="style1"/></g><polygon points="31.9,48.4 29,54.3 26.1,48.4" class="style2"/><g><rect x="17" y="35.5" width="1.7" height="8.9" class="style3"/><rect x="13.4" y="39.1" width="8.9" height="1.7" class="style3"/></g><path d="M22.042 1.2 c1.152 1 2.3 2 2.3 4.441c0 2.281-1.298 3.408-2.554 4.497c-1.165 1.011-2.266 1.966-2.266 3.866s1.1 2.9 2.3 3.9 c1.255 1.1 2.6 2.2 2.6 4.5" class="style4"/><circle cx="85.4" cy="33.3" r="1.5" class="style5"/><polygon points="75.4,42 77,38.7 78.6,42" class="style6"/><circle cx="11" cy="26.3" r="1.5" class="style7"/><circle cx="4.5" cy="33.3" r="1.5" class="style8"/><g><rect x="56.1" y="1.9" width="1.7" height="8.9" class="style9"/><rect x="52.5" y="5.5" width="8.9" height="1.7" class="style9"/></g></svg>